G04 #@! TF.FileFunction,Copper,L2,Bot,Signal*
%FSLAX46Y46*%
G04 Gerber Fmt 4.6, Leading zero omitted, Abs format (unit mm)*
G04 Created by KiCad (PCBNEW 4.0.7) date 10/23/17 00:19:34*
%MOMM*%
%LPD*%
G01*
G04 APERTURE LIST*
%ADD10C,0.100000*%
%ADD11C,1.600000*%
%ADD12R,2.000000X2.000000*%
%ADD13C,2.000000*%
%ADD14R,2.400000X2.400000*%
%ADD15O,2.400000X2.400000*%
%ADD16R,1.600000X1.600000*%
%ADD17O,1.600000X1.600000*%
%ADD18R,3.500000X3.500000*%
%ADD19R,1.700000X1.700000*%
%ADD20O,1.700000X1.700000*%
%ADD21C,2.400000*%
%ADD22O,1.500000X0.900000*%
%ADD23R,1.500000X0.900000*%
%ADD24R,1.800000X1.800000*%
%ADD25O,1.800000X1.800000*%
%ADD26C,1.524000*%
%ADD27C,1.000000*%
%ADD28C,2.000000*%
%ADD29C,0.254000*%
G04 APERTURE END LIST*
D10*
D11*
X169672000Y-122682000D03*
X169672000Y-125182000D03*
X149606000Y-120396000D03*
X149606000Y-125396000D03*
X173228000Y-122682000D03*
X173228000Y-125182000D03*
D12*
X149606000Y-91440000D03*
D13*
X149606000Y-86440000D03*
D14*
X141986000Y-97536000D03*
D15*
X141986000Y-102616000D03*
D16*
X155956000Y-112014000D03*
D17*
X163576000Y-112014000D03*
D18*
X150876000Y-131826000D03*
X150876000Y-137826000D03*
X155576000Y-134826000D03*
D19*
X136500000Y-127000000D03*
D20*
X136500000Y-129540000D03*
X136500000Y-132080000D03*
X136500000Y-134620000D03*
D19*
X136500000Y-97000000D03*
D20*
X136500000Y-99540000D03*
X136500000Y-102080000D03*
X136500000Y-104620000D03*
X136500000Y-107160000D03*
D21*
X157678000Y-102362000D03*
X150678000Y-102362000D03*
D22*
X148590000Y-113284000D03*
X148590000Y-114554000D03*
D23*
X148590000Y-112014000D03*
D24*
X141732000Y-108204000D03*
D25*
X141732000Y-110744000D03*
X141732000Y-113284000D03*
D11*
X164338000Y-108712000D03*
D17*
X164338000Y-96012000D03*
D11*
X170688000Y-105918000D03*
D17*
X170688000Y-116078000D03*
D11*
X153162000Y-115062000D03*
D17*
X153162000Y-125222000D03*
D11*
X166370000Y-91186000D03*
D17*
X156210000Y-91186000D03*
D26*
X173990000Y-89408000D03*
X171450000Y-86868000D03*
X171450000Y-91948000D03*
D11*
X156210000Y-87376000D03*
D17*
X166370000Y-87376000D03*
D21*
X176784000Y-103632000D03*
D15*
X176784000Y-118872000D03*
D16*
X156718000Y-116332000D03*
D17*
X164338000Y-123952000D03*
X156718000Y-118872000D03*
X164338000Y-121412000D03*
X156718000Y-121412000D03*
X164338000Y-118872000D03*
X156718000Y-123952000D03*
X164338000Y-116332000D03*
D24*
X141732000Y-121666000D03*
D25*
X141732000Y-124206000D03*
X141732000Y-126746000D03*
D16*
X163068000Y-131572000D03*
D11*
X163068000Y-134072000D03*
D26*
X145288000Y-96012000D03*
X147828000Y-96012000D03*
X145288000Y-98552000D03*
X146812000Y-86360000D03*
X146812000Y-88900000D03*
X149860000Y-83820000D03*
X152908000Y-84836000D03*
X150368000Y-96012000D03*
X147828000Y-98552000D03*
X150368000Y-98552000D03*
X155956000Y-96012000D03*
X155956000Y-98552000D03*
X148336000Y-128016000D03*
X151384000Y-128016000D03*
D27*
X153670000Y-107188000D02*
X153670000Y-88392000D01*
X150876000Y-113284000D02*
X153670000Y-110490000D01*
X153670000Y-110490000D02*
X153670000Y-107188000D01*
X148590000Y-113284000D02*
X150876000Y-113284000D01*
X151718000Y-86440000D02*
X149606000Y-86440000D01*
X153670000Y-88392000D02*
X151718000Y-86440000D01*
X136500000Y-104620000D02*
X136500000Y-107160000D01*
X136500000Y-107160000D02*
X136500000Y-110592000D01*
X139192000Y-113284000D02*
X141732000Y-113284000D01*
X136500000Y-110592000D02*
X139192000Y-113284000D01*
X148590000Y-113284000D02*
X141732000Y-113284000D01*
X141732000Y-113284000D02*
X141732000Y-115570000D01*
X144018000Y-123190000D02*
X143002000Y-124206000D01*
X144018000Y-117856000D02*
X144018000Y-123190000D01*
X141732000Y-115570000D02*
X144018000Y-117856000D01*
X141732000Y-124206000D02*
X143002000Y-124206000D01*
X144272000Y-125476000D02*
X144272000Y-134620000D01*
X143002000Y-124206000D02*
X144272000Y-125476000D01*
X136500000Y-134620000D02*
X144272000Y-134620000D01*
X144272000Y-134620000D02*
X145034000Y-134620000D01*
X145034000Y-134620000D02*
X148240000Y-137826000D01*
X148240000Y-137826000D02*
X150876000Y-137826000D01*
X156718000Y-123952000D02*
X156718000Y-133684000D01*
X156718000Y-133684000D02*
X155576000Y-134826000D01*
X156718000Y-123952000D02*
X155448000Y-123952000D01*
X151558000Y-123444000D02*
X149606000Y-125396000D01*
X154940000Y-123444000D02*
X151558000Y-123444000D01*
X155448000Y-123952000D02*
X154940000Y-123444000D01*
X141732000Y-124206000D02*
X148416000Y-124206000D01*
X148416000Y-124206000D02*
X149606000Y-125396000D01*
X156718000Y-123952000D02*
X156718000Y-124460000D01*
X156718000Y-124460000D02*
X158496000Y-126238000D01*
X158496000Y-126238000D02*
X168616000Y-126238000D01*
X168616000Y-126238000D02*
X169672000Y-125182000D01*
D28*
X165862000Y-123952000D02*
X164338000Y-123952000D01*
X166624000Y-123190000D02*
X165862000Y-123952000D01*
X166624000Y-121920000D02*
X166624000Y-123190000D01*
X168402000Y-120142000D02*
X166624000Y-121920000D01*
X171958000Y-120142000D02*
X168402000Y-120142000D01*
X173228000Y-121412000D02*
X171958000Y-120142000D01*
X173228000Y-122682000D02*
X173228000Y-121412000D01*
X164846000Y-112014000D02*
X163576000Y-112014000D01*
X168910000Y-116078000D02*
X164846000Y-112014000D01*
X170688000Y-116078000D02*
X168910000Y-116078000D01*
X176784000Y-103632000D02*
X176784000Y-99314000D01*
X173482000Y-96012000D02*
X164338000Y-96012000D01*
X176784000Y-99314000D02*
X173482000Y-96012000D01*
X164338000Y-96012000D02*
X162052000Y-96012000D01*
X160020000Y-98044000D02*
X160020000Y-104704000D01*
X162052000Y-96012000D02*
X160020000Y-98044000D01*
X164338000Y-118872000D02*
X162560000Y-118872000D01*
X160020000Y-104704000D02*
X157678000Y-102362000D01*
X160020000Y-116332000D02*
X160020000Y-104704000D01*
X162560000Y-118872000D02*
X160020000Y-116332000D01*
D29*
G36*
X148463243Y-83540900D02*
X148462758Y-84096661D01*
X148674990Y-84610303D01*
X148981365Y-84917213D01*
X148731736Y-85020613D01*
X148633073Y-85287468D01*
X149606000Y-86260395D01*
X150578927Y-85287468D01*
X150514297Y-85112661D01*
X151510758Y-85112661D01*
X151722990Y-85626303D01*
X152115630Y-86019629D01*
X152628900Y-86232757D01*
X153184661Y-86233242D01*
X153698303Y-86021010D01*
X154091629Y-85628370D01*
X154304757Y-85115100D01*
X154305242Y-84559339D01*
X154093010Y-84045697D01*
X153700370Y-83652371D01*
X153187100Y-83439243D01*
X152631339Y-83438758D01*
X152117697Y-83650990D01*
X151724371Y-84043630D01*
X151511243Y-84556900D01*
X151510758Y-85112661D01*
X150514297Y-85112661D01*
X150497794Y-85068025D01*
X150650303Y-85005010D01*
X151043629Y-84612370D01*
X151256757Y-84099100D01*
X151257242Y-83543339D01*
X151061118Y-83068682D01*
X182815000Y-83068682D01*
X182815000Y-137316215D01*
X182474142Y-139029826D01*
X181541676Y-140425359D01*
X180146142Y-141357824D01*
X178432533Y-141698682D01*
X139567467Y-141698682D01*
X137853856Y-141357824D01*
X136458323Y-140425358D01*
X135525858Y-139029824D01*
X135493543Y-138867365D01*
X137715000Y-138867365D01*
X137888935Y-139741797D01*
X138384261Y-140483104D01*
X139125568Y-140978430D01*
X140000000Y-141152365D01*
X140874432Y-140978430D01*
X141615739Y-140483104D01*
X142111065Y-139741797D01*
X142285000Y-138867365D01*
X142134700Y-138111750D01*
X148491000Y-138111750D01*
X148491000Y-139702309D01*
X148587673Y-139935698D01*
X148766301Y-140114327D01*
X148999690Y-140211000D01*
X150590250Y-140211000D01*
X150749000Y-140052250D01*
X150749000Y-137953000D01*
X151003000Y-137953000D01*
X151003000Y-140052250D01*
X151161750Y-140211000D01*
X152752310Y-140211000D01*
X152985699Y-140114327D01*
X153164327Y-139935698D01*
X153261000Y-139702309D01*
X153261000Y-138867365D01*
X175715000Y-138867365D01*
X175888935Y-139741797D01*
X176384261Y-140483104D01*
X177125568Y-140978430D01*
X178000000Y-141152365D01*
X178874432Y-140978430D01*
X179615739Y-140483104D01*
X180111065Y-139741797D01*
X180285000Y-138867365D01*
X180111065Y-137992933D01*
X179615739Y-137251626D01*
X178874432Y-136756300D01*
X178000000Y-136582365D01*
X177125568Y-136756300D01*
X176384261Y-137251626D01*
X175888935Y-137992933D01*
X175715000Y-138867365D01*
X153261000Y-138867365D01*
X153261000Y-138111750D01*
X153102250Y-137953000D01*
X151003000Y-137953000D01*
X150749000Y-137953000D01*
X148649750Y-137953000D01*
X148491000Y-138111750D01*
X142134700Y-138111750D01*
X142111065Y-137992933D01*
X141615739Y-137251626D01*
X140874432Y-136756300D01*
X140000000Y-136582365D01*
X139125568Y-136756300D01*
X138384261Y-137251626D01*
X137888935Y-137992933D01*
X137715000Y-138867365D01*
X135493543Y-138867365D01*
X135185000Y-137316215D01*
X135185000Y-135282249D01*
X135228355Y-135386924D01*
X135618642Y-135815183D01*
X136143108Y-136061486D01*
X136373000Y-135940819D01*
X136373000Y-134747000D01*
X136627000Y-134747000D01*
X136627000Y-135940819D01*
X136856892Y-136061486D01*
X137094943Y-135949691D01*
X148491000Y-135949691D01*
X148491000Y-137540250D01*
X148649750Y-137699000D01*
X150749000Y-137699000D01*
X150749000Y-135599750D01*
X151003000Y-135599750D01*
X151003000Y-137699000D01*
X153102250Y-137699000D01*
X153261000Y-137540250D01*
X153261000Y-136871304D01*
X153287673Y-136935698D01*
X153466301Y-137114327D01*
X153699690Y-137211000D01*
X155290250Y-137211000D01*
X155449000Y-137052250D01*
X155449000Y-134953000D01*
X155703000Y-134953000D01*
X155703000Y-137052250D01*
X155861750Y-137211000D01*
X157452310Y-137211000D01*
X157685699Y-137114327D01*
X157864327Y-136935698D01*
X157961000Y-136702309D01*
X157961000Y-135111750D01*
X157928995Y-135079745D01*
X162239861Y-135079745D01*
X162313995Y-135325864D01*
X162851223Y-135518965D01*
X163421454Y-135491778D01*
X163822005Y-135325864D01*
X163896139Y-135079745D01*
X163068000Y-134251605D01*
X162239861Y-135079745D01*
X157928995Y-135079745D01*
X157802250Y-134953000D01*
X155703000Y-134953000D01*
X155449000Y-134953000D01*
X153349750Y-134953000D01*
X153191000Y-135111750D01*
X153191000Y-135780696D01*
X153164327Y-135716302D01*
X152985699Y-135537673D01*
X152752310Y-135441000D01*
X151161750Y-135441000D01*
X151003000Y-135599750D01*
X150749000Y-135599750D01*
X150590250Y-135441000D01*
X148999690Y-135441000D01*
X148766301Y-135537673D01*
X148587673Y-135716302D01*
X148491000Y-135949691D01*
X137094943Y-135949691D01*
X137381358Y-135815183D01*
X137771645Y-135386924D01*
X137941476Y-134976890D01*
X137820155Y-134747000D01*
X136627000Y-134747000D01*
X136373000Y-134747000D01*
X136353000Y-134747000D01*
X136353000Y-134493000D01*
X136373000Y-134493000D01*
X136373000Y-134473000D01*
X136627000Y-134473000D01*
X136627000Y-134493000D01*
X137820155Y-134493000D01*
X137941476Y-134263110D01*
X137771645Y-133853076D01*
X137381358Y-133424817D01*
X137238447Y-133357702D01*
X137579147Y-133130054D01*
X137901054Y-132648285D01*
X138014093Y-132080000D01*
X137901054Y-131511715D01*
X137579147Y-131029946D01*
X137249974Y-130810000D01*
X137579147Y-130590054D01*
X137901054Y-130108285D01*
X137907475Y-130076000D01*
X148478560Y-130076000D01*
X148478560Y-133576000D01*
X148522838Y-133811317D01*
X148661910Y-134027441D01*
X148874110Y-134172431D01*
X149126000Y-134223440D01*
X152626000Y-134223440D01*
X152861317Y-134179162D01*
X153077441Y-134040090D01*
X153191000Y-133873891D01*
X153191000Y-134540250D01*
X153349750Y-134699000D01*
X155449000Y-134699000D01*
X155449000Y-132599750D01*
X155703000Y-132599750D01*
X155703000Y-134699000D01*
X157802250Y-134699000D01*
X157961000Y-134540250D01*
X157961000Y-133855223D01*
X161621035Y-133855223D01*
X161648222Y-134425454D01*
X161814136Y-134826005D01*
X162060255Y-134900139D01*
X162888395Y-134072000D01*
X163247605Y-134072000D01*
X164075745Y-134900139D01*
X164321864Y-134826005D01*
X164514965Y-134288777D01*
X164487778Y-133718546D01*
X164321864Y-133317995D01*
X164075745Y-133243861D01*
X163247605Y-134072000D01*
X162888395Y-134072000D01*
X162060255Y-133243861D01*
X161814136Y-133317995D01*
X161621035Y-133855223D01*
X157961000Y-133855223D01*
X157961000Y-132949691D01*
X157864327Y-132716302D01*
X157685699Y-132537673D01*
X157452310Y-132441000D01*
X155861750Y-132441000D01*
X155703000Y-132599750D01*
X155449000Y-132599750D01*
X155290250Y-132441000D01*
X153699690Y-132441000D01*
X153466301Y-132537673D01*
X153287673Y-132716302D01*
X153273440Y-132750663D01*
X153273440Y-130772000D01*
X161620560Y-130772000D01*
X161620560Y-132372000D01*
X161664838Y-132607317D01*
X161803910Y-132823441D01*
X162016110Y-132968431D01*
X162254201Y-133016646D01*
X162239861Y-133064255D01*
X163068000Y-133892395D01*
X163896139Y-133064255D01*
X163881855Y-133016833D01*
X164103317Y-132975162D01*
X164319441Y-132836090D01*
X164464431Y-132623890D01*
X164515440Y-132372000D01*
X164515440Y-130772000D01*
X164471162Y-130536683D01*
X164332090Y-130320559D01*
X164119890Y-130175569D01*
X163868000Y-130124560D01*
X162268000Y-130124560D01*
X162032683Y-130168838D01*
X161816559Y-130307910D01*
X161671569Y-130520110D01*
X161620560Y-130772000D01*
X153273440Y-130772000D01*
X153273440Y-130076000D01*
X153229162Y-129840683D01*
X153090090Y-129624559D01*
X152877890Y-129479569D01*
X152626000Y-129428560D01*
X149126000Y-129428560D01*
X148890683Y-129472838D01*
X148674559Y-129611910D01*
X148529569Y-129824110D01*
X148478560Y-130076000D01*
X137907475Y-130076000D01*
X138014093Y-129540000D01*
X137901054Y-128971715D01*
X137579147Y-128489946D01*
X137537548Y-128462150D01*
X137585317Y-128453162D01*
X137801441Y-128314090D01*
X137946431Y-128101890D01*
X137997440Y-127850000D01*
X137997440Y-126715928D01*
X140197000Y-126715928D01*
X140197000Y-126776072D01*
X140313845Y-127363491D01*
X140646591Y-127861481D01*
X141144581Y-128194227D01*
X141732000Y-128311072D01*
X142319419Y-128194227D01*
X142817409Y-127861481D01*
X143150155Y-127363491D01*
X143267000Y-126776072D01*
X143267000Y-126715928D01*
X143204903Y-126403745D01*
X148777861Y-126403745D01*
X148851995Y-126649864D01*
X149389223Y-126842965D01*
X149959454Y-126815778D01*
X150360005Y-126649864D01*
X150434139Y-126403745D01*
X149606000Y-125575605D01*
X148777861Y-126403745D01*
X143204903Y-126403745D01*
X143150155Y-126128509D01*
X142817409Y-125630519D01*
X142579418Y-125471499D01*
X142898335Y-125179223D01*
X148159035Y-125179223D01*
X148186222Y-125749454D01*
X148352136Y-126150005D01*
X148598255Y-126224139D01*
X149426395Y-125396000D01*
X149785605Y-125396000D01*
X150613745Y-126224139D01*
X150859864Y-126150005D01*
X151052965Y-125612777D01*
X151032994Y-125193887D01*
X151727000Y-125193887D01*
X151727000Y-125250113D01*
X151836233Y-125799264D01*
X152147302Y-126264811D01*
X152612849Y-126575880D01*
X153162000Y-126685113D01*
X153711151Y-126575880D01*
X154176698Y-126264811D01*
X154226855Y-126189745D01*
X168843861Y-126189745D01*
X168917995Y-126435864D01*
X169455223Y-126628965D01*
X170025454Y-126601778D01*
X170426005Y-126435864D01*
X170500139Y-126189745D01*
X172399861Y-126189745D01*
X172473995Y-126435864D01*
X173011223Y-126628965D01*
X173581454Y-126601778D01*
X173982005Y-126435864D01*
X174056139Y-126189745D01*
X173228000Y-125361605D01*
X172399861Y-126189745D01*
X170500139Y-126189745D01*
X169672000Y-125361605D01*
X168843861Y-126189745D01*
X154226855Y-126189745D01*
X154487767Y-125799264D01*
X154597000Y-125250113D01*
X154597000Y-125193887D01*
X154487767Y-124644736D01*
X154258116Y-124301039D01*
X155326096Y-124301039D01*
X155486959Y-124689423D01*
X155862866Y-125104389D01*
X156368959Y-125343914D01*
X156591000Y-125222629D01*
X156591000Y-124079000D01*
X156845000Y-124079000D01*
X156845000Y-125222629D01*
X157067041Y-125343914D01*
X157573134Y-125104389D01*
X157949041Y-124689423D01*
X158109904Y-124301039D01*
X157987915Y-124079000D01*
X156845000Y-124079000D01*
X156591000Y-124079000D01*
X155448085Y-124079000D01*
X155326096Y-124301039D01*
X154258116Y-124301039D01*
X154176698Y-124179189D01*
X153711151Y-123868120D01*
X153162000Y-123758887D01*
X152612849Y-123868120D01*
X152147302Y-124179189D01*
X151836233Y-124644736D01*
X151727000Y-125193887D01*
X151032994Y-125193887D01*
X151025778Y-125042546D01*
X150859864Y-124641995D01*
X150613745Y-124567861D01*
X149785605Y-125396000D01*
X149426395Y-125396000D01*
X148598255Y-124567861D01*
X148352136Y-124641995D01*
X148159035Y-125179223D01*
X142898335Y-125179223D01*
X142969966Y-125113576D01*
X143223046Y-124570742D01*
X143130899Y-124388255D01*
X148777861Y-124388255D01*
X149606000Y-125216395D01*
X150434139Y-124388255D01*
X150360005Y-124142136D01*
X149822777Y-123949035D01*
X149252546Y-123976222D01*
X148851995Y-124142136D01*
X148777861Y-124388255D01*
X143130899Y-124388255D01*
X143102997Y-124333000D01*
X141859000Y-124333000D01*
X141859000Y-124353000D01*
X141605000Y-124353000D01*
X141605000Y-124333000D01*
X140361003Y-124333000D01*
X140240954Y-124570742D01*
X140494034Y-125113576D01*
X140884582Y-125471499D01*
X140646591Y-125630519D01*
X140313845Y-126128509D01*
X140197000Y-126715928D01*
X137997440Y-126715928D01*
X137997440Y-126150000D01*
X137953162Y-125914683D01*
X137814090Y-125698559D01*
X137601890Y-125553569D01*
X137350000Y-125502560D01*
X135650000Y-125502560D01*
X135414683Y-125546838D01*
X135198559Y-125685910D01*
X135185000Y-125705754D01*
X135185000Y-120766000D01*
X140184560Y-120766000D01*
X140184560Y-122566000D01*
X140228838Y-122801317D01*
X140367910Y-123017441D01*
X140580110Y-123162431D01*
X140631146Y-123172766D01*
X140494034Y-123298424D01*
X140240954Y-123841258D01*
X140361003Y-124079000D01*
X141605000Y-124079000D01*
X141605000Y-124059000D01*
X141859000Y-124059000D01*
X141859000Y-124079000D01*
X143102997Y-124079000D01*
X143223046Y-123841258D01*
X142969966Y-123298424D01*
X142835462Y-123175156D01*
X142867317Y-123169162D01*
X143083441Y-123030090D01*
X143228431Y-122817890D01*
X143279440Y-122566000D01*
X143279440Y-120766000D01*
X143263294Y-120680187D01*
X148170752Y-120680187D01*
X148388757Y-121207800D01*
X148792077Y-121611824D01*
X149319309Y-121830750D01*
X149890187Y-121831248D01*
X150417800Y-121613243D01*
X150821824Y-121209923D01*
X151040750Y-120682691D01*
X151041248Y-120111813D01*
X150823243Y-119584200D01*
X150419923Y-119180176D01*
X149892691Y-118961250D01*
X149321813Y-118960752D01*
X148794200Y-119178757D01*
X148390176Y-119582077D01*
X148171250Y-120109309D01*
X148170752Y-120680187D01*
X143263294Y-120680187D01*
X143235162Y-120530683D01*
X143096090Y-120314559D01*
X142883890Y-120169569D01*
X142632000Y-120118560D01*
X140832000Y-120118560D01*
X140596683Y-120162838D01*
X140380559Y-120301910D01*
X140235569Y-120514110D01*
X140184560Y-120766000D01*
X135185000Y-120766000D01*
X135185000Y-118872000D01*
X155254887Y-118872000D01*
X155364120Y-119421151D01*
X155675189Y-119886698D01*
X156057275Y-120142000D01*
X155675189Y-120397302D01*
X155364120Y-120862849D01*
X155254887Y-121412000D01*
X155364120Y-121961151D01*
X155675189Y-122426698D01*
X156079703Y-122696986D01*
X155862866Y-122799611D01*
X155486959Y-123214577D01*
X155326096Y-123602961D01*
X155448085Y-123825000D01*
X156591000Y-123825000D01*
X156591000Y-123805000D01*
X156845000Y-123805000D01*
X156845000Y-123825000D01*
X157987915Y-123825000D01*
X158109904Y-123602961D01*
X157949041Y-123214577D01*
X157573134Y-122799611D01*
X157356297Y-122696986D01*
X157760811Y-122426698D01*
X158071880Y-121961151D01*
X158181113Y-121412000D01*
X158071880Y-120862849D01*
X157760811Y-120397302D01*
X157378725Y-120142000D01*
X157760811Y-119886698D01*
X158071880Y-119421151D01*
X158181113Y-118872000D01*
X158071880Y-118322849D01*
X157760811Y-117857302D01*
X157616535Y-117760899D01*
X157753317Y-117735162D01*
X157969441Y-117596090D01*
X158114431Y-117383890D01*
X158165440Y-117132000D01*
X158165440Y-115532000D01*
X158121162Y-115296683D01*
X157982090Y-115080559D01*
X157769890Y-114935569D01*
X157518000Y-114884560D01*
X155918000Y-114884560D01*
X155682683Y-114928838D01*
X155466559Y-115067910D01*
X155321569Y-115280110D01*
X155270560Y-115532000D01*
X155270560Y-117132000D01*
X155314838Y-117367317D01*
X155453910Y-117583441D01*
X155666110Y-117728431D01*
X155821089Y-117759815D01*
X155675189Y-117857302D01*
X155364120Y-118322849D01*
X155254887Y-118872000D01*
X135185000Y-118872000D01*
X135185000Y-113648742D01*
X140240954Y-113648742D01*
X140494034Y-114191576D01*
X140935583Y-114596240D01*
X141367260Y-114775036D01*
X141605000Y-114654378D01*
X141605000Y-113411000D01*
X141859000Y-113411000D01*
X141859000Y-114654378D01*
X142096740Y-114775036D01*
X142528417Y-114596240D01*
X142574507Y-114554000D01*
X147177866Y-114554000D01*
X147260457Y-114969212D01*
X147495655Y-115321211D01*
X147847654Y-115556409D01*
X148262866Y-115639000D01*
X148917134Y-115639000D01*
X149332346Y-115556409D01*
X149646965Y-115346187D01*
X151726752Y-115346187D01*
X151944757Y-115873800D01*
X152348077Y-116277824D01*
X152875309Y-116496750D01*
X153446187Y-116497248D01*
X153973800Y-116279243D01*
X154377824Y-115875923D01*
X154596750Y-115348691D01*
X154597248Y-114777813D01*
X154379243Y-114250200D01*
X153975923Y-113846176D01*
X153448691Y-113627250D01*
X152877813Y-113626752D01*
X152350200Y-113844757D01*
X151946176Y-114248077D01*
X151727250Y-114775309D01*
X151726752Y-115346187D01*
X149646965Y-115346187D01*
X149684345Y-115321211D01*
X149919543Y-114969212D01*
X150002134Y-114554000D01*
X149919543Y-114138788D01*
X149769830Y-113914726D01*
X149934408Y-113578001D01*
X149807502Y-113411000D01*
X148717000Y-113411000D01*
X148717000Y-113431000D01*
X148463000Y-113431000D01*
X148463000Y-113411000D01*
X147372498Y-113411000D01*
X147245592Y-113578001D01*
X147410170Y-113914726D01*
X147260457Y-114138788D01*
X147177866Y-114554000D01*
X142574507Y-114554000D01*
X142969966Y-114191576D01*
X143223046Y-113648742D01*
X143102997Y-113411000D01*
X141859000Y-113411000D01*
X141605000Y-113411000D01*
X140361003Y-113411000D01*
X140240954Y-113648742D01*
X135185000Y-113648742D01*
X135185000Y-107822249D01*
X135228355Y-107926924D01*
X135618642Y-108355183D01*
X136143108Y-108601486D01*
X136373000Y-108480819D01*
X136373000Y-107287000D01*
X136627000Y-107287000D01*
X136627000Y-108480819D01*
X136856892Y-108601486D01*
X137381358Y-108355183D01*
X137771645Y-107926924D01*
X137941476Y-107516890D01*
X137829127Y-107304000D01*
X140184560Y-107304000D01*
X140184560Y-109104000D01*
X140228838Y-109339317D01*
X140367910Y-109555441D01*
X140580110Y-109700431D01*
X140596344Y-109703719D01*
X140313845Y-110126509D01*
X140197000Y-110713928D01*
X140197000Y-110774072D01*
X140313845Y-111361491D01*
X140646591Y-111859481D01*
X140884582Y-112018501D01*
X140494034Y-112376424D01*
X140240954Y-112919258D01*
X140361003Y-113157000D01*
X141605000Y-113157000D01*
X141605000Y-113137000D01*
X141859000Y-113137000D01*
X141859000Y-113157000D01*
X143102997Y-113157000D01*
X143223046Y-112919258D01*
X142969966Y-112376424D01*
X142579418Y-112018501D01*
X142817409Y-111859481D01*
X143014842Y-111564000D01*
X147192560Y-111564000D01*
X147192560Y-112464000D01*
X147236838Y-112699317D01*
X147322558Y-112832529D01*
X147245592Y-112989999D01*
X147372498Y-113157000D01*
X148463000Y-113157000D01*
X148463000Y-113137000D01*
X148717000Y-113137000D01*
X148717000Y-113157000D01*
X149807502Y-113157000D01*
X149934408Y-112989999D01*
X149857147Y-112831925D01*
X149936431Y-112715890D01*
X149987440Y-112464000D01*
X149987440Y-111564000D01*
X149943162Y-111328683D01*
X149869366Y-111214000D01*
X154508560Y-111214000D01*
X154508560Y-112814000D01*
X154552838Y-113049317D01*
X154691910Y-113265441D01*
X154904110Y-113410431D01*
X155156000Y-113461440D01*
X156756000Y-113461440D01*
X156991317Y-113417162D01*
X157207441Y-113278090D01*
X157352431Y-113065890D01*
X157403440Y-112814000D01*
X157403440Y-111214000D01*
X157359162Y-110978683D01*
X157220090Y-110762559D01*
X157007890Y-110617569D01*
X156756000Y-110566560D01*
X155156000Y-110566560D01*
X154920683Y-110610838D01*
X154704559Y-110749910D01*
X154559569Y-110962110D01*
X154508560Y-111214000D01*
X149869366Y-111214000D01*
X149804090Y-111112559D01*
X149591890Y-110967569D01*
X149340000Y-110916560D01*
X147840000Y-110916560D01*
X147604683Y-110960838D01*
X147388559Y-111099910D01*
X147243569Y-111312110D01*
X147192560Y-111564000D01*
X143014842Y-111564000D01*
X143150155Y-111361491D01*
X143267000Y-110774072D01*
X143267000Y-110713928D01*
X143150155Y-110126509D01*
X142869163Y-109705974D01*
X143083441Y-109568090D01*
X143228431Y-109355890D01*
X143279440Y-109104000D01*
X143279440Y-107304000D01*
X143235162Y-107068683D01*
X143096090Y-106852559D01*
X142883890Y-106707569D01*
X142632000Y-106656560D01*
X140832000Y-106656560D01*
X140596683Y-106700838D01*
X140380559Y-106839910D01*
X140235569Y-107052110D01*
X140184560Y-107304000D01*
X137829127Y-107304000D01*
X137820155Y-107287000D01*
X136627000Y-107287000D01*
X136373000Y-107287000D01*
X136353000Y-107287000D01*
X136353000Y-107033000D01*
X136373000Y-107033000D01*
X136373000Y-104747000D01*
X136627000Y-104747000D01*
X136627000Y-107033000D01*
X137820155Y-107033000D01*
X137941476Y-106803110D01*
X137771645Y-106393076D01*
X137381358Y-105964817D01*
X137222046Y-105890000D01*
X137381358Y-105815183D01*
X137771645Y-105386924D01*
X137941476Y-104976890D01*
X137820155Y-104747000D01*
X136627000Y-104747000D01*
X136373000Y-104747000D01*
X136353000Y-104747000D01*
X136353000Y-104493000D01*
X136373000Y-104493000D01*
X136373000Y-104473000D01*
X136627000Y-104473000D01*
X136627000Y-104493000D01*
X137820155Y-104493000D01*
X137941476Y-104263110D01*
X137771645Y-103853076D01*
X137381358Y-103424817D01*
X137238447Y-103357702D01*
X137579147Y-103130054D01*
X137901054Y-102648285D01*
X137914626Y-102580050D01*
X140151000Y-102580050D01*
X140151000Y-102651950D01*
X140290681Y-103354174D01*
X140688459Y-103949491D01*
X141283776Y-104347269D01*
X141986000Y-104486950D01*
X142688224Y-104347269D01*
X143283541Y-103949491D01*
X143681319Y-103354174D01*
X143806389Y-102725403D01*
X148842682Y-102725403D01*
X149121455Y-103400086D01*
X149637199Y-103916730D01*
X150311395Y-104196681D01*
X151041403Y-104197318D01*
X151716086Y-103918545D01*
X152232730Y-103402801D01*
X152512681Y-102728605D01*
X152512683Y-102725403D01*
X155842682Y-102725403D01*
X156121455Y-103400086D01*
X156637199Y-103916730D01*
X157121654Y-104117893D01*
X158385000Y-105381239D01*
X158385000Y-116331995D01*
X158384999Y-116332000D01*
X158509457Y-116957688D01*
X158863880Y-117488120D01*
X161403878Y-120028117D01*
X161403880Y-120028120D01*
X161934313Y-120382543D01*
X162560000Y-120507000D01*
X163221891Y-120507000D01*
X162984120Y-120862849D01*
X162874887Y-121412000D01*
X162984120Y-121961151D01*
X163295189Y-122426698D01*
X163514795Y-122573434D01*
X163181880Y-122795880D01*
X162827457Y-123326313D01*
X162703000Y-123952000D01*
X162827457Y-124577687D01*
X163181880Y-125108120D01*
X163712313Y-125462543D01*
X164338000Y-125587000D01*
X165861995Y-125587000D01*
X165862000Y-125587001D01*
X166487688Y-125462543D01*
X167018120Y-125108120D01*
X167161016Y-124965223D01*
X168225035Y-124965223D01*
X168252222Y-125535454D01*
X168418136Y-125936005D01*
X168664255Y-126010139D01*
X169492395Y-125182000D01*
X169851605Y-125182000D01*
X170679745Y-126010139D01*
X170925864Y-125936005D01*
X171118965Y-125398777D01*
X171098295Y-124965223D01*
X171781035Y-124965223D01*
X171808222Y-125535454D01*
X171974136Y-125936005D01*
X172220255Y-126010139D01*
X173048395Y-125182000D01*
X173407605Y-125182000D01*
X174235745Y-126010139D01*
X174481864Y-125936005D01*
X174674965Y-125398777D01*
X174647778Y-124828546D01*
X174481864Y-124427995D01*
X174235745Y-124353861D01*
X173407605Y-125182000D01*
X173048395Y-125182000D01*
X172220255Y-124353861D01*
X171974136Y-124427995D01*
X171781035Y-124965223D01*
X171098295Y-124965223D01*
X171091778Y-124828546D01*
X170925864Y-124427995D01*
X170679745Y-124353861D01*
X169851605Y-125182000D01*
X169492395Y-125182000D01*
X168664255Y-124353861D01*
X168418136Y-124427995D01*
X168225035Y-124965223D01*
X167161016Y-124965223D01*
X167780117Y-124346122D01*
X167780120Y-124346120D01*
X168134543Y-123815687D01*
X168186397Y-123555001D01*
X168259001Y-123190000D01*
X168259000Y-123189995D01*
X168259000Y-123020031D01*
X168454757Y-123493800D01*
X168858077Y-123897824D01*
X168924544Y-123925423D01*
X168917995Y-123928136D01*
X168843861Y-124174255D01*
X169672000Y-125002395D01*
X170500139Y-124174255D01*
X170426005Y-123928136D01*
X170419517Y-123925804D01*
X170483800Y-123899243D01*
X170887824Y-123495923D01*
X171106750Y-122968691D01*
X171107248Y-122397813D01*
X170889243Y-121870200D01*
X170796205Y-121777000D01*
X171280760Y-121777000D01*
X171593000Y-122089239D01*
X171593000Y-122682000D01*
X171717457Y-123307687D01*
X172071880Y-123838120D01*
X172429195Y-124076869D01*
X172399861Y-124174255D01*
X173228000Y-125002395D01*
X174056139Y-124174255D01*
X174026805Y-124076869D01*
X174384120Y-123838120D01*
X174738543Y-123307687D01*
X174863000Y-122682000D01*
X174863000Y-121412000D01*
X174738543Y-120786313D01*
X174738543Y-120786312D01*
X174556663Y-120514110D01*
X174384120Y-120255880D01*
X174384117Y-120255878D01*
X173114120Y-118985880D01*
X172889884Y-118836050D01*
X174949000Y-118836050D01*
X174949000Y-118907950D01*
X175088681Y-119610174D01*
X175486459Y-120205491D01*
X176081776Y-120603269D01*
X176784000Y-120742950D01*
X177486224Y-120603269D01*
X178081541Y-120205491D01*
X178479319Y-119610174D01*
X178619000Y-118907950D01*
X178619000Y-118836050D01*
X178479319Y-118133826D01*
X178081541Y-117538509D01*
X177486224Y-117140731D01*
X176784000Y-117001050D01*
X176081776Y-117140731D01*
X175486459Y-117538509D01*
X175088681Y-118133826D01*
X174949000Y-118836050D01*
X172889884Y-118836050D01*
X172583688Y-118631457D01*
X171958000Y-118506999D01*
X171957995Y-118507000D01*
X168402005Y-118507000D01*
X168402000Y-118506999D01*
X167776313Y-118631457D01*
X167245880Y-118985880D01*
X167245878Y-118985883D01*
X165562517Y-120669243D01*
X165380811Y-120397302D01*
X165161205Y-120250566D01*
X165494120Y-120028120D01*
X165848543Y-119497687D01*
X165973000Y-118872000D01*
X165848543Y-118246313D01*
X165494120Y-117715880D01*
X165161205Y-117493434D01*
X165380811Y-117346698D01*
X165691880Y-116881151D01*
X165801113Y-116332000D01*
X165691880Y-115782849D01*
X165380811Y-115317302D01*
X164915264Y-115006233D01*
X164366113Y-114897000D01*
X164309887Y-114897000D01*
X163760736Y-115006233D01*
X163295189Y-115317302D01*
X162984120Y-115782849D01*
X162874887Y-116332000D01*
X162984120Y-116881151D01*
X163190985Y-117190746D01*
X161655000Y-115654760D01*
X161655000Y-112014000D01*
X161941000Y-112014000D01*
X162065457Y-112639687D01*
X162419880Y-113170120D01*
X162950313Y-113524543D01*
X163576000Y-113649000D01*
X164168760Y-113649000D01*
X167753880Y-117234120D01*
X168284312Y-117588543D01*
X168910000Y-117713001D01*
X168910005Y-117713000D01*
X170688000Y-117713000D01*
X171313687Y-117588543D01*
X171844120Y-117234120D01*
X172198543Y-116703687D01*
X172323000Y-116078000D01*
X172198543Y-115452313D01*
X171844120Y-114921880D01*
X171313687Y-114567457D01*
X170688000Y-114443000D01*
X169587240Y-114443000D01*
X166002120Y-110857880D01*
X165471688Y-110503457D01*
X164846000Y-110378999D01*
X164845995Y-110379000D01*
X163576000Y-110379000D01*
X162950313Y-110503457D01*
X162419880Y-110857880D01*
X162065457Y-111388313D01*
X161941000Y-112014000D01*
X161655000Y-112014000D01*
X161655000Y-108996187D01*
X162902752Y-108996187D01*
X163120757Y-109523800D01*
X163524077Y-109927824D01*
X164051309Y-110146750D01*
X164622187Y-110147248D01*
X165149800Y-109929243D01*
X165553824Y-109525923D01*
X165772750Y-108998691D01*
X165773248Y-108427813D01*
X165555243Y-107900200D01*
X165151923Y-107496176D01*
X164624691Y-107277250D01*
X164053813Y-107276752D01*
X163526200Y-107494757D01*
X163122176Y-107898077D01*
X162903250Y-108425309D01*
X162902752Y-108996187D01*
X161655000Y-108996187D01*
X161655000Y-106925745D01*
X169859861Y-106925745D01*
X169933995Y-107171864D01*
X170471223Y-107364965D01*
X171041454Y-107337778D01*
X171442005Y-107171864D01*
X171516139Y-106925745D01*
X170688000Y-106097605D01*
X169859861Y-106925745D01*
X161655000Y-106925745D01*
X161655000Y-105701223D01*
X169241035Y-105701223D01*
X169268222Y-106271454D01*
X169434136Y-106672005D01*
X169680255Y-106746139D01*
X170508395Y-105918000D01*
X170867605Y-105918000D01*
X171695745Y-106746139D01*
X171941864Y-106672005D01*
X172134965Y-106134777D01*
X172107778Y-105564546D01*
X171941864Y-105163995D01*
X171695745Y-105089861D01*
X170867605Y-105918000D01*
X170508395Y-105918000D01*
X169680255Y-105089861D01*
X169434136Y-105163995D01*
X169241035Y-105701223D01*
X161655000Y-105701223D01*
X161655000Y-104910255D01*
X169859861Y-104910255D01*
X170688000Y-105738395D01*
X171516139Y-104910255D01*
X171442005Y-104664136D01*
X170904777Y-104471035D01*
X170334546Y-104498222D01*
X169933995Y-104664136D01*
X169859861Y-104910255D01*
X161655000Y-104910255D01*
X161655000Y-98721240D01*
X162729240Y-97647000D01*
X172804760Y-97647000D01*
X175149000Y-99991239D01*
X175149000Y-102784510D01*
X174949319Y-103265395D01*
X174948682Y-103995403D01*
X175227455Y-104670086D01*
X175743199Y-105186730D01*
X176417395Y-105466681D01*
X177147403Y-105467318D01*
X177822086Y-105188545D01*
X178338730Y-104672801D01*
X178618681Y-103998605D01*
X178619318Y-103268597D01*
X178419000Y-102783790D01*
X178419000Y-99314000D01*
X178294543Y-98688313D01*
X178294543Y-98688312D01*
X178152581Y-98475851D01*
X177940120Y-98157880D01*
X177940117Y-98157878D01*
X174638120Y-94855880D01*
X174107688Y-94501457D01*
X173482000Y-94376999D01*
X173481995Y-94377000D01*
X162052005Y-94377000D01*
X162052000Y-94376999D01*
X161426312Y-94501457D01*
X160895880Y-94855880D01*
X158863880Y-96887880D01*
X158509457Y-97418312D01*
X158384999Y-98044000D01*
X158385000Y-98044005D01*
X158385000Y-100668664D01*
X158044605Y-100527319D01*
X157314597Y-100526682D01*
X156639914Y-100805455D01*
X156123270Y-101321199D01*
X155843319Y-101995395D01*
X155842682Y-102725403D01*
X152512683Y-102725403D01*
X152513318Y-101998597D01*
X152234545Y-101323914D01*
X151718801Y-100807270D01*
X151044605Y-100527319D01*
X150314597Y-100526682D01*
X149639914Y-100805455D01*
X149123270Y-101321199D01*
X148843319Y-101995395D01*
X148842682Y-102725403D01*
X143806389Y-102725403D01*
X143821000Y-102651950D01*
X143821000Y-102580050D01*
X143681319Y-101877826D01*
X143283541Y-101282509D01*
X142688224Y-100884731D01*
X141986000Y-100745050D01*
X141283776Y-100884731D01*
X140688459Y-101282509D01*
X140290681Y-101877826D01*
X140151000Y-102580050D01*
X137914626Y-102580050D01*
X138014093Y-102080000D01*
X137901054Y-101511715D01*
X137579147Y-101029946D01*
X137249974Y-100810000D01*
X137579147Y-100590054D01*
X137901054Y-100108285D01*
X138014093Y-99540000D01*
X137901054Y-98971715D01*
X137579147Y-98489946D01*
X137537548Y-98462150D01*
X137585317Y-98453162D01*
X137801441Y-98314090D01*
X137946431Y-98101890D01*
X137997440Y-97850000D01*
X137997440Y-96336000D01*
X140138560Y-96336000D01*
X140138560Y-98736000D01*
X140182838Y-98971317D01*
X140321910Y-99187441D01*
X140534110Y-99332431D01*
X140786000Y-99383440D01*
X143186000Y-99383440D01*
X143421317Y-99339162D01*
X143637441Y-99200090D01*
X143782431Y-98987890D01*
X143833440Y-98736000D01*
X143833440Y-96336000D01*
X143789162Y-96100683D01*
X143650090Y-95884559D01*
X143437890Y-95739569D01*
X143186000Y-95688560D01*
X140786000Y-95688560D01*
X140550683Y-95732838D01*
X140334559Y-95871910D01*
X140189569Y-96084110D01*
X140138560Y-96336000D01*
X137997440Y-96336000D01*
X137997440Y-96150000D01*
X137953162Y-95914683D01*
X137814090Y-95698559D01*
X137601890Y-95553569D01*
X137350000Y-95502560D01*
X135650000Y-95502560D01*
X135414683Y-95546838D01*
X135198559Y-95685910D01*
X135185000Y-95705754D01*
X135185000Y-88367365D01*
X135715000Y-88367365D01*
X135888935Y-89241797D01*
X136384261Y-89983104D01*
X137125568Y-90478430D01*
X138000000Y-90652365D01*
X138874432Y-90478430D01*
X138931946Y-90440000D01*
X147958560Y-90440000D01*
X147958560Y-92440000D01*
X148002838Y-92675317D01*
X148141910Y-92891441D01*
X148354110Y-93036431D01*
X148606000Y-93087440D01*
X150606000Y-93087440D01*
X150841317Y-93043162D01*
X151057441Y-92904090D01*
X151202431Y-92691890D01*
X151253440Y-92440000D01*
X151253440Y-91186000D01*
X154746887Y-91186000D01*
X154856120Y-91735151D01*
X155167189Y-92200698D01*
X155632736Y-92511767D01*
X156181887Y-92621000D01*
X156238113Y-92621000D01*
X156787264Y-92511767D01*
X157252811Y-92200698D01*
X157563880Y-91735151D01*
X157616584Y-91470187D01*
X164934752Y-91470187D01*
X165152757Y-91997800D01*
X165556077Y-92401824D01*
X166083309Y-92620750D01*
X166654187Y-92621248D01*
X167181800Y-92403243D01*
X167360693Y-92224661D01*
X170052758Y-92224661D01*
X170264990Y-92738303D01*
X170657630Y-93131629D01*
X171170900Y-93344757D01*
X171726661Y-93345242D01*
X172240303Y-93133010D01*
X172633629Y-92740370D01*
X172846757Y-92227100D01*
X172847242Y-91671339D01*
X172635010Y-91157697D01*
X172242370Y-90764371D01*
X171729100Y-90551243D01*
X171173339Y-90550758D01*
X170659697Y-90762990D01*
X170266371Y-91155630D01*
X170053243Y-91668900D01*
X170052758Y-92224661D01*
X167360693Y-92224661D01*
X167585824Y-91999923D01*
X167804750Y-91472691D01*
X167805248Y-90901813D01*
X167587243Y-90374200D01*
X167183923Y-89970176D01*
X166656691Y-89751250D01*
X166085813Y-89750752D01*
X165558200Y-89968757D01*
X165154176Y-90372077D01*
X164935250Y-90899309D01*
X164934752Y-91470187D01*
X157616584Y-91470187D01*
X157673113Y-91186000D01*
X157563880Y-90636849D01*
X157252811Y-90171302D01*
X156787264Y-89860233D01*
X156238113Y-89751000D01*
X156181887Y-89751000D01*
X155632736Y-89860233D01*
X155167189Y-90171302D01*
X154856120Y-90636849D01*
X154746887Y-91186000D01*
X151253440Y-91186000D01*
X151253440Y-90440000D01*
X151209162Y-90204683D01*
X151070090Y-89988559D01*
X150857890Y-89843569D01*
X150606000Y-89792560D01*
X148606000Y-89792560D01*
X148370683Y-89836838D01*
X148154559Y-89975910D01*
X148009569Y-90188110D01*
X147958560Y-90440000D01*
X138931946Y-90440000D01*
X139615739Y-89983104D01*
X140111065Y-89241797D01*
X140285000Y-88367365D01*
X140111065Y-87492933D01*
X139615739Y-86751626D01*
X139443682Y-86636661D01*
X145414758Y-86636661D01*
X145626990Y-87150303D01*
X146019630Y-87543629D01*
X146227512Y-87629949D01*
X146021697Y-87714990D01*
X145628371Y-88107630D01*
X145415243Y-88620900D01*
X145414758Y-89176661D01*
X145626990Y-89690303D01*
X146019630Y-90083629D01*
X146532900Y-90296757D01*
X147088661Y-90297242D01*
X147602303Y-90085010D01*
X147995629Y-89692370D01*
X147998830Y-89684661D01*
X172592758Y-89684661D01*
X172804990Y-90198303D01*
X173197630Y-90591629D01*
X173710900Y-90804757D01*
X174266661Y-90805242D01*
X174780303Y-90593010D01*
X175173629Y-90200370D01*
X175386757Y-89687100D01*
X175387242Y-89131339D01*
X175175010Y-88617697D01*
X174925115Y-88367365D01*
X177715000Y-88367365D01*
X177888935Y-89241797D01*
X178384261Y-89983104D01*
X179125568Y-90478430D01*
X180000000Y-90652365D01*
X180874432Y-90478430D01*
X181615739Y-89983104D01*
X182111065Y-89241797D01*
X182285000Y-88367365D01*
X182111065Y-87492933D01*
X181615739Y-86751626D01*
X180874432Y-86256300D01*
X180000000Y-86082365D01*
X179125568Y-86256300D01*
X178384261Y-86751626D01*
X177888935Y-87492933D01*
X177715000Y-88367365D01*
X174925115Y-88367365D01*
X174782370Y-88224371D01*
X174269100Y-88011243D01*
X173713339Y-88010758D01*
X173199697Y-88222990D01*
X172806371Y-88615630D01*
X172593243Y-89128900D01*
X172592758Y-89684661D01*
X147998830Y-89684661D01*
X148208757Y-89179100D01*
X148209242Y-88623339D01*
X148110245Y-88383745D01*
X155381861Y-88383745D01*
X155455995Y-88629864D01*
X155993223Y-88822965D01*
X156563454Y-88795778D01*
X156964005Y-88629864D01*
X157038139Y-88383745D01*
X156210000Y-87555605D01*
X155381861Y-88383745D01*
X148110245Y-88383745D01*
X147997010Y-88109697D01*
X147604370Y-87716371D01*
X147396488Y-87630051D01*
X147487290Y-87592532D01*
X148633073Y-87592532D01*
X148731736Y-87859387D01*
X149341461Y-88085908D01*
X149991460Y-88061856D01*
X150480264Y-87859387D01*
X150578927Y-87592532D01*
X149606000Y-86619605D01*
X148633073Y-87592532D01*
X147487290Y-87592532D01*
X147602303Y-87545010D01*
X147995629Y-87152370D01*
X148057668Y-87002963D01*
X148186613Y-87314264D01*
X148453468Y-87412927D01*
X149426395Y-86440000D01*
X149785605Y-86440000D01*
X150758532Y-87412927D01*
X151025387Y-87314264D01*
X151082986Y-87159223D01*
X154763035Y-87159223D01*
X154790222Y-87729454D01*
X154956136Y-88130005D01*
X155202255Y-88204139D01*
X156030395Y-87376000D01*
X156389605Y-87376000D01*
X157217745Y-88204139D01*
X157463864Y-88130005D01*
X157656965Y-87592777D01*
X157646630Y-87376000D01*
X164906887Y-87376000D01*
X165016120Y-87925151D01*
X165327189Y-88390698D01*
X165792736Y-88701767D01*
X166341887Y-88811000D01*
X166398113Y-88811000D01*
X166947264Y-88701767D01*
X167412811Y-88390698D01*
X167723880Y-87925151D01*
X167833113Y-87376000D01*
X167787097Y-87144661D01*
X170052758Y-87144661D01*
X170264990Y-87658303D01*
X170657630Y-88051629D01*
X171170900Y-88264757D01*
X171726661Y-88265242D01*
X172240303Y-88053010D01*
X172633629Y-87660370D01*
X172846757Y-87147100D01*
X172847242Y-86591339D01*
X172635010Y-86077697D01*
X172242370Y-85684371D01*
X171729100Y-85471243D01*
X171173339Y-85470758D01*
X170659697Y-85682990D01*
X170266371Y-86075630D01*
X170053243Y-86588900D01*
X170052758Y-87144661D01*
X167787097Y-87144661D01*
X167723880Y-86826849D01*
X167412811Y-86361302D01*
X166947264Y-86050233D01*
X166398113Y-85941000D01*
X166341887Y-85941000D01*
X165792736Y-86050233D01*
X165327189Y-86361302D01*
X165016120Y-86826849D01*
X164906887Y-87376000D01*
X157646630Y-87376000D01*
X157629778Y-87022546D01*
X157463864Y-86621995D01*
X157217745Y-86547861D01*
X156389605Y-87376000D01*
X156030395Y-87376000D01*
X155202255Y-86547861D01*
X154956136Y-86621995D01*
X154763035Y-87159223D01*
X151082986Y-87159223D01*
X151251908Y-86704539D01*
X151239465Y-86368255D01*
X155381861Y-86368255D01*
X156210000Y-87196395D01*
X157038139Y-86368255D01*
X156964005Y-86122136D01*
X156426777Y-85929035D01*
X155856546Y-85956222D01*
X155455995Y-86122136D01*
X155381861Y-86368255D01*
X151239465Y-86368255D01*
X151227856Y-86054540D01*
X151025387Y-85565736D01*
X150758532Y-85467073D01*
X149785605Y-86440000D01*
X149426395Y-86440000D01*
X148453468Y-85467073D01*
X148186613Y-85565736D01*
X148096072Y-85809445D01*
X147997010Y-85569697D01*
X147604370Y-85176371D01*
X147091100Y-84963243D01*
X146535339Y-84962758D01*
X146021697Y-85174990D01*
X145628371Y-85567630D01*
X145415243Y-86080900D01*
X145414758Y-86636661D01*
X139443682Y-86636661D01*
X138874432Y-86256300D01*
X138000000Y-86082365D01*
X137125568Y-86256300D01*
X136384261Y-86751626D01*
X135888935Y-87492933D01*
X135715000Y-88367365D01*
X135185000Y-88367365D01*
X135185000Y-83068682D01*
X148659325Y-83068682D01*
X148463243Y-83540900D01*
X148463243Y-83540900D01*
G37*
X148463243Y-83540900D02*
X148462758Y-84096661D01*
X148674990Y-84610303D01*
X148981365Y-84917213D01*
X148731736Y-85020613D01*
X148633073Y-85287468D01*
X149606000Y-86260395D01*
X150578927Y-85287468D01*
X150514297Y-85112661D01*
X151510758Y-85112661D01*
X151722990Y-85626303D01*
X152115630Y-86019629D01*
X152628900Y-86232757D01*
X153184661Y-86233242D01*
X153698303Y-86021010D01*
X154091629Y-85628370D01*
X154304757Y-85115100D01*
X154305242Y-84559339D01*
X154093010Y-84045697D01*
X153700370Y-83652371D01*
X153187100Y-83439243D01*
X152631339Y-83438758D01*
X152117697Y-83650990D01*
X151724371Y-84043630D01*
X151511243Y-84556900D01*
X151510758Y-85112661D01*
X150514297Y-85112661D01*
X150497794Y-85068025D01*
X150650303Y-85005010D01*
X151043629Y-84612370D01*
X151256757Y-84099100D01*
X151257242Y-83543339D01*
X151061118Y-83068682D01*
X182815000Y-83068682D01*
X182815000Y-137316215D01*
X182474142Y-139029826D01*
X181541676Y-140425359D01*
X180146142Y-141357824D01*
X178432533Y-141698682D01*
X139567467Y-141698682D01*
X137853856Y-141357824D01*
X136458323Y-140425358D01*
X135525858Y-139029824D01*
X135493543Y-138867365D01*
X137715000Y-138867365D01*
X137888935Y-139741797D01*
X138384261Y-140483104D01*
X139125568Y-140978430D01*
X140000000Y-141152365D01*
X140874432Y-140978430D01*
X141615739Y-140483104D01*
X142111065Y-139741797D01*
X142285000Y-138867365D01*
X142134700Y-138111750D01*
X148491000Y-138111750D01*
X148491000Y-139702309D01*
X148587673Y-139935698D01*
X148766301Y-140114327D01*
X148999690Y-140211000D01*
X150590250Y-140211000D01*
X150749000Y-140052250D01*
X150749000Y-137953000D01*
X151003000Y-137953000D01*
X151003000Y-140052250D01*
X151161750Y-140211000D01*
X152752310Y-140211000D01*
X152985699Y-140114327D01*
X153164327Y-139935698D01*
X153261000Y-139702309D01*
X153261000Y-138867365D01*
X175715000Y-138867365D01*
X175888935Y-139741797D01*
X176384261Y-140483104D01*
X177125568Y-140978430D01*
X178000000Y-141152365D01*
X178874432Y-140978430D01*
X179615739Y-140483104D01*
X180111065Y-139741797D01*
X180285000Y-138867365D01*
X180111065Y-137992933D01*
X179615739Y-137251626D01*
X178874432Y-136756300D01*
X178000000Y-136582365D01*
X177125568Y-136756300D01*
X176384261Y-137251626D01*
X175888935Y-137992933D01*
X175715000Y-138867365D01*
X153261000Y-138867365D01*
X153261000Y-138111750D01*
X153102250Y-137953000D01*
X151003000Y-137953000D01*
X150749000Y-137953000D01*
X148649750Y-137953000D01*
X148491000Y-138111750D01*
X142134700Y-138111750D01*
X142111065Y-137992933D01*
X141615739Y-137251626D01*
X140874432Y-136756300D01*
X140000000Y-136582365D01*
X139125568Y-136756300D01*
X138384261Y-137251626D01*
X137888935Y-137992933D01*
X137715000Y-138867365D01*
X135493543Y-138867365D01*
X135185000Y-137316215D01*
X135185000Y-135282249D01*
X135228355Y-135386924D01*
X135618642Y-135815183D01*
X136143108Y-136061486D01*
X136373000Y-135940819D01*
X136373000Y-134747000D01*
X136627000Y-134747000D01*
X136627000Y-135940819D01*
X136856892Y-136061486D01*
X137094943Y-135949691D01*
X148491000Y-135949691D01*
X148491000Y-137540250D01*
X148649750Y-137699000D01*
X150749000Y-137699000D01*
X150749000Y-135599750D01*
X151003000Y-135599750D01*
X151003000Y-137699000D01*
X153102250Y-137699000D01*
X153261000Y-137540250D01*
X153261000Y-136871304D01*
X153287673Y-136935698D01*
X153466301Y-137114327D01*
X153699690Y-137211000D01*
X155290250Y-137211000D01*
X155449000Y-137052250D01*
X155449000Y-134953000D01*
X155703000Y-134953000D01*
X155703000Y-137052250D01*
X155861750Y-137211000D01*
X157452310Y-137211000D01*
X157685699Y-137114327D01*
X157864327Y-136935698D01*
X157961000Y-136702309D01*
X157961000Y-135111750D01*
X157928995Y-135079745D01*
X162239861Y-135079745D01*
X162313995Y-135325864D01*
X162851223Y-135518965D01*
X163421454Y-135491778D01*
X163822005Y-135325864D01*
X163896139Y-135079745D01*
X163068000Y-134251605D01*
X162239861Y-135079745D01*
X157928995Y-135079745D01*
X157802250Y-134953000D01*
X155703000Y-134953000D01*
X155449000Y-134953000D01*
X153349750Y-134953000D01*
X153191000Y-135111750D01*
X153191000Y-135780696D01*
X153164327Y-135716302D01*
X152985699Y-135537673D01*
X152752310Y-135441000D01*
X151161750Y-135441000D01*
X151003000Y-135599750D01*
X150749000Y-135599750D01*
X150590250Y-135441000D01*
X148999690Y-135441000D01*
X148766301Y-135537673D01*
X148587673Y-135716302D01*
X148491000Y-135949691D01*
X137094943Y-135949691D01*
X137381358Y-135815183D01*
X137771645Y-135386924D01*
X137941476Y-134976890D01*
X137820155Y-134747000D01*
X136627000Y-134747000D01*
X136373000Y-134747000D01*
X136353000Y-134747000D01*
X136353000Y-134493000D01*
X136373000Y-134493000D01*
X136373000Y-134473000D01*
X136627000Y-134473000D01*
X136627000Y-134493000D01*
X137820155Y-134493000D01*
X137941476Y-134263110D01*
X137771645Y-133853076D01*
X137381358Y-133424817D01*
X137238447Y-133357702D01*
X137579147Y-133130054D01*
X137901054Y-132648285D01*
X138014093Y-132080000D01*
X137901054Y-131511715D01*
X137579147Y-131029946D01*
X137249974Y-130810000D01*
X137579147Y-130590054D01*
X137901054Y-130108285D01*
X137907475Y-130076000D01*
X148478560Y-130076000D01*
X148478560Y-133576000D01*
X148522838Y-133811317D01*
X148661910Y-134027441D01*
X148874110Y-134172431D01*
X149126000Y-134223440D01*
X152626000Y-134223440D01*
X152861317Y-134179162D01*
X153077441Y-134040090D01*
X153191000Y-133873891D01*
X153191000Y-134540250D01*
X153349750Y-134699000D01*
X155449000Y-134699000D01*
X155449000Y-132599750D01*
X155703000Y-132599750D01*
X155703000Y-134699000D01*
X157802250Y-134699000D01*
X157961000Y-134540250D01*
X157961000Y-133855223D01*
X161621035Y-133855223D01*
X161648222Y-134425454D01*
X161814136Y-134826005D01*
X162060255Y-134900139D01*
X162888395Y-134072000D01*
X163247605Y-134072000D01*
X164075745Y-134900139D01*
X164321864Y-134826005D01*
X164514965Y-134288777D01*
X164487778Y-133718546D01*
X164321864Y-133317995D01*
X164075745Y-133243861D01*
X163247605Y-134072000D01*
X162888395Y-134072000D01*
X162060255Y-133243861D01*
X161814136Y-133317995D01*
X161621035Y-133855223D01*
X157961000Y-133855223D01*
X157961000Y-132949691D01*
X157864327Y-132716302D01*
X157685699Y-132537673D01*
X157452310Y-132441000D01*
X155861750Y-132441000D01*
X155703000Y-132599750D01*
X155449000Y-132599750D01*
X155290250Y-132441000D01*
X153699690Y-132441000D01*
X153466301Y-132537673D01*
X153287673Y-132716302D01*
X153273440Y-132750663D01*
X153273440Y-130772000D01*
X161620560Y-130772000D01*
X161620560Y-132372000D01*
X161664838Y-132607317D01*
X161803910Y-132823441D01*
X162016110Y-132968431D01*
X162254201Y-133016646D01*
X162239861Y-133064255D01*
X163068000Y-133892395D01*
X163896139Y-133064255D01*
X163881855Y-133016833D01*
X164103317Y-132975162D01*
X164319441Y-132836090D01*
X164464431Y-132623890D01*
X164515440Y-132372000D01*
X164515440Y-130772000D01*
X164471162Y-130536683D01*
X164332090Y-130320559D01*
X164119890Y-130175569D01*
X163868000Y-130124560D01*
X162268000Y-130124560D01*
X162032683Y-130168838D01*
X161816559Y-130307910D01*
X161671569Y-130520110D01*
X161620560Y-130772000D01*
X153273440Y-130772000D01*
X153273440Y-130076000D01*
X153229162Y-129840683D01*
X153090090Y-129624559D01*
X152877890Y-129479569D01*
X152626000Y-129428560D01*
X149126000Y-129428560D01*
X148890683Y-129472838D01*
X148674559Y-129611910D01*
X148529569Y-129824110D01*
X148478560Y-130076000D01*
X137907475Y-130076000D01*
X138014093Y-129540000D01*
X137901054Y-128971715D01*
X137579147Y-128489946D01*
X137537548Y-128462150D01*
X137585317Y-128453162D01*
X137801441Y-128314090D01*
X137946431Y-128101890D01*
X137997440Y-127850000D01*
X137997440Y-126715928D01*
X140197000Y-126715928D01*
X140197000Y-126776072D01*
X140313845Y-127363491D01*
X140646591Y-127861481D01*
X141144581Y-128194227D01*
X141732000Y-128311072D01*
X142319419Y-128194227D01*
X142817409Y-127861481D01*
X143150155Y-127363491D01*
X143267000Y-126776072D01*
X143267000Y-126715928D01*
X143204903Y-126403745D01*
X148777861Y-126403745D01*
X148851995Y-126649864D01*
X149389223Y-126842965D01*
X149959454Y-126815778D01*
X150360005Y-126649864D01*
X150434139Y-126403745D01*
X149606000Y-125575605D01*
X148777861Y-126403745D01*
X143204903Y-126403745D01*
X143150155Y-126128509D01*
X142817409Y-125630519D01*
X142579418Y-125471499D01*
X142898335Y-125179223D01*
X148159035Y-125179223D01*
X148186222Y-125749454D01*
X148352136Y-126150005D01*
X148598255Y-126224139D01*
X149426395Y-125396000D01*
X149785605Y-125396000D01*
X150613745Y-126224139D01*
X150859864Y-126150005D01*
X151052965Y-125612777D01*
X151032994Y-125193887D01*
X151727000Y-125193887D01*
X151727000Y-125250113D01*
X151836233Y-125799264D01*
X152147302Y-126264811D01*
X152612849Y-126575880D01*
X153162000Y-126685113D01*
X153711151Y-126575880D01*
X154176698Y-126264811D01*
X154226855Y-126189745D01*
X168843861Y-126189745D01*
X168917995Y-126435864D01*
X169455223Y-126628965D01*
X170025454Y-126601778D01*
X170426005Y-126435864D01*
X170500139Y-126189745D01*
X172399861Y-126189745D01*
X172473995Y-126435864D01*
X173011223Y-126628965D01*
X173581454Y-126601778D01*
X173982005Y-126435864D01*
X174056139Y-126189745D01*
X173228000Y-125361605D01*
X172399861Y-126189745D01*
X170500139Y-126189745D01*
X169672000Y-125361605D01*
X168843861Y-126189745D01*
X154226855Y-126189745D01*
X154487767Y-125799264D01*
X154597000Y-125250113D01*
X154597000Y-125193887D01*
X154487767Y-124644736D01*
X154258116Y-124301039D01*
X155326096Y-124301039D01*
X155486959Y-124689423D01*
X155862866Y-125104389D01*
X156368959Y-125343914D01*
X156591000Y-125222629D01*
X156591000Y-124079000D01*
X156845000Y-124079000D01*
X156845000Y-125222629D01*
X157067041Y-125343914D01*
X157573134Y-125104389D01*
X157949041Y-124689423D01*
X158109904Y-124301039D01*
X157987915Y-124079000D01*
X156845000Y-124079000D01*
X156591000Y-124079000D01*
X155448085Y-124079000D01*
X155326096Y-124301039D01*
X154258116Y-124301039D01*
X154176698Y-124179189D01*
X153711151Y-123868120D01*
X153162000Y-123758887D01*
X152612849Y-123868120D01*
X152147302Y-124179189D01*
X151836233Y-124644736D01*
X151727000Y-125193887D01*
X151032994Y-125193887D01*
X151025778Y-125042546D01*
X150859864Y-124641995D01*
X150613745Y-124567861D01*
X149785605Y-125396000D01*
X149426395Y-125396000D01*
X148598255Y-124567861D01*
X148352136Y-124641995D01*
X148159035Y-125179223D01*
X142898335Y-125179223D01*
X142969966Y-125113576D01*
X143223046Y-124570742D01*
X143130899Y-124388255D01*
X148777861Y-124388255D01*
X149606000Y-125216395D01*
X150434139Y-124388255D01*
X150360005Y-124142136D01*
X149822777Y-123949035D01*
X149252546Y-123976222D01*
X148851995Y-124142136D01*
X148777861Y-124388255D01*
X143130899Y-124388255D01*
X143102997Y-124333000D01*
X141859000Y-124333000D01*
X141859000Y-124353000D01*
X141605000Y-124353000D01*
X141605000Y-124333000D01*
X140361003Y-124333000D01*
X140240954Y-124570742D01*
X140494034Y-125113576D01*
X140884582Y-125471499D01*
X140646591Y-125630519D01*
X140313845Y-126128509D01*
X140197000Y-126715928D01*
X137997440Y-126715928D01*
X137997440Y-126150000D01*
X137953162Y-125914683D01*
X137814090Y-125698559D01*
X137601890Y-125553569D01*
X137350000Y-125502560D01*
X135650000Y-125502560D01*
X135414683Y-125546838D01*
X135198559Y-125685910D01*
X135185000Y-125705754D01*
X135185000Y-120766000D01*
X140184560Y-120766000D01*
X140184560Y-122566000D01*
X140228838Y-122801317D01*
X140367910Y-123017441D01*
X140580110Y-123162431D01*
X140631146Y-123172766D01*
X140494034Y-123298424D01*
X140240954Y-123841258D01*
X140361003Y-124079000D01*
X141605000Y-124079000D01*
X141605000Y-124059000D01*
X141859000Y-124059000D01*
X141859000Y-124079000D01*
X143102997Y-124079000D01*
X143223046Y-123841258D01*
X142969966Y-123298424D01*
X142835462Y-123175156D01*
X142867317Y-123169162D01*
X143083441Y-123030090D01*
X143228431Y-122817890D01*
X143279440Y-122566000D01*
X143279440Y-120766000D01*
X143263294Y-120680187D01*
X148170752Y-120680187D01*
X148388757Y-121207800D01*
X148792077Y-121611824D01*
X149319309Y-121830750D01*
X149890187Y-121831248D01*
X150417800Y-121613243D01*
X150821824Y-121209923D01*
X151040750Y-120682691D01*
X151041248Y-120111813D01*
X150823243Y-119584200D01*
X150419923Y-119180176D01*
X149892691Y-118961250D01*
X149321813Y-118960752D01*
X148794200Y-119178757D01*
X148390176Y-119582077D01*
X148171250Y-120109309D01*
X148170752Y-120680187D01*
X143263294Y-120680187D01*
X143235162Y-120530683D01*
X143096090Y-120314559D01*
X142883890Y-120169569D01*
X142632000Y-120118560D01*
X140832000Y-120118560D01*
X140596683Y-120162838D01*
X140380559Y-120301910D01*
X140235569Y-120514110D01*
X140184560Y-120766000D01*
X135185000Y-120766000D01*
X135185000Y-118872000D01*
X155254887Y-118872000D01*
X155364120Y-119421151D01*
X155675189Y-119886698D01*
X156057275Y-120142000D01*
X155675189Y-120397302D01*
X155364120Y-120862849D01*
X155254887Y-121412000D01*
X155364120Y-121961151D01*
X155675189Y-122426698D01*
X156079703Y-122696986D01*
X155862866Y-122799611D01*
X155486959Y-123214577D01*
X155326096Y-123602961D01*
X155448085Y-123825000D01*
X156591000Y-123825000D01*
X156591000Y-123805000D01*
X156845000Y-123805000D01*
X156845000Y-123825000D01*
X157987915Y-123825000D01*
X158109904Y-123602961D01*
X157949041Y-123214577D01*
X157573134Y-122799611D01*
X157356297Y-122696986D01*
X157760811Y-122426698D01*
X158071880Y-121961151D01*
X158181113Y-121412000D01*
X158071880Y-120862849D01*
X157760811Y-120397302D01*
X157378725Y-120142000D01*
X157760811Y-119886698D01*
X158071880Y-119421151D01*
X158181113Y-118872000D01*
X158071880Y-118322849D01*
X157760811Y-117857302D01*
X157616535Y-117760899D01*
X157753317Y-117735162D01*
X157969441Y-117596090D01*
X158114431Y-117383890D01*
X158165440Y-117132000D01*
X158165440Y-115532000D01*
X158121162Y-115296683D01*
X157982090Y-115080559D01*
X157769890Y-114935569D01*
X157518000Y-114884560D01*
X155918000Y-114884560D01*
X155682683Y-114928838D01*
X155466559Y-115067910D01*
X155321569Y-115280110D01*
X155270560Y-115532000D01*
X155270560Y-117132000D01*
X155314838Y-117367317D01*
X155453910Y-117583441D01*
X155666110Y-117728431D01*
X155821089Y-117759815D01*
X155675189Y-117857302D01*
X155364120Y-118322849D01*
X155254887Y-118872000D01*
X135185000Y-118872000D01*
X135185000Y-113648742D01*
X140240954Y-113648742D01*
X140494034Y-114191576D01*
X140935583Y-114596240D01*
X141367260Y-114775036D01*
X141605000Y-114654378D01*
X141605000Y-113411000D01*
X141859000Y-113411000D01*
X141859000Y-114654378D01*
X142096740Y-114775036D01*
X142528417Y-114596240D01*
X142574507Y-114554000D01*
X147177866Y-114554000D01*
X147260457Y-114969212D01*
X147495655Y-115321211D01*
X147847654Y-115556409D01*
X148262866Y-115639000D01*
X148917134Y-115639000D01*
X149332346Y-115556409D01*
X149646965Y-115346187D01*
X151726752Y-115346187D01*
X151944757Y-115873800D01*
X152348077Y-116277824D01*
X152875309Y-116496750D01*
X153446187Y-116497248D01*
X153973800Y-116279243D01*
X154377824Y-115875923D01*
X154596750Y-115348691D01*
X154597248Y-114777813D01*
X154379243Y-114250200D01*
X153975923Y-113846176D01*
X153448691Y-113627250D01*
X152877813Y-113626752D01*
X152350200Y-113844757D01*
X151946176Y-114248077D01*
X151727250Y-114775309D01*
X151726752Y-115346187D01*
X149646965Y-115346187D01*
X149684345Y-115321211D01*
X149919543Y-114969212D01*
X150002134Y-114554000D01*
X149919543Y-114138788D01*
X149769830Y-113914726D01*
X149934408Y-113578001D01*
X149807502Y-113411000D01*
X148717000Y-113411000D01*
X148717000Y-113431000D01*
X148463000Y-113431000D01*
X148463000Y-113411000D01*
X147372498Y-113411000D01*
X147245592Y-113578001D01*
X147410170Y-113914726D01*
X147260457Y-114138788D01*
X147177866Y-114554000D01*
X142574507Y-114554000D01*
X142969966Y-114191576D01*
X143223046Y-113648742D01*
X143102997Y-113411000D01*
X141859000Y-113411000D01*
X141605000Y-113411000D01*
X140361003Y-113411000D01*
X140240954Y-113648742D01*
X135185000Y-113648742D01*
X135185000Y-107822249D01*
X135228355Y-107926924D01*
X135618642Y-108355183D01*
X136143108Y-108601486D01*
X136373000Y-108480819D01*
X136373000Y-107287000D01*
X136627000Y-107287000D01*
X136627000Y-108480819D01*
X136856892Y-108601486D01*
X137381358Y-108355183D01*
X137771645Y-107926924D01*
X137941476Y-107516890D01*
X137829127Y-107304000D01*
X140184560Y-107304000D01*
X140184560Y-109104000D01*
X140228838Y-109339317D01*
X140367910Y-109555441D01*
X140580110Y-109700431D01*
X140596344Y-109703719D01*
X140313845Y-110126509D01*
X140197000Y-110713928D01*
X140197000Y-110774072D01*
X140313845Y-111361491D01*
X140646591Y-111859481D01*
X140884582Y-112018501D01*
X140494034Y-112376424D01*
X140240954Y-112919258D01*
X140361003Y-113157000D01*
X141605000Y-113157000D01*
X141605000Y-113137000D01*
X141859000Y-113137000D01*
X141859000Y-113157000D01*
X143102997Y-113157000D01*
X143223046Y-112919258D01*
X142969966Y-112376424D01*
X142579418Y-112018501D01*
X142817409Y-111859481D01*
X143014842Y-111564000D01*
X147192560Y-111564000D01*
X147192560Y-112464000D01*
X147236838Y-112699317D01*
X147322558Y-112832529D01*
X147245592Y-112989999D01*
X147372498Y-113157000D01*
X148463000Y-113157000D01*
X148463000Y-113137000D01*
X148717000Y-113137000D01*
X148717000Y-113157000D01*
X149807502Y-113157000D01*
X149934408Y-112989999D01*
X149857147Y-112831925D01*
X149936431Y-112715890D01*
X149987440Y-112464000D01*
X149987440Y-111564000D01*
X149943162Y-111328683D01*
X149869366Y-111214000D01*
X154508560Y-111214000D01*
X154508560Y-112814000D01*
X154552838Y-113049317D01*
X154691910Y-113265441D01*
X154904110Y-113410431D01*
X155156000Y-113461440D01*
X156756000Y-113461440D01*
X156991317Y-113417162D01*
X157207441Y-113278090D01*
X157352431Y-113065890D01*
X157403440Y-112814000D01*
X157403440Y-111214000D01*
X157359162Y-110978683D01*
X157220090Y-110762559D01*
X157007890Y-110617569D01*
X156756000Y-110566560D01*
X155156000Y-110566560D01*
X154920683Y-110610838D01*
X154704559Y-110749910D01*
X154559569Y-110962110D01*
X154508560Y-111214000D01*
X149869366Y-111214000D01*
X149804090Y-111112559D01*
X149591890Y-110967569D01*
X149340000Y-110916560D01*
X147840000Y-110916560D01*
X147604683Y-110960838D01*
X147388559Y-111099910D01*
X147243569Y-111312110D01*
X147192560Y-111564000D01*
X143014842Y-111564000D01*
X143150155Y-111361491D01*
X143267000Y-110774072D01*
X143267000Y-110713928D01*
X143150155Y-110126509D01*
X142869163Y-109705974D01*
X143083441Y-109568090D01*
X143228431Y-109355890D01*
X143279440Y-109104000D01*
X143279440Y-107304000D01*
X143235162Y-107068683D01*
X143096090Y-106852559D01*
X142883890Y-106707569D01*
X142632000Y-106656560D01*
X140832000Y-106656560D01*
X140596683Y-106700838D01*
X140380559Y-106839910D01*
X140235569Y-107052110D01*
X140184560Y-107304000D01*
X137829127Y-107304000D01*
X137820155Y-107287000D01*
X136627000Y-107287000D01*
X136373000Y-107287000D01*
X136353000Y-107287000D01*
X136353000Y-107033000D01*
X136373000Y-107033000D01*
X136373000Y-104747000D01*
X136627000Y-104747000D01*
X136627000Y-107033000D01*
X137820155Y-107033000D01*
X137941476Y-106803110D01*
X137771645Y-106393076D01*
X137381358Y-105964817D01*
X137222046Y-105890000D01*
X137381358Y-105815183D01*
X137771645Y-105386924D01*
X137941476Y-104976890D01*
X137820155Y-104747000D01*
X136627000Y-104747000D01*
X136373000Y-104747000D01*
X136353000Y-104747000D01*
X136353000Y-104493000D01*
X136373000Y-104493000D01*
X136373000Y-104473000D01*
X136627000Y-104473000D01*
X136627000Y-104493000D01*
X137820155Y-104493000D01*
X137941476Y-104263110D01*
X137771645Y-103853076D01*
X137381358Y-103424817D01*
X137238447Y-103357702D01*
X137579147Y-103130054D01*
X137901054Y-102648285D01*
X137914626Y-102580050D01*
X140151000Y-102580050D01*
X140151000Y-102651950D01*
X140290681Y-103354174D01*
X140688459Y-103949491D01*
X141283776Y-104347269D01*
X141986000Y-104486950D01*
X142688224Y-104347269D01*
X143283541Y-103949491D01*
X143681319Y-103354174D01*
X143806389Y-102725403D01*
X148842682Y-102725403D01*
X149121455Y-103400086D01*
X149637199Y-103916730D01*
X150311395Y-104196681D01*
X151041403Y-104197318D01*
X151716086Y-103918545D01*
X152232730Y-103402801D01*
X152512681Y-102728605D01*
X152512683Y-102725403D01*
X155842682Y-102725403D01*
X156121455Y-103400086D01*
X156637199Y-103916730D01*
X157121654Y-104117893D01*
X158385000Y-105381239D01*
X158385000Y-116331995D01*
X158384999Y-116332000D01*
X158509457Y-116957688D01*
X158863880Y-117488120D01*
X161403878Y-120028117D01*
X161403880Y-120028120D01*
X161934313Y-120382543D01*
X162560000Y-120507000D01*
X163221891Y-120507000D01*
X162984120Y-120862849D01*
X162874887Y-121412000D01*
X162984120Y-121961151D01*
X163295189Y-122426698D01*
X163514795Y-122573434D01*
X163181880Y-122795880D01*
X162827457Y-123326313D01*
X162703000Y-123952000D01*
X162827457Y-124577687D01*
X163181880Y-125108120D01*
X163712313Y-125462543D01*
X164338000Y-125587000D01*
X165861995Y-125587000D01*
X165862000Y-125587001D01*
X166487688Y-125462543D01*
X167018120Y-125108120D01*
X167161016Y-124965223D01*
X168225035Y-124965223D01*
X168252222Y-125535454D01*
X168418136Y-125936005D01*
X168664255Y-126010139D01*
X169492395Y-125182000D01*
X169851605Y-125182000D01*
X170679745Y-126010139D01*
X170925864Y-125936005D01*
X171118965Y-125398777D01*
X171098295Y-124965223D01*
X171781035Y-124965223D01*
X171808222Y-125535454D01*
X171974136Y-125936005D01*
X172220255Y-126010139D01*
X173048395Y-125182000D01*
X173407605Y-125182000D01*
X174235745Y-126010139D01*
X174481864Y-125936005D01*
X174674965Y-125398777D01*
X174647778Y-124828546D01*
X174481864Y-124427995D01*
X174235745Y-124353861D01*
X173407605Y-125182000D01*
X173048395Y-125182000D01*
X172220255Y-124353861D01*
X171974136Y-124427995D01*
X171781035Y-124965223D01*
X171098295Y-124965223D01*
X171091778Y-124828546D01*
X170925864Y-124427995D01*
X170679745Y-124353861D01*
X169851605Y-125182000D01*
X169492395Y-125182000D01*
X168664255Y-124353861D01*
X168418136Y-124427995D01*
X168225035Y-124965223D01*
X167161016Y-124965223D01*
X167780117Y-124346122D01*
X167780120Y-124346120D01*
X168134543Y-123815687D01*
X168186397Y-123555001D01*
X168259001Y-123190000D01*
X168259000Y-123189995D01*
X168259000Y-123020031D01*
X168454757Y-123493800D01*
X168858077Y-123897824D01*
X168924544Y-123925423D01*
X168917995Y-123928136D01*
X168843861Y-124174255D01*
X169672000Y-125002395D01*
X170500139Y-124174255D01*
X170426005Y-123928136D01*
X170419517Y-123925804D01*
X170483800Y-123899243D01*
X170887824Y-123495923D01*
X171106750Y-122968691D01*
X171107248Y-122397813D01*
X170889243Y-121870200D01*
X170796205Y-121777000D01*
X171280760Y-121777000D01*
X171593000Y-122089239D01*
X171593000Y-122682000D01*
X171717457Y-123307687D01*
X172071880Y-123838120D01*
X172429195Y-124076869D01*
X172399861Y-124174255D01*
X173228000Y-125002395D01*
X174056139Y-124174255D01*
X174026805Y-124076869D01*
X174384120Y-123838120D01*
X174738543Y-123307687D01*
X174863000Y-122682000D01*
X174863000Y-121412000D01*
X174738543Y-120786313D01*
X174738543Y-120786312D01*
X174556663Y-120514110D01*
X174384120Y-120255880D01*
X174384117Y-120255878D01*
X173114120Y-118985880D01*
X172889884Y-118836050D01*
X174949000Y-118836050D01*
X174949000Y-118907950D01*
X175088681Y-119610174D01*
X175486459Y-120205491D01*
X176081776Y-120603269D01*
X176784000Y-120742950D01*
X177486224Y-120603269D01*
X178081541Y-120205491D01*
X178479319Y-119610174D01*
X178619000Y-118907950D01*
X178619000Y-118836050D01*
X178479319Y-118133826D01*
X178081541Y-117538509D01*
X177486224Y-117140731D01*
X176784000Y-117001050D01*
X176081776Y-117140731D01*
X175486459Y-117538509D01*
X175088681Y-118133826D01*
X174949000Y-118836050D01*
X172889884Y-118836050D01*
X172583688Y-118631457D01*
X171958000Y-118506999D01*
X171957995Y-118507000D01*
X168402005Y-118507000D01*
X168402000Y-118506999D01*
X167776313Y-118631457D01*
X167245880Y-118985880D01*
X167245878Y-118985883D01*
X165562517Y-120669243D01*
X165380811Y-120397302D01*
X165161205Y-120250566D01*
X165494120Y-120028120D01*
X165848543Y-119497687D01*
X165973000Y-118872000D01*
X165848543Y-118246313D01*
X165494120Y-117715880D01*
X165161205Y-117493434D01*
X165380811Y-117346698D01*
X165691880Y-116881151D01*
X165801113Y-116332000D01*
X165691880Y-115782849D01*
X165380811Y-115317302D01*
X164915264Y-115006233D01*
X164366113Y-114897000D01*
X164309887Y-114897000D01*
X163760736Y-115006233D01*
X163295189Y-115317302D01*
X162984120Y-115782849D01*
X162874887Y-116332000D01*
X162984120Y-116881151D01*
X163190985Y-117190746D01*
X161655000Y-115654760D01*
X161655000Y-112014000D01*
X161941000Y-112014000D01*
X162065457Y-112639687D01*
X162419880Y-113170120D01*
X162950313Y-113524543D01*
X163576000Y-113649000D01*
X164168760Y-113649000D01*
X167753880Y-117234120D01*
X168284312Y-117588543D01*
X168910000Y-117713001D01*
X168910005Y-117713000D01*
X170688000Y-117713000D01*
X171313687Y-117588543D01*
X171844120Y-117234120D01*
X172198543Y-116703687D01*
X172323000Y-116078000D01*
X172198543Y-115452313D01*
X171844120Y-114921880D01*
X171313687Y-114567457D01*
X170688000Y-114443000D01*
X169587240Y-114443000D01*
X166002120Y-110857880D01*
X165471688Y-110503457D01*
X164846000Y-110378999D01*
X164845995Y-110379000D01*
X163576000Y-110379000D01*
X162950313Y-110503457D01*
X162419880Y-110857880D01*
X162065457Y-111388313D01*
X161941000Y-112014000D01*
X161655000Y-112014000D01*
X161655000Y-108996187D01*
X162902752Y-108996187D01*
X163120757Y-109523800D01*
X163524077Y-109927824D01*
X164051309Y-110146750D01*
X164622187Y-110147248D01*
X165149800Y-109929243D01*
X165553824Y-109525923D01*
X165772750Y-108998691D01*
X165773248Y-108427813D01*
X165555243Y-107900200D01*
X165151923Y-107496176D01*
X164624691Y-107277250D01*
X164053813Y-107276752D01*
X163526200Y-107494757D01*
X163122176Y-107898077D01*
X162903250Y-108425309D01*
X162902752Y-108996187D01*
X161655000Y-108996187D01*
X161655000Y-106925745D01*
X169859861Y-106925745D01*
X169933995Y-107171864D01*
X170471223Y-107364965D01*
X171041454Y-107337778D01*
X171442005Y-107171864D01*
X171516139Y-106925745D01*
X170688000Y-106097605D01*
X169859861Y-106925745D01*
X161655000Y-106925745D01*
X161655000Y-105701223D01*
X169241035Y-105701223D01*
X169268222Y-106271454D01*
X169434136Y-106672005D01*
X169680255Y-106746139D01*
X170508395Y-105918000D01*
X170867605Y-105918000D01*
X171695745Y-106746139D01*
X171941864Y-106672005D01*
X172134965Y-106134777D01*
X172107778Y-105564546D01*
X171941864Y-105163995D01*
X171695745Y-105089861D01*
X170867605Y-105918000D01*
X170508395Y-105918000D01*
X169680255Y-105089861D01*
X169434136Y-105163995D01*
X169241035Y-105701223D01*
X161655000Y-105701223D01*
X161655000Y-104910255D01*
X169859861Y-104910255D01*
X170688000Y-105738395D01*
X171516139Y-104910255D01*
X171442005Y-104664136D01*
X170904777Y-104471035D01*
X170334546Y-104498222D01*
X169933995Y-104664136D01*
X169859861Y-104910255D01*
X161655000Y-104910255D01*
X161655000Y-98721240D01*
X162729240Y-97647000D01*
X172804760Y-97647000D01*
X175149000Y-99991239D01*
X175149000Y-102784510D01*
X174949319Y-103265395D01*
X174948682Y-103995403D01*
X175227455Y-104670086D01*
X175743199Y-105186730D01*
X176417395Y-105466681D01*
X177147403Y-105467318D01*
X177822086Y-105188545D01*
X178338730Y-104672801D01*
X178618681Y-103998605D01*
X178619318Y-103268597D01*
X178419000Y-102783790D01*
X178419000Y-99314000D01*
X178294543Y-98688313D01*
X178294543Y-98688312D01*
X178152581Y-98475851D01*
X177940120Y-98157880D01*
X177940117Y-98157878D01*
X174638120Y-94855880D01*
X174107688Y-94501457D01*
X173482000Y-94376999D01*
X173481995Y-94377000D01*
X162052005Y-94377000D01*
X162052000Y-94376999D01*
X161426312Y-94501457D01*
X160895880Y-94855880D01*
X158863880Y-96887880D01*
X158509457Y-97418312D01*
X158384999Y-98044000D01*
X158385000Y-98044005D01*
X158385000Y-100668664D01*
X158044605Y-100527319D01*
X157314597Y-100526682D01*
X156639914Y-100805455D01*
X156123270Y-101321199D01*
X155843319Y-101995395D01*
X155842682Y-102725403D01*
X152512683Y-102725403D01*
X152513318Y-101998597D01*
X152234545Y-101323914D01*
X151718801Y-100807270D01*
X151044605Y-100527319D01*
X150314597Y-100526682D01*
X149639914Y-100805455D01*
X149123270Y-101321199D01*
X148843319Y-101995395D01*
X148842682Y-102725403D01*
X143806389Y-102725403D01*
X143821000Y-102651950D01*
X143821000Y-102580050D01*
X143681319Y-101877826D01*
X143283541Y-101282509D01*
X142688224Y-100884731D01*
X141986000Y-100745050D01*
X141283776Y-100884731D01*
X140688459Y-101282509D01*
X140290681Y-101877826D01*
X140151000Y-102580050D01*
X137914626Y-102580050D01*
X138014093Y-102080000D01*
X137901054Y-101511715D01*
X137579147Y-101029946D01*
X137249974Y-100810000D01*
X137579147Y-100590054D01*
X137901054Y-100108285D01*
X138014093Y-99540000D01*
X137901054Y-98971715D01*
X137579147Y-98489946D01*
X137537548Y-98462150D01*
X137585317Y-98453162D01*
X137801441Y-98314090D01*
X137946431Y-98101890D01*
X137997440Y-97850000D01*
X137997440Y-96336000D01*
X140138560Y-96336000D01*
X140138560Y-98736000D01*
X140182838Y-98971317D01*
X140321910Y-99187441D01*
X140534110Y-99332431D01*
X140786000Y-99383440D01*
X143186000Y-99383440D01*
X143421317Y-99339162D01*
X143637441Y-99200090D01*
X143782431Y-98987890D01*
X143833440Y-98736000D01*
X143833440Y-96336000D01*
X143789162Y-96100683D01*
X143650090Y-95884559D01*
X143437890Y-95739569D01*
X143186000Y-95688560D01*
X140786000Y-95688560D01*
X140550683Y-95732838D01*
X140334559Y-95871910D01*
X140189569Y-96084110D01*
X140138560Y-96336000D01*
X137997440Y-96336000D01*
X137997440Y-96150000D01*
X137953162Y-95914683D01*
X137814090Y-95698559D01*
X137601890Y-95553569D01*
X137350000Y-95502560D01*
X135650000Y-95502560D01*
X135414683Y-95546838D01*
X135198559Y-95685910D01*
X135185000Y-95705754D01*
X135185000Y-88367365D01*
X135715000Y-88367365D01*
X135888935Y-89241797D01*
X136384261Y-89983104D01*
X137125568Y-90478430D01*
X138000000Y-90652365D01*
X138874432Y-90478430D01*
X138931946Y-90440000D01*
X147958560Y-90440000D01*
X147958560Y-92440000D01*
X148002838Y-92675317D01*
X148141910Y-92891441D01*
X148354110Y-93036431D01*
X148606000Y-93087440D01*
X150606000Y-93087440D01*
X150841317Y-93043162D01*
X151057441Y-92904090D01*
X151202431Y-92691890D01*
X151253440Y-92440000D01*
X151253440Y-91186000D01*
X154746887Y-91186000D01*
X154856120Y-91735151D01*
X155167189Y-92200698D01*
X155632736Y-92511767D01*
X156181887Y-92621000D01*
X156238113Y-92621000D01*
X156787264Y-92511767D01*
X157252811Y-92200698D01*
X157563880Y-91735151D01*
X157616584Y-91470187D01*
X164934752Y-91470187D01*
X165152757Y-91997800D01*
X165556077Y-92401824D01*
X166083309Y-92620750D01*
X166654187Y-92621248D01*
X167181800Y-92403243D01*
X167360693Y-92224661D01*
X170052758Y-92224661D01*
X170264990Y-92738303D01*
X170657630Y-93131629D01*
X171170900Y-93344757D01*
X171726661Y-93345242D01*
X172240303Y-93133010D01*
X172633629Y-92740370D01*
X172846757Y-92227100D01*
X172847242Y-91671339D01*
X172635010Y-91157697D01*
X172242370Y-90764371D01*
X171729100Y-90551243D01*
X171173339Y-90550758D01*
X170659697Y-90762990D01*
X170266371Y-91155630D01*
X170053243Y-91668900D01*
X170052758Y-92224661D01*
X167360693Y-92224661D01*
X167585824Y-91999923D01*
X167804750Y-91472691D01*
X167805248Y-90901813D01*
X167587243Y-90374200D01*
X167183923Y-89970176D01*
X166656691Y-89751250D01*
X166085813Y-89750752D01*
X165558200Y-89968757D01*
X165154176Y-90372077D01*
X164935250Y-90899309D01*
X164934752Y-91470187D01*
X157616584Y-91470187D01*
X157673113Y-91186000D01*
X157563880Y-90636849D01*
X157252811Y-90171302D01*
X156787264Y-89860233D01*
X156238113Y-89751000D01*
X156181887Y-89751000D01*
X155632736Y-89860233D01*
X155167189Y-90171302D01*
X154856120Y-90636849D01*
X154746887Y-91186000D01*
X151253440Y-91186000D01*
X151253440Y-90440000D01*
X151209162Y-90204683D01*
X151070090Y-89988559D01*
X150857890Y-89843569D01*
X150606000Y-89792560D01*
X148606000Y-89792560D01*
X148370683Y-89836838D01*
X148154559Y-89975910D01*
X148009569Y-90188110D01*
X147958560Y-90440000D01*
X138931946Y-90440000D01*
X139615739Y-89983104D01*
X140111065Y-89241797D01*
X140285000Y-88367365D01*
X140111065Y-87492933D01*
X139615739Y-86751626D01*
X139443682Y-86636661D01*
X145414758Y-86636661D01*
X145626990Y-87150303D01*
X146019630Y-87543629D01*
X146227512Y-87629949D01*
X146021697Y-87714990D01*
X145628371Y-88107630D01*
X145415243Y-88620900D01*
X145414758Y-89176661D01*
X145626990Y-89690303D01*
X146019630Y-90083629D01*
X146532900Y-90296757D01*
X147088661Y-90297242D01*
X147602303Y-90085010D01*
X147995629Y-89692370D01*
X147998830Y-89684661D01*
X172592758Y-89684661D01*
X172804990Y-90198303D01*
X173197630Y-90591629D01*
X173710900Y-90804757D01*
X174266661Y-90805242D01*
X174780303Y-90593010D01*
X175173629Y-90200370D01*
X175386757Y-89687100D01*
X175387242Y-89131339D01*
X175175010Y-88617697D01*
X174925115Y-88367365D01*
X177715000Y-88367365D01*
X177888935Y-89241797D01*
X178384261Y-89983104D01*
X179125568Y-90478430D01*
X180000000Y-90652365D01*
X180874432Y-90478430D01*
X181615739Y-89983104D01*
X182111065Y-89241797D01*
X182285000Y-88367365D01*
X182111065Y-87492933D01*
X181615739Y-86751626D01*
X180874432Y-86256300D01*
X180000000Y-86082365D01*
X179125568Y-86256300D01*
X178384261Y-86751626D01*
X177888935Y-87492933D01*
X177715000Y-88367365D01*
X174925115Y-88367365D01*
X174782370Y-88224371D01*
X174269100Y-88011243D01*
X173713339Y-88010758D01*
X173199697Y-88222990D01*
X172806371Y-88615630D01*
X172593243Y-89128900D01*
X172592758Y-89684661D01*
X147998830Y-89684661D01*
X148208757Y-89179100D01*
X148209242Y-88623339D01*
X148110245Y-88383745D01*
X155381861Y-88383745D01*
X155455995Y-88629864D01*
X155993223Y-88822965D01*
X156563454Y-88795778D01*
X156964005Y-88629864D01*
X157038139Y-88383745D01*
X156210000Y-87555605D01*
X155381861Y-88383745D01*
X148110245Y-88383745D01*
X147997010Y-88109697D01*
X147604370Y-87716371D01*
X147396488Y-87630051D01*
X147487290Y-87592532D01*
X148633073Y-87592532D01*
X148731736Y-87859387D01*
X149341461Y-88085908D01*
X149991460Y-88061856D01*
X150480264Y-87859387D01*
X150578927Y-87592532D01*
X149606000Y-86619605D01*
X148633073Y-87592532D01*
X147487290Y-87592532D01*
X147602303Y-87545010D01*
X147995629Y-87152370D01*
X148057668Y-87002963D01*
X148186613Y-87314264D01*
X148453468Y-87412927D01*
X149426395Y-86440000D01*
X149785605Y-86440000D01*
X150758532Y-87412927D01*
X151025387Y-87314264D01*
X151082986Y-87159223D01*
X154763035Y-87159223D01*
X154790222Y-87729454D01*
X154956136Y-88130005D01*
X155202255Y-88204139D01*
X156030395Y-87376000D01*
X156389605Y-87376000D01*
X157217745Y-88204139D01*
X157463864Y-88130005D01*
X157656965Y-87592777D01*
X157646630Y-87376000D01*
X164906887Y-87376000D01*
X165016120Y-87925151D01*
X165327189Y-88390698D01*
X165792736Y-88701767D01*
X166341887Y-88811000D01*
X166398113Y-88811000D01*
X166947264Y-88701767D01*
X167412811Y-88390698D01*
X167723880Y-87925151D01*
X167833113Y-87376000D01*
X167787097Y-87144661D01*
X170052758Y-87144661D01*
X170264990Y-87658303D01*
X170657630Y-88051629D01*
X171170900Y-88264757D01*
X171726661Y-88265242D01*
X172240303Y-88053010D01*
X172633629Y-87660370D01*
X172846757Y-87147100D01*
X172847242Y-86591339D01*
X172635010Y-86077697D01*
X172242370Y-85684371D01*
X171729100Y-85471243D01*
X171173339Y-85470758D01*
X170659697Y-85682990D01*
X170266371Y-86075630D01*
X170053243Y-86588900D01*
X170052758Y-87144661D01*
X167787097Y-87144661D01*
X167723880Y-86826849D01*
X167412811Y-86361302D01*
X166947264Y-86050233D01*
X166398113Y-85941000D01*
X166341887Y-85941000D01*
X165792736Y-86050233D01*
X165327189Y-86361302D01*
X165016120Y-86826849D01*
X164906887Y-87376000D01*
X157646630Y-87376000D01*
X157629778Y-87022546D01*
X157463864Y-86621995D01*
X157217745Y-86547861D01*
X156389605Y-87376000D01*
X156030395Y-87376000D01*
X155202255Y-86547861D01*
X154956136Y-86621995D01*
X154763035Y-87159223D01*
X151082986Y-87159223D01*
X151251908Y-86704539D01*
X151239465Y-86368255D01*
X155381861Y-86368255D01*
X156210000Y-87196395D01*
X157038139Y-86368255D01*
X156964005Y-86122136D01*
X156426777Y-85929035D01*
X155856546Y-85956222D01*
X155455995Y-86122136D01*
X155381861Y-86368255D01*
X151239465Y-86368255D01*
X151227856Y-86054540D01*
X151025387Y-85565736D01*
X150758532Y-85467073D01*
X149785605Y-86440000D01*
X149426395Y-86440000D01*
X148453468Y-85467073D01*
X148186613Y-85565736D01*
X148096072Y-85809445D01*
X147997010Y-85569697D01*
X147604370Y-85176371D01*
X147091100Y-84963243D01*
X146535339Y-84962758D01*
X146021697Y-85174990D01*
X145628371Y-85567630D01*
X145415243Y-86080900D01*
X145414758Y-86636661D01*
X139443682Y-86636661D01*
X138874432Y-86256300D01*
X138000000Y-86082365D01*
X137125568Y-86256300D01*
X136384261Y-86751626D01*
X135888935Y-87492933D01*
X135715000Y-88367365D01*
X135185000Y-88367365D01*
X135185000Y-83068682D01*
X148659325Y-83068682D01*
X148463243Y-83540900D01*
M02*
