M48
;DRILL file {KiCad 4.0.7} date 10/23/17 00:19:41
;FORMAT={-:-/ absolute / metric / decimal}
FMAT,2
METRIC,TZ
T1C0.600
T2C0.762
T3C0.800
T4C1.000
T5C1.200
%
G90
G05
M71
T1
X148.59Y-112.014
X148.59Y-113.284
X148.59Y-114.554
T2
X145.288Y-96.012
X145.288Y-98.552
X146.812Y-86.36
X146.812Y-88.9
X147.828Y-96.012
X147.828Y-98.552
X148.336Y-128.016
X149.86Y-83.82
X150.368Y-96.012
X150.368Y-98.552
X151.384Y-128.016
X152.908Y-84.836
X155.956Y-96.012
X155.956Y-98.552
T3
X149.606Y-120.396
X149.606Y-125.396
X153.162Y-115.062
X153.162Y-125.222
X155.956Y-112.014
X156.21Y-87.376
X156.21Y-91.186
X156.718Y-116.332
X156.718Y-118.872
X156.718Y-121.412
X156.718Y-123.952
X163.068Y-131.572
X163.068Y-134.072
X163.576Y-112.014
X164.338Y-96.012
X164.338Y-108.712
X164.338Y-116.332
X164.338Y-118.872
X164.338Y-121.412
X164.338Y-123.952
X166.37Y-87.376
X166.37Y-91.186
X169.672Y-122.682
X169.672Y-125.182
X170.688Y-105.918
X170.688Y-116.078
X171.45Y-86.868
X171.45Y-91.948
X173.228Y-122.682
X173.228Y-125.182
X173.99Y-89.408
T4
X136.5Y-97.
X136.5Y-99.54
X136.5Y-102.08
X136.5Y-104.62
X136.5Y-107.16
X136.5Y-127.
X136.5Y-129.54
X136.5Y-132.08
X136.5Y-134.62
X141.732Y-108.204
X141.732Y-110.744
X141.732Y-113.284
X141.732Y-121.666
X141.732Y-124.206
X141.732Y-126.746
X149.606Y-86.44
X149.606Y-91.44
T5
X141.986Y-97.536
X141.986Y-102.616
X150.678Y-102.362
X157.678Y-102.362
X176.784Y-103.632
X176.784Y-118.872
T4
X149.876Y-131.826G85X151.876Y-131.826
G05
X149.876Y-137.826G85X151.876Y-137.826
G05
X155.576Y-135.826G85X155.576Y-133.826
G05
T0
M30
