G04 #@! TF.FileFunction,Legend,Top*
%FSLAX46Y46*%
G04 Gerber Fmt 4.6, Leading zero omitted, Abs format (unit mm)*
G04 Created by KiCad (PCBNEW 4.0.7) date 10/23/17 00:19:34*
%MOMM*%
%LPD*%
G01*
G04 APERTURE LIST*
%ADD10C,0.100000*%
%ADD11C,0.120000*%
%ADD12C,0.150000*%
G04 APERTURE END LIST*
D10*
D11*
X170982000Y-121372000D02*
X170982000Y-126492000D01*
X168362000Y-121372000D02*
X168362000Y-126492000D01*
X170982000Y-121372000D02*
X168362000Y-121372000D01*
X170982000Y-126492000D02*
X168362000Y-126492000D01*
X150916000Y-120336000D02*
X150916000Y-125456000D01*
X148296000Y-120336000D02*
X148296000Y-125456000D01*
X150916000Y-120336000D02*
X150602000Y-120336000D01*
X148610000Y-120336000D02*
X148296000Y-120336000D01*
X150916000Y-125456000D02*
X150602000Y-125456000D01*
X148610000Y-125456000D02*
X148296000Y-125456000D01*
X174538000Y-121372000D02*
X174538000Y-126492000D01*
X171918000Y-121372000D02*
X171918000Y-126492000D01*
X174538000Y-121372000D02*
X171918000Y-121372000D01*
X174538000Y-126492000D02*
X171918000Y-126492000D01*
X148222736Y-84041563D02*
G75*
G03X148226000Y-93839357I1383264J-4898437D01*
G01*
X150989264Y-84041563D02*
G75*
G02X150986000Y-93839357I-1383264J-4898437D01*
G01*
X150989264Y-84041563D02*
G75*
G03X148226000Y-84040643I-1383264J-4898437D01*
G01*
X144556000Y-88940000D02*
X154656000Y-88940000D01*
X144556000Y-88900000D02*
X154656000Y-88900000D01*
X144556000Y-88860000D02*
X154656000Y-88860000D01*
X144557000Y-88820000D02*
X154655000Y-88820000D01*
X144558000Y-88780000D02*
X154654000Y-88780000D01*
X144559000Y-88740000D02*
X154653000Y-88740000D01*
X144561000Y-88700000D02*
X154651000Y-88700000D01*
X144563000Y-88660000D02*
X154649000Y-88660000D01*
X144566000Y-88620000D02*
X154646000Y-88620000D01*
X144568000Y-88580000D02*
X154644000Y-88580000D01*
X144571000Y-88540000D02*
X154641000Y-88540000D01*
X144575000Y-88500000D02*
X154637000Y-88500000D01*
X144578000Y-88460000D02*
X154634000Y-88460000D01*
X144582000Y-88420000D02*
X154630000Y-88420000D01*
X144586000Y-88380000D02*
X154626000Y-88380000D01*
X144591000Y-88340000D02*
X154621000Y-88340000D01*
X144596000Y-88300000D02*
X154616000Y-88300000D01*
X144601000Y-88260000D02*
X154611000Y-88260000D01*
X144607000Y-88219000D02*
X154605000Y-88219000D01*
X144613000Y-88179000D02*
X154599000Y-88179000D01*
X144619000Y-88139000D02*
X154593000Y-88139000D01*
X144625000Y-88099000D02*
X154587000Y-88099000D01*
X144632000Y-88059000D02*
X154580000Y-88059000D01*
X144639000Y-88019000D02*
X154573000Y-88019000D01*
X144647000Y-87979000D02*
X154565000Y-87979000D01*
X144655000Y-87939000D02*
X154557000Y-87939000D01*
X144663000Y-87899000D02*
X154549000Y-87899000D01*
X144671000Y-87859000D02*
X154541000Y-87859000D01*
X144680000Y-87819000D02*
X154532000Y-87819000D01*
X144689000Y-87779000D02*
X154523000Y-87779000D01*
X144699000Y-87739000D02*
X154513000Y-87739000D01*
X144709000Y-87699000D02*
X154503000Y-87699000D01*
X144719000Y-87659000D02*
X154493000Y-87659000D01*
X144730000Y-87619000D02*
X148425000Y-87619000D01*
X150787000Y-87619000D02*
X154482000Y-87619000D01*
X144741000Y-87579000D02*
X148425000Y-87579000D01*
X150787000Y-87579000D02*
X154471000Y-87579000D01*
X144752000Y-87539000D02*
X148425000Y-87539000D01*
X150787000Y-87539000D02*
X154460000Y-87539000D01*
X144763000Y-87499000D02*
X148425000Y-87499000D01*
X150787000Y-87499000D02*
X154449000Y-87499000D01*
X144775000Y-87459000D02*
X148425000Y-87459000D01*
X150787000Y-87459000D02*
X154437000Y-87459000D01*
X144788000Y-87419000D02*
X148425000Y-87419000D01*
X150787000Y-87419000D02*
X154424000Y-87419000D01*
X144800000Y-87379000D02*
X148425000Y-87379000D01*
X150787000Y-87379000D02*
X154412000Y-87379000D01*
X144814000Y-87339000D02*
X148425000Y-87339000D01*
X150787000Y-87339000D02*
X154398000Y-87339000D01*
X144827000Y-87299000D02*
X148425000Y-87299000D01*
X150787000Y-87299000D02*
X154385000Y-87299000D01*
X144841000Y-87259000D02*
X148425000Y-87259000D01*
X150787000Y-87259000D02*
X154371000Y-87259000D01*
X144855000Y-87219000D02*
X148425000Y-87219000D01*
X150787000Y-87219000D02*
X154357000Y-87219000D01*
X144869000Y-87179000D02*
X148425000Y-87179000D01*
X150787000Y-87179000D02*
X154343000Y-87179000D01*
X144884000Y-87139000D02*
X148425000Y-87139000D01*
X150787000Y-87139000D02*
X154328000Y-87139000D01*
X144900000Y-87099000D02*
X148425000Y-87099000D01*
X150787000Y-87099000D02*
X154312000Y-87099000D01*
X144915000Y-87059000D02*
X148425000Y-87059000D01*
X150787000Y-87059000D02*
X154297000Y-87059000D01*
X144932000Y-87019000D02*
X148425000Y-87019000D01*
X150787000Y-87019000D02*
X154280000Y-87019000D01*
X144948000Y-86979000D02*
X148425000Y-86979000D01*
X150787000Y-86979000D02*
X154264000Y-86979000D01*
X144965000Y-86939000D02*
X148425000Y-86939000D01*
X150787000Y-86939000D02*
X154247000Y-86939000D01*
X144982000Y-86899000D02*
X148425000Y-86899000D01*
X150787000Y-86899000D02*
X154230000Y-86899000D01*
X145000000Y-86859000D02*
X148425000Y-86859000D01*
X150787000Y-86859000D02*
X154212000Y-86859000D01*
X145018000Y-86819000D02*
X148425000Y-86819000D01*
X150787000Y-86819000D02*
X154194000Y-86819000D01*
X145037000Y-86779000D02*
X148425000Y-86779000D01*
X150787000Y-86779000D02*
X154175000Y-86779000D01*
X145056000Y-86739000D02*
X148425000Y-86739000D01*
X150787000Y-86739000D02*
X154156000Y-86739000D01*
X145075000Y-86699000D02*
X148425000Y-86699000D01*
X150787000Y-86699000D02*
X154137000Y-86699000D01*
X145095000Y-86659000D02*
X148425000Y-86659000D01*
X150787000Y-86659000D02*
X154117000Y-86659000D01*
X145115000Y-86619000D02*
X148425000Y-86619000D01*
X150787000Y-86619000D02*
X154097000Y-86619000D01*
X145136000Y-86579000D02*
X148425000Y-86579000D01*
X150787000Y-86579000D02*
X154076000Y-86579000D01*
X145157000Y-86539000D02*
X148425000Y-86539000D01*
X150787000Y-86539000D02*
X154055000Y-86539000D01*
X145178000Y-86499000D02*
X148425000Y-86499000D01*
X150787000Y-86499000D02*
X154034000Y-86499000D01*
X145201000Y-86459000D02*
X148425000Y-86459000D01*
X150787000Y-86459000D02*
X154011000Y-86459000D01*
X145223000Y-86419000D02*
X148425000Y-86419000D01*
X150787000Y-86419000D02*
X153989000Y-86419000D01*
X145246000Y-86379000D02*
X148425000Y-86379000D01*
X150787000Y-86379000D02*
X153966000Y-86379000D01*
X145270000Y-86339000D02*
X148425000Y-86339000D01*
X150787000Y-86339000D02*
X153942000Y-86339000D01*
X145294000Y-86299000D02*
X148425000Y-86299000D01*
X150787000Y-86299000D02*
X153918000Y-86299000D01*
X145318000Y-86259000D02*
X148425000Y-86259000D01*
X150787000Y-86259000D02*
X153894000Y-86259000D01*
X145343000Y-86219000D02*
X148425000Y-86219000D01*
X150787000Y-86219000D02*
X153869000Y-86219000D01*
X145369000Y-86179000D02*
X148425000Y-86179000D01*
X150787000Y-86179000D02*
X153843000Y-86179000D01*
X145395000Y-86139000D02*
X148425000Y-86139000D01*
X150787000Y-86139000D02*
X153817000Y-86139000D01*
X145421000Y-86099000D02*
X148425000Y-86099000D01*
X150787000Y-86099000D02*
X153791000Y-86099000D01*
X145449000Y-86059000D02*
X148425000Y-86059000D01*
X150787000Y-86059000D02*
X153763000Y-86059000D01*
X145476000Y-86019000D02*
X148425000Y-86019000D01*
X150787000Y-86019000D02*
X153736000Y-86019000D01*
X145505000Y-85979000D02*
X148425000Y-85979000D01*
X150787000Y-85979000D02*
X153707000Y-85979000D01*
X145534000Y-85939000D02*
X148425000Y-85939000D01*
X150787000Y-85939000D02*
X153678000Y-85939000D01*
X145563000Y-85899000D02*
X148425000Y-85899000D01*
X150787000Y-85899000D02*
X153649000Y-85899000D01*
X145593000Y-85859000D02*
X148425000Y-85859000D01*
X150787000Y-85859000D02*
X153619000Y-85859000D01*
X145624000Y-85819000D02*
X148425000Y-85819000D01*
X150787000Y-85819000D02*
X153588000Y-85819000D01*
X145655000Y-85779000D02*
X148425000Y-85779000D01*
X150787000Y-85779000D02*
X153557000Y-85779000D01*
X145687000Y-85739000D02*
X148425000Y-85739000D01*
X150787000Y-85739000D02*
X153525000Y-85739000D01*
X145720000Y-85699000D02*
X148425000Y-85699000D01*
X150787000Y-85699000D02*
X153492000Y-85699000D01*
X145753000Y-85659000D02*
X148425000Y-85659000D01*
X150787000Y-85659000D02*
X153459000Y-85659000D01*
X145787000Y-85619000D02*
X148425000Y-85619000D01*
X150787000Y-85619000D02*
X153425000Y-85619000D01*
X145822000Y-85579000D02*
X148425000Y-85579000D01*
X150787000Y-85579000D02*
X153390000Y-85579000D01*
X145858000Y-85539000D02*
X148425000Y-85539000D01*
X150787000Y-85539000D02*
X153354000Y-85539000D01*
X145894000Y-85499000D02*
X148425000Y-85499000D01*
X150787000Y-85499000D02*
X153318000Y-85499000D01*
X145931000Y-85459000D02*
X148425000Y-85459000D01*
X150787000Y-85459000D02*
X153281000Y-85459000D01*
X145969000Y-85419000D02*
X148425000Y-85419000D01*
X150787000Y-85419000D02*
X153243000Y-85419000D01*
X146008000Y-85379000D02*
X148425000Y-85379000D01*
X150787000Y-85379000D02*
X153204000Y-85379000D01*
X146047000Y-85339000D02*
X148425000Y-85339000D01*
X150787000Y-85339000D02*
X153165000Y-85339000D01*
X146088000Y-85299000D02*
X148425000Y-85299000D01*
X150787000Y-85299000D02*
X153124000Y-85299000D01*
X146129000Y-85259000D02*
X153083000Y-85259000D01*
X146171000Y-85219000D02*
X153041000Y-85219000D01*
X146215000Y-85179000D02*
X152997000Y-85179000D01*
X146259000Y-85139000D02*
X152953000Y-85139000D01*
X146304000Y-85099000D02*
X152908000Y-85099000D01*
X146351000Y-85059000D02*
X152861000Y-85059000D01*
X146399000Y-85019000D02*
X152813000Y-85019000D01*
X146448000Y-84979000D02*
X152764000Y-84979000D01*
X146498000Y-84939000D02*
X152714000Y-84939000D01*
X146549000Y-84899000D02*
X152663000Y-84899000D01*
X146602000Y-84859000D02*
X152610000Y-84859000D01*
X146657000Y-84819000D02*
X152555000Y-84819000D01*
X146712000Y-84779000D02*
X152500000Y-84779000D01*
X146770000Y-84739000D02*
X152442000Y-84739000D01*
X146829000Y-84699000D02*
X152383000Y-84699000D01*
X146891000Y-84659000D02*
X152321000Y-84659000D01*
X146954000Y-84619000D02*
X152258000Y-84619000D01*
X147019000Y-84579000D02*
X152193000Y-84579000D01*
X147087000Y-84539000D02*
X152125000Y-84539000D01*
X147157000Y-84499000D02*
X152055000Y-84499000D01*
X147229000Y-84459000D02*
X151983000Y-84459000D01*
X147305000Y-84419000D02*
X151907000Y-84419000D01*
X147384000Y-84379000D02*
X151828000Y-84379000D01*
X147466000Y-84339000D02*
X151746000Y-84339000D01*
X147553000Y-84299000D02*
X151659000Y-84299000D01*
X147644000Y-84259000D02*
X151568000Y-84259000D01*
X147740000Y-84219000D02*
X151472000Y-84219000D01*
X147843000Y-84179000D02*
X151369000Y-84179000D01*
X147952000Y-84139000D02*
X151260000Y-84139000D01*
X148070000Y-84099000D02*
X151142000Y-84099000D01*
X148199000Y-84059000D02*
X151013000Y-84059000D01*
X148341000Y-84019000D02*
X150871000Y-84019000D01*
X148502000Y-83979000D02*
X150710000Y-83979000D01*
X148693000Y-83939000D02*
X150519000Y-83939000D01*
X148934000Y-83899000D02*
X150278000Y-83899000D01*
X149327000Y-83859000D02*
X149885000Y-83859000D01*
X149606000Y-94140000D02*
X149606000Y-92640000D01*
X148856000Y-93390000D02*
X150356000Y-93390000D01*
X141986000Y-99396000D02*
X141986000Y-101116000D01*
X142875000Y-99483333D02*
X141097000Y-99483333D01*
X141986000Y-99483333D02*
X142875000Y-100668667D01*
X142875000Y-100668667D02*
X141097000Y-100668667D01*
X141097000Y-100668667D02*
X141986000Y-99483333D01*
X143846000Y-97536000D02*
G75*
G03X143846000Y-97536000I-1860000J0D01*
G01*
X157706000Y-110954000D02*
X157706000Y-113074000D01*
X157706000Y-113074000D02*
X161826000Y-113074000D01*
X161826000Y-113074000D02*
X161826000Y-110954000D01*
X161826000Y-110954000D02*
X157706000Y-110954000D01*
X156936000Y-112014000D02*
X157706000Y-112014000D01*
X162596000Y-112014000D02*
X161826000Y-112014000D01*
X158366000Y-110954000D02*
X158366000Y-113074000D01*
X155476000Y-136826000D02*
X155476000Y-145626000D01*
X155476000Y-145626000D02*
X146276000Y-145626000D01*
X152776000Y-130926000D02*
X155476000Y-130926000D01*
X155476000Y-130926000D02*
X155476000Y-132826000D01*
X146276000Y-145626000D02*
X146276000Y-130926000D01*
X146276000Y-130926000D02*
X148876000Y-130926000D01*
X135170000Y-135950000D02*
X137830000Y-135950000D01*
X135170000Y-128270000D02*
X135170000Y-135950000D01*
X137830000Y-128270000D02*
X137830000Y-135950000D01*
X135170000Y-128270000D02*
X137830000Y-128270000D01*
X135170000Y-127000000D02*
X135170000Y-125670000D01*
X135170000Y-125670000D02*
X136500000Y-125670000D01*
X135170000Y-108490000D02*
X137830000Y-108490000D01*
X135170000Y-98270000D02*
X135170000Y-108490000D01*
X137830000Y-98270000D02*
X137830000Y-108490000D01*
X135170000Y-98270000D02*
X137830000Y-98270000D01*
X135170000Y-97000000D02*
X135170000Y-95670000D01*
X135170000Y-95670000D02*
X136500000Y-95670000D01*
X161368000Y-102362000D02*
G75*
G03X161368000Y-102362000I-7190000J0D01*
G01*
X146740000Y-111484000D02*
X146740000Y-115084000D01*
X146751522Y-111445522D02*
G75*
G02X151190000Y-113284000I1838478J-1838478D01*
G01*
X146751522Y-115122478D02*
G75*
G03X151190000Y-113284000I1838478J1838478D01*
G01*
X144352000Y-105624000D02*
X144352000Y-115864000D01*
X139711000Y-105624000D02*
X139711000Y-115864000D01*
X144352000Y-105624000D02*
X139711000Y-105624000D01*
X144352000Y-115864000D02*
X139711000Y-115864000D01*
X142842000Y-105624000D02*
X142842000Y-115864000D01*
X144352000Y-108894000D02*
X142842000Y-108894000D01*
X144352000Y-112595000D02*
X142842000Y-112595000D01*
X162678000Y-106922000D02*
X165998000Y-106922000D01*
X165998000Y-106922000D02*
X165998000Y-97802000D01*
X165998000Y-97802000D02*
X162678000Y-97802000D01*
X162678000Y-97802000D02*
X162678000Y-106922000D01*
X164338000Y-107732000D02*
X164338000Y-106922000D01*
X164338000Y-96992000D02*
X164338000Y-97802000D01*
X171998000Y-107788000D02*
X169378000Y-107788000D01*
X169378000Y-107788000D02*
X169378000Y-114208000D01*
X169378000Y-114208000D02*
X171998000Y-114208000D01*
X171998000Y-114208000D02*
X171998000Y-107788000D01*
X170688000Y-106898000D02*
X170688000Y-107788000D01*
X170688000Y-115098000D02*
X170688000Y-114208000D01*
X154472000Y-116932000D02*
X151852000Y-116932000D01*
X151852000Y-116932000D02*
X151852000Y-123352000D01*
X151852000Y-123352000D02*
X154472000Y-123352000D01*
X154472000Y-123352000D02*
X154472000Y-116932000D01*
X153162000Y-116042000D02*
X153162000Y-116932000D01*
X153162000Y-124242000D02*
X153162000Y-123352000D01*
X164500000Y-92496000D02*
X164500000Y-89876000D01*
X164500000Y-89876000D02*
X158080000Y-89876000D01*
X158080000Y-89876000D02*
X158080000Y-92496000D01*
X158080000Y-92496000D02*
X164500000Y-92496000D01*
X165390000Y-91186000D02*
X164500000Y-91186000D01*
X157190000Y-91186000D02*
X158080000Y-91186000D01*
D12*
X167950000Y-92708000D02*
X167950000Y-86108000D01*
X167950000Y-86108000D02*
X174950000Y-86108000D01*
X174950000Y-86108000D02*
X174950000Y-92708000D01*
X174950000Y-92708000D02*
X167950000Y-92708000D01*
D11*
X158080000Y-86066000D02*
X158080000Y-88686000D01*
X158080000Y-88686000D02*
X164500000Y-88686000D01*
X164500000Y-88686000D02*
X164500000Y-86066000D01*
X164500000Y-86066000D02*
X158080000Y-86066000D01*
X157190000Y-87376000D02*
X158080000Y-87376000D01*
X165390000Y-87376000D02*
X164500000Y-87376000D01*
X179094000Y-105242000D02*
X174474000Y-105242000D01*
X174474000Y-105242000D02*
X174474000Y-117262000D01*
X174474000Y-117262000D02*
X179094000Y-117262000D01*
X179094000Y-117262000D02*
X179094000Y-105242000D01*
X176784000Y-105012000D02*
X176784000Y-105242000D01*
X176784000Y-117492000D02*
X176784000Y-117262000D01*
X161528000Y-115002000D02*
G75*
G02X159528000Y-115002000I-1000000J0D01*
G01*
X159528000Y-115002000D02*
X157878000Y-115002000D01*
X157878000Y-115002000D02*
X157878000Y-125282000D01*
X157878000Y-125282000D02*
X163178000Y-125282000D01*
X163178000Y-125282000D02*
X163178000Y-115002000D01*
X163178000Y-115002000D02*
X161528000Y-115002000D01*
X144352000Y-119086000D02*
X144352000Y-129326000D01*
X139711000Y-119086000D02*
X139711000Y-129326000D01*
X144352000Y-119086000D02*
X139711000Y-119086000D01*
X144352000Y-129326000D02*
X139711000Y-129326000D01*
X142842000Y-119086000D02*
X142842000Y-129326000D01*
X144352000Y-122356000D02*
X142842000Y-122356000D01*
X144352000Y-126057000D02*
X142842000Y-126057000D01*
X164247136Y-135839820D02*
G75*
G03X164248000Y-129804518I-1179136J3017820D01*
G01*
X161888864Y-135839820D02*
G75*
G02X161888000Y-129804518I1179136J3017820D01*
G01*
X161888864Y-135839820D02*
G75*
G03X164248000Y-135839482I1179136J3017820D01*
G01*
X166268000Y-132822000D02*
X159868000Y-132822000D01*
X166268000Y-132862000D02*
X159868000Y-132862000D01*
X166268000Y-132902000D02*
X159868000Y-132902000D01*
X166266000Y-132942000D02*
X159870000Y-132942000D01*
X166265000Y-132982000D02*
X159871000Y-132982000D01*
X166262000Y-133022000D02*
X159874000Y-133022000D01*
X166260000Y-133062000D02*
X159876000Y-133062000D01*
X166256000Y-133102000D02*
X164048000Y-133102000D01*
X162088000Y-133102000D02*
X159880000Y-133102000D01*
X166253000Y-133142000D02*
X164048000Y-133142000D01*
X162088000Y-133142000D02*
X159883000Y-133142000D01*
X166248000Y-133182000D02*
X164048000Y-133182000D01*
X162088000Y-133182000D02*
X159888000Y-133182000D01*
X166244000Y-133222000D02*
X164048000Y-133222000D01*
X162088000Y-133222000D02*
X159892000Y-133222000D01*
X166238000Y-133262000D02*
X164048000Y-133262000D01*
X162088000Y-133262000D02*
X159898000Y-133262000D01*
X166233000Y-133302000D02*
X164048000Y-133302000D01*
X162088000Y-133302000D02*
X159903000Y-133302000D01*
X166226000Y-133342000D02*
X164048000Y-133342000D01*
X162088000Y-133342000D02*
X159910000Y-133342000D01*
X166220000Y-133382000D02*
X164048000Y-133382000D01*
X162088000Y-133382000D02*
X159916000Y-133382000D01*
X166212000Y-133422000D02*
X164048000Y-133422000D01*
X162088000Y-133422000D02*
X159924000Y-133422000D01*
X166205000Y-133462000D02*
X164048000Y-133462000D01*
X162088000Y-133462000D02*
X159931000Y-133462000D01*
X166196000Y-133502000D02*
X164048000Y-133502000D01*
X162088000Y-133502000D02*
X159940000Y-133502000D01*
X166187000Y-133543000D02*
X164048000Y-133543000D01*
X162088000Y-133543000D02*
X159949000Y-133543000D01*
X166178000Y-133583000D02*
X164048000Y-133583000D01*
X162088000Y-133583000D02*
X159958000Y-133583000D01*
X166168000Y-133623000D02*
X164048000Y-133623000D01*
X162088000Y-133623000D02*
X159968000Y-133623000D01*
X166158000Y-133663000D02*
X164048000Y-133663000D01*
X162088000Y-133663000D02*
X159978000Y-133663000D01*
X166147000Y-133703000D02*
X164048000Y-133703000D01*
X162088000Y-133703000D02*
X159989000Y-133703000D01*
X166135000Y-133743000D02*
X164048000Y-133743000D01*
X162088000Y-133743000D02*
X160001000Y-133743000D01*
X166123000Y-133783000D02*
X164048000Y-133783000D01*
X162088000Y-133783000D02*
X160013000Y-133783000D01*
X166110000Y-133823000D02*
X164048000Y-133823000D01*
X162088000Y-133823000D02*
X160026000Y-133823000D01*
X166097000Y-133863000D02*
X164048000Y-133863000D01*
X162088000Y-133863000D02*
X160039000Y-133863000D01*
X166083000Y-133903000D02*
X164048000Y-133903000D01*
X162088000Y-133903000D02*
X160053000Y-133903000D01*
X166069000Y-133943000D02*
X164048000Y-133943000D01*
X162088000Y-133943000D02*
X160067000Y-133943000D01*
X166054000Y-133983000D02*
X164048000Y-133983000D01*
X162088000Y-133983000D02*
X160082000Y-133983000D01*
X166038000Y-134023000D02*
X164048000Y-134023000D01*
X162088000Y-134023000D02*
X160098000Y-134023000D01*
X166022000Y-134063000D02*
X164048000Y-134063000D01*
X162088000Y-134063000D02*
X160114000Y-134063000D01*
X166005000Y-134103000D02*
X164048000Y-134103000D01*
X162088000Y-134103000D02*
X160131000Y-134103000D01*
X165987000Y-134143000D02*
X164048000Y-134143000D01*
X162088000Y-134143000D02*
X160149000Y-134143000D01*
X165969000Y-134183000D02*
X164048000Y-134183000D01*
X162088000Y-134183000D02*
X160167000Y-134183000D01*
X165950000Y-134223000D02*
X164048000Y-134223000D01*
X162088000Y-134223000D02*
X160186000Y-134223000D01*
X165931000Y-134263000D02*
X164048000Y-134263000D01*
X162088000Y-134263000D02*
X160205000Y-134263000D01*
X165911000Y-134303000D02*
X164048000Y-134303000D01*
X162088000Y-134303000D02*
X160225000Y-134303000D01*
X165890000Y-134343000D02*
X164048000Y-134343000D01*
X162088000Y-134343000D02*
X160246000Y-134343000D01*
X165868000Y-134383000D02*
X164048000Y-134383000D01*
X162088000Y-134383000D02*
X160268000Y-134383000D01*
X165846000Y-134423000D02*
X164048000Y-134423000D01*
X162088000Y-134423000D02*
X160290000Y-134423000D01*
X165823000Y-134463000D02*
X164048000Y-134463000D01*
X162088000Y-134463000D02*
X160313000Y-134463000D01*
X165799000Y-134503000D02*
X164048000Y-134503000D01*
X162088000Y-134503000D02*
X160337000Y-134503000D01*
X165774000Y-134543000D02*
X164048000Y-134543000D01*
X162088000Y-134543000D02*
X160362000Y-134543000D01*
X165749000Y-134583000D02*
X164048000Y-134583000D01*
X162088000Y-134583000D02*
X160387000Y-134583000D01*
X165722000Y-134623000D02*
X164048000Y-134623000D01*
X162088000Y-134623000D02*
X160414000Y-134623000D01*
X165695000Y-134663000D02*
X164048000Y-134663000D01*
X162088000Y-134663000D02*
X160441000Y-134663000D01*
X165667000Y-134703000D02*
X164048000Y-134703000D01*
X162088000Y-134703000D02*
X160469000Y-134703000D01*
X165638000Y-134743000D02*
X164048000Y-134743000D01*
X162088000Y-134743000D02*
X160498000Y-134743000D01*
X165608000Y-134783000D02*
X164048000Y-134783000D01*
X162088000Y-134783000D02*
X160528000Y-134783000D01*
X165578000Y-134823000D02*
X164048000Y-134823000D01*
X162088000Y-134823000D02*
X160558000Y-134823000D01*
X165546000Y-134863000D02*
X164048000Y-134863000D01*
X162088000Y-134863000D02*
X160590000Y-134863000D01*
X165513000Y-134903000D02*
X164048000Y-134903000D01*
X162088000Y-134903000D02*
X160623000Y-134903000D01*
X165479000Y-134943000D02*
X164048000Y-134943000D01*
X162088000Y-134943000D02*
X160657000Y-134943000D01*
X165443000Y-134983000D02*
X164048000Y-134983000D01*
X162088000Y-134983000D02*
X160693000Y-134983000D01*
X165407000Y-135023000D02*
X164048000Y-135023000D01*
X162088000Y-135023000D02*
X160729000Y-135023000D01*
X165369000Y-135063000D02*
X160767000Y-135063000D01*
X165330000Y-135103000D02*
X160806000Y-135103000D01*
X165290000Y-135143000D02*
X160846000Y-135143000D01*
X165248000Y-135183000D02*
X160888000Y-135183000D01*
X165205000Y-135223000D02*
X160931000Y-135223000D01*
X165160000Y-135263000D02*
X160976000Y-135263000D01*
X165113000Y-135303000D02*
X161023000Y-135303000D01*
X165065000Y-135343000D02*
X161071000Y-135343000D01*
X165014000Y-135383000D02*
X161122000Y-135383000D01*
X164962000Y-135423000D02*
X161174000Y-135423000D01*
X164907000Y-135463000D02*
X161229000Y-135463000D01*
X164849000Y-135503000D02*
X161287000Y-135503000D01*
X164789000Y-135543000D02*
X161347000Y-135543000D01*
X164726000Y-135583000D02*
X161410000Y-135583000D01*
X164659000Y-135623000D02*
X161477000Y-135623000D01*
X164588000Y-135663000D02*
X161548000Y-135663000D01*
X164513000Y-135703000D02*
X161623000Y-135703000D01*
X164432000Y-135743000D02*
X161704000Y-135743000D01*
X164346000Y-135783000D02*
X161790000Y-135783000D01*
X164252000Y-135823000D02*
X161884000Y-135823000D01*
X164149000Y-135863000D02*
X161987000Y-135863000D01*
X164034000Y-135903000D02*
X162102000Y-135903000D01*
X163902000Y-135943000D02*
X162234000Y-135943000D01*
X163744000Y-135983000D02*
X162392000Y-135983000D01*
X163536000Y-136023000D02*
X162600000Y-136023000D01*
X163068000Y-129372000D02*
X163068000Y-130572000D01*
X163718000Y-129972000D02*
X162418000Y-129972000D01*
D12*
X167743143Y-124118666D02*
X167790762Y-124166285D01*
X167838381Y-124309142D01*
X167838381Y-124404380D01*
X167790762Y-124547238D01*
X167695524Y-124642476D01*
X167600286Y-124690095D01*
X167409810Y-124737714D01*
X167266952Y-124737714D01*
X167076476Y-124690095D01*
X166981238Y-124642476D01*
X166886000Y-124547238D01*
X166838381Y-124404380D01*
X166838381Y-124309142D01*
X166886000Y-124166285D01*
X166933619Y-124118666D01*
X166933619Y-123737714D02*
X166886000Y-123690095D01*
X166838381Y-123594857D01*
X166838381Y-123356761D01*
X166886000Y-123261523D01*
X166933619Y-123213904D01*
X167028857Y-123166285D01*
X167124095Y-123166285D01*
X167266952Y-123213904D01*
X167838381Y-123785333D01*
X167838381Y-123166285D01*
X147677143Y-122848666D02*
X147724762Y-122896285D01*
X147772381Y-123039142D01*
X147772381Y-123134380D01*
X147724762Y-123277238D01*
X147629524Y-123372476D01*
X147534286Y-123420095D01*
X147343810Y-123467714D01*
X147200952Y-123467714D01*
X147010476Y-123420095D01*
X146915238Y-123372476D01*
X146820000Y-123277238D01*
X146772381Y-123134380D01*
X146772381Y-123039142D01*
X146820000Y-122896285D01*
X146867619Y-122848666D01*
X146772381Y-122515333D02*
X146772381Y-121896285D01*
X147153333Y-122229619D01*
X147153333Y-122086761D01*
X147200952Y-121991523D01*
X147248571Y-121943904D01*
X147343810Y-121896285D01*
X147581905Y-121896285D01*
X147677143Y-121943904D01*
X147724762Y-121991523D01*
X147772381Y-122086761D01*
X147772381Y-122372476D01*
X147724762Y-122467714D01*
X147677143Y-122515333D01*
X176145143Y-124098666D02*
X176192762Y-124146285D01*
X176240381Y-124289142D01*
X176240381Y-124384380D01*
X176192762Y-124527238D01*
X176097524Y-124622476D01*
X176002286Y-124670095D01*
X175811810Y-124717714D01*
X175668952Y-124717714D01*
X175478476Y-124670095D01*
X175383238Y-124622476D01*
X175288000Y-124527238D01*
X175240381Y-124384380D01*
X175240381Y-124289142D01*
X175288000Y-124146285D01*
X175335619Y-124098666D01*
X175573714Y-123241523D02*
X176240381Y-123241523D01*
X175192762Y-123479619D02*
X175907048Y-123717714D01*
X175907048Y-123098666D01*
X143653143Y-89106666D02*
X143700762Y-89154285D01*
X143748381Y-89297142D01*
X143748381Y-89392380D01*
X143700762Y-89535238D01*
X143605524Y-89630476D01*
X143510286Y-89678095D01*
X143319810Y-89725714D01*
X143176952Y-89725714D01*
X142986476Y-89678095D01*
X142891238Y-89630476D01*
X142796000Y-89535238D01*
X142748381Y-89392380D01*
X142748381Y-89297142D01*
X142796000Y-89154285D01*
X142843619Y-89106666D01*
X142748381Y-88201904D02*
X142748381Y-88678095D01*
X143224571Y-88725714D01*
X143176952Y-88678095D01*
X143129333Y-88582857D01*
X143129333Y-88344761D01*
X143176952Y-88249523D01*
X143224571Y-88201904D01*
X143319810Y-88154285D01*
X143557905Y-88154285D01*
X143653143Y-88201904D01*
X143700762Y-88249523D01*
X143748381Y-88344761D01*
X143748381Y-88582857D01*
X143700762Y-88678095D01*
X143653143Y-88725714D01*
X145298381Y-100814095D02*
X144298381Y-100814095D01*
X144298381Y-100576000D01*
X144346000Y-100433142D01*
X144441238Y-100337904D01*
X144536476Y-100290285D01*
X144726952Y-100242666D01*
X144869810Y-100242666D01*
X145060286Y-100290285D01*
X145155524Y-100337904D01*
X145250762Y-100433142D01*
X145298381Y-100576000D01*
X145298381Y-100814095D01*
X145298381Y-99290285D02*
X145298381Y-99861714D01*
X145298381Y-99576000D02*
X144298381Y-99576000D01*
X144441238Y-99671238D01*
X144536476Y-99766476D01*
X144584095Y-99861714D01*
X153185905Y-112466381D02*
X153185905Y-111466381D01*
X153424000Y-111466381D01*
X153566858Y-111514000D01*
X153662096Y-111609238D01*
X153709715Y-111704476D01*
X153757334Y-111894952D01*
X153757334Y-112037810D01*
X153709715Y-112228286D01*
X153662096Y-112323524D01*
X153566858Y-112418762D01*
X153424000Y-112466381D01*
X153185905Y-112466381D01*
X154138286Y-111561619D02*
X154185905Y-111514000D01*
X154281143Y-111466381D01*
X154519239Y-111466381D01*
X154614477Y-111514000D01*
X154662096Y-111561619D01*
X154709715Y-111656857D01*
X154709715Y-111752095D01*
X154662096Y-111894952D01*
X154090667Y-112466381D01*
X154709715Y-112466381D01*
X156078381Y-140609333D02*
X156792667Y-140609333D01*
X156935524Y-140656953D01*
X157030762Y-140752191D01*
X157078381Y-140895048D01*
X157078381Y-140990286D01*
X157078381Y-139609333D02*
X157078381Y-140180762D01*
X157078381Y-139895048D02*
X156078381Y-139895048D01*
X156221238Y-139990286D01*
X156316476Y-140085524D01*
X156364095Y-140180762D01*
X136166667Y-124122381D02*
X136166667Y-124836667D01*
X136119047Y-124979524D01*
X136023809Y-125074762D01*
X135880952Y-125122381D01*
X135785714Y-125122381D01*
X136595238Y-124217619D02*
X136642857Y-124170000D01*
X136738095Y-124122381D01*
X136976191Y-124122381D01*
X137071429Y-124170000D01*
X137119048Y-124217619D01*
X137166667Y-124312857D01*
X137166667Y-124408095D01*
X137119048Y-124550952D01*
X136547619Y-125122381D01*
X137166667Y-125122381D01*
X136166667Y-94122381D02*
X136166667Y-94836667D01*
X136119047Y-94979524D01*
X136023809Y-95074762D01*
X135880952Y-95122381D01*
X135785714Y-95122381D01*
X136547619Y-94122381D02*
X137166667Y-94122381D01*
X136833333Y-94503333D01*
X136976191Y-94503333D01*
X137071429Y-94550952D01*
X137119048Y-94598571D01*
X137166667Y-94693810D01*
X137166667Y-94931905D01*
X137119048Y-95027143D01*
X137071429Y-95074762D01*
X136976191Y-95122381D01*
X136690476Y-95122381D01*
X136595238Y-95074762D01*
X136547619Y-95027143D01*
X147915334Y-96972381D02*
X147439143Y-96972381D01*
X147439143Y-95972381D01*
X148772477Y-96972381D02*
X148201048Y-96972381D01*
X148486762Y-96972381D02*
X148486762Y-95972381D01*
X148391524Y-96115238D01*
X148296286Y-96210476D01*
X148201048Y-96258095D01*
X152697619Y-113379238D02*
X152650000Y-113474476D01*
X152554762Y-113569714D01*
X152411905Y-113712571D01*
X152364286Y-113807810D01*
X152364286Y-113903048D01*
X152602381Y-113855429D02*
X152554762Y-113950667D01*
X152459524Y-114045905D01*
X152269048Y-114093524D01*
X151935714Y-114093524D01*
X151745238Y-114045905D01*
X151650000Y-113950667D01*
X151602381Y-113855429D01*
X151602381Y-113664952D01*
X151650000Y-113569714D01*
X151745238Y-113474476D01*
X151935714Y-113426857D01*
X152269048Y-113426857D01*
X152459524Y-113474476D01*
X152554762Y-113569714D01*
X152602381Y-113664952D01*
X152602381Y-113855429D01*
X152602381Y-112474476D02*
X152602381Y-113045905D01*
X152602381Y-112760191D02*
X151602381Y-112760191D01*
X151745238Y-112855429D01*
X151840476Y-112950667D01*
X151888095Y-113045905D01*
X145899619Y-110839238D02*
X145852000Y-110934476D01*
X145756762Y-111029714D01*
X145613905Y-111172571D01*
X145566286Y-111267810D01*
X145566286Y-111363048D01*
X145804381Y-111315429D02*
X145756762Y-111410667D01*
X145661524Y-111505905D01*
X145471048Y-111553524D01*
X145137714Y-111553524D01*
X144947238Y-111505905D01*
X144852000Y-111410667D01*
X144804381Y-111315429D01*
X144804381Y-111124952D01*
X144852000Y-111029714D01*
X144947238Y-110934476D01*
X145137714Y-110886857D01*
X145471048Y-110886857D01*
X145661524Y-110934476D01*
X145756762Y-111029714D01*
X145804381Y-111124952D01*
X145804381Y-111315429D01*
X144899619Y-110505905D02*
X144852000Y-110458286D01*
X144804381Y-110363048D01*
X144804381Y-110124952D01*
X144852000Y-110029714D01*
X144899619Y-109982095D01*
X144994857Y-109934476D01*
X145090095Y-109934476D01*
X145232952Y-109982095D01*
X145804381Y-110553524D01*
X145804381Y-109934476D01*
X167584381Y-99734666D02*
X167108190Y-100068000D01*
X167584381Y-100306095D02*
X166584381Y-100306095D01*
X166584381Y-99925142D01*
X166632000Y-99829904D01*
X166679619Y-99782285D01*
X166774857Y-99734666D01*
X166917714Y-99734666D01*
X167012952Y-99782285D01*
X167060571Y-99829904D01*
X167108190Y-99925142D01*
X167108190Y-100306095D01*
X167584381Y-98782285D02*
X167584381Y-99353714D01*
X167584381Y-99068000D02*
X166584381Y-99068000D01*
X166727238Y-99163238D01*
X166822476Y-99258476D01*
X166870095Y-99353714D01*
X173450381Y-111164666D02*
X172974190Y-111498000D01*
X173450381Y-111736095D02*
X172450381Y-111736095D01*
X172450381Y-111355142D01*
X172498000Y-111259904D01*
X172545619Y-111212285D01*
X172640857Y-111164666D01*
X172783714Y-111164666D01*
X172878952Y-111212285D01*
X172926571Y-111259904D01*
X172974190Y-111355142D01*
X172974190Y-111736095D01*
X172545619Y-110783714D02*
X172498000Y-110736095D01*
X172450381Y-110640857D01*
X172450381Y-110402761D01*
X172498000Y-110307523D01*
X172545619Y-110259904D01*
X172640857Y-110212285D01*
X172736095Y-110212285D01*
X172878952Y-110259904D01*
X173450381Y-110831333D01*
X173450381Y-110212285D01*
X151328381Y-118276666D02*
X150852190Y-118610000D01*
X151328381Y-118848095D02*
X150328381Y-118848095D01*
X150328381Y-118467142D01*
X150376000Y-118371904D01*
X150423619Y-118324285D01*
X150518857Y-118276666D01*
X150661714Y-118276666D01*
X150756952Y-118324285D01*
X150804571Y-118371904D01*
X150852190Y-118467142D01*
X150852190Y-118848095D01*
X150328381Y-117943333D02*
X150328381Y-117324285D01*
X150709333Y-117657619D01*
X150709333Y-117514761D01*
X150756952Y-117419523D01*
X150804571Y-117371904D01*
X150899810Y-117324285D01*
X151137905Y-117324285D01*
X151233143Y-117371904D01*
X151280762Y-117419523D01*
X151328381Y-117514761D01*
X151328381Y-117800476D01*
X151280762Y-117895714D01*
X151233143Y-117943333D01*
X161123334Y-93948381D02*
X160790000Y-93472190D01*
X160551905Y-93948381D02*
X160551905Y-92948381D01*
X160932858Y-92948381D01*
X161028096Y-92996000D01*
X161075715Y-93043619D01*
X161123334Y-93138857D01*
X161123334Y-93281714D01*
X161075715Y-93376952D01*
X161028096Y-93424571D01*
X160932858Y-93472190D01*
X160551905Y-93472190D01*
X161980477Y-93281714D02*
X161980477Y-93948381D01*
X161742381Y-92900762D02*
X161504286Y-93615048D01*
X162123334Y-93615048D01*
X176502381Y-89174666D02*
X176026190Y-89508000D01*
X176502381Y-89746095D02*
X175502381Y-89746095D01*
X175502381Y-89365142D01*
X175550000Y-89269904D01*
X175597619Y-89222285D01*
X175692857Y-89174666D01*
X175835714Y-89174666D01*
X175930952Y-89222285D01*
X175978571Y-89269904D01*
X176026190Y-89365142D01*
X176026190Y-89746095D01*
X175502381Y-88269904D02*
X175502381Y-88746095D01*
X175978571Y-88793714D01*
X175930952Y-88746095D01*
X175883333Y-88650857D01*
X175883333Y-88412761D01*
X175930952Y-88317523D01*
X175978571Y-88269904D01*
X176073810Y-88222285D01*
X176311905Y-88222285D01*
X176407143Y-88269904D01*
X176454762Y-88317523D01*
X176502381Y-88412761D01*
X176502381Y-88650857D01*
X176454762Y-88746095D01*
X176407143Y-88793714D01*
X161123334Y-85518381D02*
X160790000Y-85042190D01*
X160551905Y-85518381D02*
X160551905Y-84518381D01*
X160932858Y-84518381D01*
X161028096Y-84566000D01*
X161075715Y-84613619D01*
X161123334Y-84708857D01*
X161123334Y-84851714D01*
X161075715Y-84946952D01*
X161028096Y-84994571D01*
X160932858Y-85042190D01*
X160551905Y-85042190D01*
X161980477Y-84518381D02*
X161790000Y-84518381D01*
X161694762Y-84566000D01*
X161647143Y-84613619D01*
X161551905Y-84756476D01*
X161504286Y-84946952D01*
X161504286Y-85327905D01*
X161551905Y-85423143D01*
X161599524Y-85470762D01*
X161694762Y-85518381D01*
X161885239Y-85518381D01*
X161980477Y-85470762D01*
X162028096Y-85423143D01*
X162075715Y-85327905D01*
X162075715Y-85089810D01*
X162028096Y-84994571D01*
X161980477Y-84946952D01*
X161885239Y-84899333D01*
X161694762Y-84899333D01*
X161599524Y-84946952D01*
X161551905Y-84994571D01*
X161504286Y-85089810D01*
X180546381Y-111418666D02*
X180070190Y-111752000D01*
X180546381Y-111990095D02*
X179546381Y-111990095D01*
X179546381Y-111609142D01*
X179594000Y-111513904D01*
X179641619Y-111466285D01*
X179736857Y-111418666D01*
X179879714Y-111418666D01*
X179974952Y-111466285D01*
X180022571Y-111513904D01*
X180070190Y-111609142D01*
X180070190Y-111990095D01*
X179546381Y-111085333D02*
X179546381Y-110418666D01*
X180546381Y-110847238D01*
X159766095Y-113454381D02*
X159766095Y-114263905D01*
X159813714Y-114359143D01*
X159861333Y-114406762D01*
X159956571Y-114454381D01*
X160147048Y-114454381D01*
X160242286Y-114406762D01*
X160289905Y-114359143D01*
X160337524Y-114263905D01*
X160337524Y-113454381D01*
X161337524Y-114454381D02*
X160766095Y-114454381D01*
X161051809Y-114454381D02*
X161051809Y-113454381D01*
X160956571Y-113597238D01*
X160861333Y-113692476D01*
X160766095Y-113740095D01*
X144740381Y-124967905D02*
X145549905Y-124967905D01*
X145645143Y-124920286D01*
X145692762Y-124872667D01*
X145740381Y-124777429D01*
X145740381Y-124586952D01*
X145692762Y-124491714D01*
X145645143Y-124444095D01*
X145549905Y-124396476D01*
X144740381Y-124396476D01*
X144835619Y-123967905D02*
X144788000Y-123920286D01*
X144740381Y-123825048D01*
X144740381Y-123586952D01*
X144788000Y-123491714D01*
X144835619Y-123444095D01*
X144930857Y-123396476D01*
X145026095Y-123396476D01*
X145168952Y-123444095D01*
X145740381Y-124015524D01*
X145740381Y-123396476D01*
X167885143Y-132988666D02*
X167932762Y-133036285D01*
X167980381Y-133179142D01*
X167980381Y-133274380D01*
X167932762Y-133417238D01*
X167837524Y-133512476D01*
X167742286Y-133560095D01*
X167551810Y-133607714D01*
X167408952Y-133607714D01*
X167218476Y-133560095D01*
X167123238Y-133512476D01*
X167028000Y-133417238D01*
X166980381Y-133274380D01*
X166980381Y-133179142D01*
X167028000Y-133036285D01*
X167075619Y-132988666D01*
X167980381Y-132036285D02*
X167980381Y-132607714D01*
X167980381Y-132322000D02*
X166980381Y-132322000D01*
X167123238Y-132417238D01*
X167218476Y-132512476D01*
X167266095Y-132607714D01*
M02*
