G04 #@! TF.FileFunction,Copper,L1,Top,Signal*
%FSLAX46Y46*%
G04 Gerber Fmt 4.6, Leading zero omitted, Abs format (unit mm)*
G04 Created by KiCad (PCBNEW 4.0.7) date 10/23/17 00:19:34*
%MOMM*%
%LPD*%
G01*
G04 APERTURE LIST*
%ADD10C,0.100000*%
%ADD11C,1.600000*%
%ADD12R,2.000000X2.000000*%
%ADD13C,2.000000*%
%ADD14R,2.400000X2.400000*%
%ADD15O,2.400000X2.400000*%
%ADD16R,1.600000X1.600000*%
%ADD17O,1.600000X1.600000*%
%ADD18R,3.500000X3.500000*%
%ADD19R,1.700000X1.700000*%
%ADD20O,1.700000X1.700000*%
%ADD21C,2.400000*%
%ADD22O,1.500000X0.900000*%
%ADD23R,1.500000X0.900000*%
%ADD24R,1.800000X1.800000*%
%ADD25O,1.800000X1.800000*%
%ADD26C,1.524000*%
%ADD27C,2.000000*%
%ADD28C,1.000000*%
%ADD29C,0.254000*%
G04 APERTURE END LIST*
D10*
D11*
X169672000Y-122682000D03*
X169672000Y-125182000D03*
X149606000Y-120396000D03*
X149606000Y-125396000D03*
X173228000Y-122682000D03*
X173228000Y-125182000D03*
D12*
X149606000Y-91440000D03*
D13*
X149606000Y-86440000D03*
D14*
X141986000Y-97536000D03*
D15*
X141986000Y-102616000D03*
D16*
X155956000Y-112014000D03*
D17*
X163576000Y-112014000D03*
D18*
X150876000Y-131826000D03*
X150876000Y-137826000D03*
X155576000Y-134826000D03*
D19*
X136500000Y-127000000D03*
D20*
X136500000Y-129540000D03*
X136500000Y-132080000D03*
X136500000Y-134620000D03*
D19*
X136500000Y-97000000D03*
D20*
X136500000Y-99540000D03*
X136500000Y-102080000D03*
X136500000Y-104620000D03*
X136500000Y-107160000D03*
D21*
X157678000Y-102362000D03*
X150678000Y-102362000D03*
D22*
X148590000Y-113284000D03*
X148590000Y-114554000D03*
D23*
X148590000Y-112014000D03*
D24*
X141732000Y-108204000D03*
D25*
X141732000Y-110744000D03*
X141732000Y-113284000D03*
D11*
X164338000Y-108712000D03*
D17*
X164338000Y-96012000D03*
D11*
X170688000Y-105918000D03*
D17*
X170688000Y-116078000D03*
D11*
X153162000Y-115062000D03*
D17*
X153162000Y-125222000D03*
D11*
X166370000Y-91186000D03*
D17*
X156210000Y-91186000D03*
D26*
X173990000Y-89408000D03*
X171450000Y-86868000D03*
X171450000Y-91948000D03*
D11*
X156210000Y-87376000D03*
D17*
X166370000Y-87376000D03*
D21*
X176784000Y-103632000D03*
D15*
X176784000Y-118872000D03*
D16*
X156718000Y-116332000D03*
D17*
X164338000Y-123952000D03*
X156718000Y-118872000D03*
X164338000Y-121412000D03*
X156718000Y-121412000D03*
X164338000Y-118872000D03*
X156718000Y-123952000D03*
X164338000Y-116332000D03*
D24*
X141732000Y-121666000D03*
D25*
X141732000Y-124206000D03*
X141732000Y-126746000D03*
D16*
X163068000Y-131572000D03*
D11*
X163068000Y-134072000D03*
D26*
X145288000Y-96012000D03*
X147828000Y-96012000D03*
X145288000Y-98552000D03*
X146812000Y-86360000D03*
X146812000Y-88900000D03*
X149860000Y-83820000D03*
X152908000Y-84836000D03*
X150368000Y-96012000D03*
X147828000Y-98552000D03*
X150368000Y-98552000D03*
X155956000Y-96012000D03*
X155956000Y-98552000D03*
X148336000Y-128016000D03*
X151384000Y-128016000D03*
D27*
X176784000Y-118872000D02*
X171450000Y-118872000D01*
X169672000Y-120650000D02*
X169672000Y-122682000D01*
X171450000Y-118872000D02*
X169672000Y-120650000D01*
X169672000Y-122682000D02*
X167894000Y-122682000D01*
X166624000Y-121412000D02*
X164338000Y-121412000D01*
X167894000Y-122682000D02*
X166624000Y-121412000D01*
X164338000Y-121412000D02*
X162814000Y-121412000D01*
X161798000Y-130302000D02*
X163068000Y-131572000D01*
X161798000Y-122428000D02*
X161798000Y-130302000D01*
X162814000Y-121412000D02*
X161798000Y-122428000D01*
X163068000Y-131572000D02*
X158750000Y-131572000D01*
X158242000Y-131064000D02*
X151638000Y-131064000D01*
X158750000Y-131572000D02*
X158242000Y-131064000D01*
X151638000Y-131064000D02*
X150876000Y-131826000D01*
X150876000Y-131826000D02*
X147828000Y-131826000D01*
X143764000Y-121666000D02*
X141732000Y-121666000D01*
X145034000Y-122936000D02*
X143764000Y-121666000D01*
X145034000Y-129032000D02*
X145034000Y-122936000D01*
X147828000Y-131826000D02*
X145034000Y-129032000D01*
D28*
X170688000Y-105918000D02*
X170688000Y-103124000D01*
X157988000Y-87376000D02*
X156210000Y-87376000D01*
X159258000Y-88646000D02*
X157988000Y-87376000D01*
X159258000Y-96012000D02*
X159258000Y-88646000D01*
X162306000Y-99060000D02*
X159258000Y-96012000D01*
X166624000Y-99060000D02*
X162306000Y-99060000D01*
X170688000Y-103124000D02*
X166624000Y-99060000D01*
D27*
X156210000Y-87376000D02*
X150542000Y-87376000D01*
X150542000Y-87376000D02*
X149606000Y-86440000D01*
X173228000Y-125182000D02*
X169672000Y-125182000D01*
X163068000Y-134072000D02*
X156330000Y-134072000D01*
X156330000Y-134072000D02*
X152576000Y-137826000D01*
X152576000Y-137826000D02*
X150876000Y-137826000D01*
X156718000Y-121412000D02*
X150622000Y-121412000D01*
X150622000Y-121412000D02*
X149606000Y-120396000D01*
X173990000Y-89408000D02*
X173990000Y-109220000D01*
X177754002Y-122981998D02*
X173228000Y-122981998D01*
X179578000Y-121158000D02*
X177754002Y-122981998D01*
X179578000Y-114808000D02*
X179578000Y-121158000D01*
X173990000Y-109220000D02*
X179578000Y-114808000D01*
X173228000Y-122981998D02*
X173228000Y-122682000D01*
X136500000Y-97000000D02*
X136500000Y-99540000D01*
X141986000Y-97536000D02*
X141224000Y-97536000D01*
X141224000Y-97536000D02*
X140688000Y-97000000D01*
X140688000Y-97000000D02*
X136500000Y-97000000D01*
X149606000Y-91440000D02*
X144780000Y-91440000D01*
X141986000Y-94234000D02*
X141986000Y-97536000D01*
X144780000Y-91440000D02*
X141986000Y-94234000D01*
X156210000Y-91186000D02*
X149860000Y-91186000D01*
X149860000Y-91186000D02*
X149606000Y-91440000D01*
X141986000Y-102616000D02*
X141986000Y-102870000D01*
X141986000Y-102870000D02*
X139446000Y-105410000D01*
X140208000Y-110744000D02*
X141732000Y-110744000D01*
X139446000Y-109982000D02*
X140208000Y-110744000D01*
X139446000Y-105410000D02*
X139446000Y-109982000D01*
X150678000Y-102362000D02*
X142240000Y-102362000D01*
X142240000Y-102362000D02*
X141986000Y-102616000D01*
D28*
X148590000Y-112014000D02*
X148590000Y-110236000D01*
D27*
X146558000Y-108204000D02*
X148590000Y-110236000D01*
X146558000Y-108204000D02*
X145034000Y-108204000D01*
X155956000Y-112014000D02*
X154940000Y-112014000D01*
X151130000Y-108204000D02*
X145034000Y-108204000D01*
X145034000Y-108204000D02*
X141732000Y-108204000D01*
X154940000Y-112014000D02*
X151130000Y-108204000D01*
D28*
X149860000Y-116840000D02*
X149352000Y-116840000D01*
D27*
X156718000Y-118872000D02*
X151892000Y-118872000D01*
X151892000Y-118872000D02*
X149860000Y-116840000D01*
D28*
X148590000Y-116078000D02*
X148590000Y-114554000D01*
X149352000Y-116840000D02*
X148590000Y-116078000D01*
D27*
X163576000Y-112014000D02*
X163576000Y-113284000D01*
X157988000Y-118872000D02*
X156718000Y-118872000D01*
X163576000Y-113284000D02*
X157988000Y-118872000D01*
X136500000Y-127000000D02*
X141478000Y-127000000D01*
X141478000Y-127000000D02*
X141732000Y-126746000D01*
X153162000Y-125222000D02*
X155194000Y-127254000D01*
X162052000Y-118872000D02*
X164338000Y-118872000D01*
X159258000Y-121666000D02*
X162052000Y-118872000D01*
X159258000Y-125730000D02*
X159258000Y-121666000D01*
X157734000Y-127254000D02*
X159258000Y-125730000D01*
X155194000Y-127254000D02*
X157734000Y-127254000D01*
X164338000Y-116332000D02*
X166624000Y-114046000D01*
X165608000Y-108712000D02*
X164338000Y-108712000D01*
X166624000Y-109728000D02*
X165608000Y-108712000D01*
X166624000Y-114046000D02*
X166624000Y-109728000D01*
X156718000Y-116332000D02*
X155702000Y-116332000D01*
X154432000Y-115062000D02*
X153162000Y-115062000D01*
X155702000Y-116332000D02*
X154432000Y-115062000D01*
X166370000Y-91186000D02*
X170688000Y-91186000D01*
X170688000Y-91186000D02*
X171450000Y-91948000D01*
X166370000Y-87376000D02*
X170942000Y-87376000D01*
X170942000Y-87376000D02*
X171450000Y-86868000D01*
D29*
G36*
X148463243Y-83540900D02*
X148462758Y-84096661D01*
X148674990Y-84610303D01*
X148981365Y-84917213D01*
X148731736Y-85020613D01*
X148633073Y-85287468D01*
X149606000Y-86260395D01*
X150578927Y-85287468D01*
X150514297Y-85112661D01*
X151510758Y-85112661D01*
X151722990Y-85626303D01*
X152115630Y-86019629D01*
X152628900Y-86232757D01*
X153184661Y-86233242D01*
X153698303Y-86021010D01*
X154091629Y-85628370D01*
X154304757Y-85115100D01*
X154305242Y-84559339D01*
X154093010Y-84045697D01*
X153700370Y-83652371D01*
X153187100Y-83439243D01*
X152631339Y-83438758D01*
X152117697Y-83650990D01*
X151724371Y-84043630D01*
X151511243Y-84556900D01*
X151510758Y-85112661D01*
X150514297Y-85112661D01*
X150497794Y-85068025D01*
X150650303Y-85005010D01*
X151043629Y-84612370D01*
X151256757Y-84099100D01*
X151257242Y-83543339D01*
X151061118Y-83068682D01*
X182815000Y-83068682D01*
X182815000Y-137316215D01*
X182474142Y-139029826D01*
X181541676Y-140425359D01*
X180146142Y-141357824D01*
X178432533Y-141698682D01*
X139567467Y-141698682D01*
X137853856Y-141357824D01*
X136458323Y-140425358D01*
X135525858Y-139029824D01*
X135493543Y-138867365D01*
X137715000Y-138867365D01*
X137888935Y-139741797D01*
X138384261Y-140483104D01*
X139125568Y-140978430D01*
X140000000Y-141152365D01*
X140874432Y-140978430D01*
X141615739Y-140483104D01*
X142111065Y-139741797D01*
X142285000Y-138867365D01*
X142134700Y-138111750D01*
X148491000Y-138111750D01*
X148491000Y-139702309D01*
X148587673Y-139935698D01*
X148766301Y-140114327D01*
X148999690Y-140211000D01*
X150590250Y-140211000D01*
X150749000Y-140052250D01*
X150749000Y-137953000D01*
X151003000Y-137953000D01*
X151003000Y-140052250D01*
X151161750Y-140211000D01*
X152752310Y-140211000D01*
X152985699Y-140114327D01*
X153164327Y-139935698D01*
X153261000Y-139702309D01*
X153261000Y-138867365D01*
X175715000Y-138867365D01*
X175888935Y-139741797D01*
X176384261Y-140483104D01*
X177125568Y-140978430D01*
X178000000Y-141152365D01*
X178874432Y-140978430D01*
X179615739Y-140483104D01*
X180111065Y-139741797D01*
X180285000Y-138867365D01*
X180111065Y-137992933D01*
X179615739Y-137251626D01*
X178874432Y-136756300D01*
X178000000Y-136582365D01*
X177125568Y-136756300D01*
X176384261Y-137251626D01*
X175888935Y-137992933D01*
X175715000Y-138867365D01*
X153261000Y-138867365D01*
X153261000Y-138111750D01*
X153102250Y-137953000D01*
X151003000Y-137953000D01*
X150749000Y-137953000D01*
X148649750Y-137953000D01*
X148491000Y-138111750D01*
X142134700Y-138111750D01*
X142111065Y-137992933D01*
X141615739Y-137251626D01*
X140874432Y-136756300D01*
X140000000Y-136582365D01*
X139125568Y-136756300D01*
X138384261Y-137251626D01*
X137888935Y-137992933D01*
X137715000Y-138867365D01*
X135493543Y-138867365D01*
X135185000Y-137316215D01*
X135185000Y-135282249D01*
X135228355Y-135386924D01*
X135618642Y-135815183D01*
X136143108Y-136061486D01*
X136373000Y-135940819D01*
X136373000Y-134747000D01*
X136627000Y-134747000D01*
X136627000Y-135940819D01*
X136856892Y-136061486D01*
X137094943Y-135949691D01*
X148491000Y-135949691D01*
X148491000Y-137540250D01*
X148649750Y-137699000D01*
X150749000Y-137699000D01*
X150749000Y-135599750D01*
X151003000Y-135599750D01*
X151003000Y-137699000D01*
X153102250Y-137699000D01*
X153261000Y-137540250D01*
X153261000Y-136871304D01*
X153287673Y-136935698D01*
X153466301Y-137114327D01*
X153699690Y-137211000D01*
X155290250Y-137211000D01*
X155449000Y-137052250D01*
X155449000Y-134953000D01*
X155703000Y-134953000D01*
X155703000Y-137052250D01*
X155861750Y-137211000D01*
X157452310Y-137211000D01*
X157685699Y-137114327D01*
X157864327Y-136935698D01*
X157961000Y-136702309D01*
X157961000Y-135111750D01*
X157928995Y-135079745D01*
X162239861Y-135079745D01*
X162313995Y-135325864D01*
X162851223Y-135518965D01*
X163421454Y-135491778D01*
X163822005Y-135325864D01*
X163896139Y-135079745D01*
X163068000Y-134251605D01*
X162239861Y-135079745D01*
X157928995Y-135079745D01*
X157802250Y-134953000D01*
X155703000Y-134953000D01*
X155449000Y-134953000D01*
X153349750Y-134953000D01*
X153191000Y-135111750D01*
X153191000Y-135780696D01*
X153164327Y-135716302D01*
X152985699Y-135537673D01*
X152752310Y-135441000D01*
X151161750Y-135441000D01*
X151003000Y-135599750D01*
X150749000Y-135599750D01*
X150590250Y-135441000D01*
X148999690Y-135441000D01*
X148766301Y-135537673D01*
X148587673Y-135716302D01*
X148491000Y-135949691D01*
X137094943Y-135949691D01*
X137381358Y-135815183D01*
X137771645Y-135386924D01*
X137941476Y-134976890D01*
X137820155Y-134747000D01*
X136627000Y-134747000D01*
X136373000Y-134747000D01*
X136353000Y-134747000D01*
X136353000Y-134493000D01*
X136373000Y-134493000D01*
X136373000Y-134473000D01*
X136627000Y-134473000D01*
X136627000Y-134493000D01*
X137820155Y-134493000D01*
X137941476Y-134263110D01*
X137771645Y-133853076D01*
X137381358Y-133424817D01*
X137238447Y-133357702D01*
X137579147Y-133130054D01*
X137901054Y-132648285D01*
X138014093Y-132080000D01*
X137901054Y-131511715D01*
X137579147Y-131029946D01*
X137249974Y-130810000D01*
X137579147Y-130590054D01*
X137901054Y-130108285D01*
X138014093Y-129540000D01*
X137901054Y-128971715D01*
X137676069Y-128635000D01*
X141477995Y-128635000D01*
X141478000Y-128635001D01*
X142103688Y-128510543D01*
X142634120Y-128156120D01*
X142888119Y-127902120D01*
X143242543Y-127371688D01*
X143367000Y-126746000D01*
X143242543Y-126120312D01*
X142888119Y-125589881D01*
X142634879Y-125420671D01*
X142969966Y-125113576D01*
X143223046Y-124570742D01*
X143102997Y-124333000D01*
X141859000Y-124333000D01*
X141859000Y-124353000D01*
X141605000Y-124353000D01*
X141605000Y-124333000D01*
X140361003Y-124333000D01*
X140240954Y-124570742D01*
X140494034Y-125113576D01*
X140768375Y-125365000D01*
X136500000Y-125365000D01*
X135874313Y-125489457D01*
X135854703Y-125502560D01*
X135650000Y-125502560D01*
X135414683Y-125546838D01*
X135198559Y-125685910D01*
X135185000Y-125705754D01*
X135185000Y-113648742D01*
X140240954Y-113648742D01*
X140494034Y-114191576D01*
X140935583Y-114596240D01*
X141367260Y-114775036D01*
X141605000Y-114654378D01*
X141605000Y-113411000D01*
X141859000Y-113411000D01*
X141859000Y-114654378D01*
X142096740Y-114775036D01*
X142528417Y-114596240D01*
X142969966Y-114191576D01*
X143223046Y-113648742D01*
X143102997Y-113411000D01*
X141859000Y-113411000D01*
X141605000Y-113411000D01*
X140361003Y-113411000D01*
X140240954Y-113648742D01*
X135185000Y-113648742D01*
X135185000Y-107822249D01*
X135228355Y-107926924D01*
X135618642Y-108355183D01*
X136143108Y-108601486D01*
X136373000Y-108480819D01*
X136373000Y-107287000D01*
X136353000Y-107287000D01*
X136353000Y-107033000D01*
X136373000Y-107033000D01*
X136373000Y-104747000D01*
X136627000Y-104747000D01*
X136627000Y-107033000D01*
X136647000Y-107033000D01*
X136647000Y-107287000D01*
X136627000Y-107287000D01*
X136627000Y-108480819D01*
X136856892Y-108601486D01*
X137381358Y-108355183D01*
X137771645Y-107926924D01*
X137811000Y-107831907D01*
X137811000Y-109981995D01*
X137810999Y-109982000D01*
X137935457Y-110607688D01*
X138289880Y-111138120D01*
X139051878Y-111900117D01*
X139051880Y-111900120D01*
X139489050Y-112192227D01*
X139582313Y-112254543D01*
X140208000Y-112379001D01*
X140208005Y-112379000D01*
X140492833Y-112379000D01*
X140240954Y-112919258D01*
X140361003Y-113157000D01*
X141605000Y-113157000D01*
X141605000Y-113137000D01*
X141859000Y-113137000D01*
X141859000Y-113157000D01*
X143102997Y-113157000D01*
X143223046Y-112919258D01*
X142969966Y-112376424D01*
X142634880Y-112069329D01*
X142888120Y-111900120D01*
X143242543Y-111369687D01*
X143367000Y-110744000D01*
X143242543Y-110118313D01*
X143055913Y-109839000D01*
X145880760Y-109839000D01*
X147288342Y-111246582D01*
X147243569Y-111312110D01*
X147192560Y-111564000D01*
X147192560Y-112464000D01*
X147236838Y-112699317D01*
X147322558Y-112832529D01*
X147245592Y-112989999D01*
X147372498Y-113157000D01*
X148463000Y-113157000D01*
X148463000Y-113137000D01*
X148529672Y-113137000D01*
X148590000Y-113149000D01*
X148650328Y-113137000D01*
X148717000Y-113137000D01*
X148717000Y-113157000D01*
X149807502Y-113157000D01*
X149934408Y-112989999D01*
X149857147Y-112831925D01*
X149936431Y-112715890D01*
X149987440Y-112464000D01*
X149987440Y-111564000D01*
X149943162Y-111328683D01*
X149867291Y-111210775D01*
X150100543Y-110861688D01*
X150225001Y-110236000D01*
X150146032Y-109839000D01*
X150452760Y-109839000D01*
X153783878Y-113170117D01*
X153783880Y-113170120D01*
X154168329Y-113427000D01*
X153162000Y-113427000D01*
X152536313Y-113551457D01*
X152005880Y-113905880D01*
X151651457Y-114436313D01*
X151527000Y-115062000D01*
X151651457Y-115687687D01*
X152005880Y-116218120D01*
X152536313Y-116572543D01*
X153162000Y-116697000D01*
X153754760Y-116697000D01*
X154294761Y-117237000D01*
X152569240Y-117237000D01*
X151016120Y-115683880D01*
X150485688Y-115329457D01*
X149860000Y-115204999D01*
X149746973Y-115227482D01*
X149919543Y-114969212D01*
X150002134Y-114554000D01*
X149919543Y-114138788D01*
X149769830Y-113914726D01*
X149934408Y-113578001D01*
X149807502Y-113411000D01*
X148717000Y-113411000D01*
X148717000Y-113431000D01*
X148650328Y-113431000D01*
X148590000Y-113419000D01*
X148529672Y-113431000D01*
X148463000Y-113431000D01*
X148463000Y-113411000D01*
X147372498Y-113411000D01*
X147245592Y-113578001D01*
X147410170Y-113914726D01*
X147260457Y-114138788D01*
X147177866Y-114554000D01*
X147260457Y-114969212D01*
X147455000Y-115260366D01*
X147455000Y-116078000D01*
X147541397Y-116512346D01*
X147636892Y-116655264D01*
X147787434Y-116880566D01*
X148343721Y-117436853D01*
X148349457Y-117465688D01*
X148703880Y-117996120D01*
X149491529Y-118783769D01*
X148980312Y-118885457D01*
X148449880Y-119239880D01*
X148095457Y-119770312D01*
X147970999Y-120396000D01*
X148095457Y-121021688D01*
X148449880Y-121552120D01*
X149465880Y-122568120D01*
X149996312Y-122922543D01*
X150622000Y-123047001D01*
X150622005Y-123047000D01*
X155638763Y-123047000D01*
X155486959Y-123214577D01*
X155326096Y-123602961D01*
X155448085Y-123825000D01*
X156591000Y-123825000D01*
X156591000Y-123805000D01*
X156845000Y-123805000D01*
X156845000Y-123825000D01*
X156865000Y-123825000D01*
X156865000Y-124079000D01*
X156845000Y-124079000D01*
X156845000Y-125222629D01*
X157067041Y-125343914D01*
X157569788Y-125105973D01*
X157056760Y-125619000D01*
X155871240Y-125619000D01*
X154553279Y-124301039D01*
X155326096Y-124301039D01*
X155486959Y-124689423D01*
X155862866Y-125104389D01*
X156368959Y-125343914D01*
X156591000Y-125222629D01*
X156591000Y-124079000D01*
X155448085Y-124079000D01*
X155326096Y-124301039D01*
X154553279Y-124301039D01*
X154318120Y-124065880D01*
X153787688Y-123711457D01*
X153162000Y-123586999D01*
X152536312Y-123711457D01*
X152005880Y-124065880D01*
X151651457Y-124596312D01*
X151526999Y-125222000D01*
X151651457Y-125847688D01*
X152005880Y-126378120D01*
X154037880Y-128410120D01*
X154568312Y-128764543D01*
X155194000Y-128889001D01*
X155194005Y-128889000D01*
X157733995Y-128889000D01*
X157734000Y-128889001D01*
X158359688Y-128764543D01*
X158890120Y-128410120D01*
X160163000Y-127137239D01*
X160163000Y-129937000D01*
X159427240Y-129937000D01*
X159398120Y-129907880D01*
X158867688Y-129553457D01*
X158242000Y-129428999D01*
X158241995Y-129429000D01*
X152628173Y-129429000D01*
X152626000Y-129428560D01*
X149126000Y-129428560D01*
X148890683Y-129472838D01*
X148674559Y-129611910D01*
X148529569Y-129824110D01*
X148478560Y-130076000D01*
X148478560Y-130164321D01*
X146669000Y-128354760D01*
X146669000Y-126403745D01*
X148777861Y-126403745D01*
X148851995Y-126649864D01*
X149389223Y-126842965D01*
X149959454Y-126815778D01*
X150360005Y-126649864D01*
X150434139Y-126403745D01*
X149606000Y-125575605D01*
X148777861Y-126403745D01*
X146669000Y-126403745D01*
X146669000Y-125179223D01*
X148159035Y-125179223D01*
X148186222Y-125749454D01*
X148352136Y-126150005D01*
X148598255Y-126224139D01*
X149426395Y-125396000D01*
X149785605Y-125396000D01*
X150613745Y-126224139D01*
X150859864Y-126150005D01*
X151052965Y-125612777D01*
X151025778Y-125042546D01*
X150859864Y-124641995D01*
X150613745Y-124567861D01*
X149785605Y-125396000D01*
X149426395Y-125396000D01*
X148598255Y-124567861D01*
X148352136Y-124641995D01*
X148159035Y-125179223D01*
X146669000Y-125179223D01*
X146669000Y-124388255D01*
X148777861Y-124388255D01*
X149606000Y-125216395D01*
X150434139Y-124388255D01*
X150360005Y-124142136D01*
X149822777Y-123949035D01*
X149252546Y-123976222D01*
X148851995Y-124142136D01*
X148777861Y-124388255D01*
X146669000Y-124388255D01*
X146669000Y-122936000D01*
X146618351Y-122681371D01*
X146544543Y-122310312D01*
X146362381Y-122037688D01*
X146190120Y-121779880D01*
X146190117Y-121779878D01*
X144920120Y-120509880D01*
X144389688Y-120155457D01*
X143764000Y-120030999D01*
X143763995Y-120031000D01*
X141732000Y-120031000D01*
X141291807Y-120118560D01*
X140832000Y-120118560D01*
X140596683Y-120162838D01*
X140380559Y-120301910D01*
X140235569Y-120514110D01*
X140184560Y-120766000D01*
X140184560Y-121225807D01*
X140097000Y-121666000D01*
X140184560Y-122106193D01*
X140184560Y-122566000D01*
X140228838Y-122801317D01*
X140367910Y-123017441D01*
X140580110Y-123162431D01*
X140631146Y-123172766D01*
X140494034Y-123298424D01*
X140240954Y-123841258D01*
X140361003Y-124079000D01*
X141605000Y-124079000D01*
X141605000Y-124059000D01*
X141859000Y-124059000D01*
X141859000Y-124079000D01*
X143102997Y-124079000D01*
X143223046Y-123841258D01*
X142971167Y-123301000D01*
X143086760Y-123301000D01*
X143399000Y-123613239D01*
X143399000Y-129031995D01*
X143398999Y-129032000D01*
X143523457Y-129657688D01*
X143877880Y-130188120D01*
X146671878Y-132982117D01*
X146671880Y-132982120D01*
X147008438Y-133207000D01*
X147202313Y-133336543D01*
X147828000Y-133461001D01*
X147828005Y-133461000D01*
X148478560Y-133461000D01*
X148478560Y-133576000D01*
X148522838Y-133811317D01*
X148661910Y-134027441D01*
X148874110Y-134172431D01*
X149126000Y-134223440D01*
X152626000Y-134223440D01*
X152861317Y-134179162D01*
X153077441Y-134040090D01*
X153191000Y-133873891D01*
X153191000Y-134540250D01*
X153349750Y-134699000D01*
X155449000Y-134699000D01*
X155449000Y-134679000D01*
X155703000Y-134679000D01*
X155703000Y-134699000D01*
X157802250Y-134699000D01*
X157961000Y-134540250D01*
X157961000Y-132973421D01*
X158124313Y-133082543D01*
X158750000Y-133207000D01*
X162023392Y-133207000D01*
X162060253Y-133243861D01*
X161814136Y-133317995D01*
X161621035Y-133855223D01*
X161648222Y-134425454D01*
X161814136Y-134826005D01*
X162060255Y-134900139D01*
X162888395Y-134072000D01*
X163247605Y-134072000D01*
X164075745Y-134900139D01*
X164321864Y-134826005D01*
X164514965Y-134288777D01*
X164487778Y-133718546D01*
X164321864Y-133317995D01*
X164075745Y-133243861D01*
X163247605Y-134072000D01*
X162888395Y-134072000D01*
X162874252Y-134057858D01*
X163053858Y-133878252D01*
X163068000Y-133892395D01*
X163896139Y-133064255D01*
X163881855Y-133016833D01*
X164103317Y-132975162D01*
X164319441Y-132836090D01*
X164464431Y-132623890D01*
X164515440Y-132372000D01*
X164515440Y-132292128D01*
X164563554Y-132220120D01*
X164578543Y-132197688D01*
X164703000Y-131572000D01*
X164578543Y-130946312D01*
X164515440Y-130851872D01*
X164515440Y-130772000D01*
X164471162Y-130536683D01*
X164332090Y-130320559D01*
X164119890Y-130175569D01*
X163949253Y-130141014D01*
X163433000Y-129624760D01*
X163433000Y-126189745D01*
X168843861Y-126189745D01*
X168917995Y-126435864D01*
X169455223Y-126628965D01*
X170025454Y-126601778D01*
X170426005Y-126435864D01*
X170500139Y-126189745D01*
X172399861Y-126189745D01*
X172473995Y-126435864D01*
X173011223Y-126628965D01*
X173581454Y-126601778D01*
X173982005Y-126435864D01*
X174056139Y-126189745D01*
X173228000Y-125361605D01*
X172399861Y-126189745D01*
X170500139Y-126189745D01*
X169672000Y-125361605D01*
X168843861Y-126189745D01*
X163433000Y-126189745D01*
X163433000Y-125058780D01*
X163760736Y-125277767D01*
X164309887Y-125387000D01*
X164366113Y-125387000D01*
X164915264Y-125277767D01*
X165380811Y-124966698D01*
X165691880Y-124501151D01*
X165801113Y-123952000D01*
X165691880Y-123402849D01*
X165454109Y-123047000D01*
X165946760Y-123047000D01*
X166737878Y-123838117D01*
X166737880Y-123838120D01*
X166944565Y-123976222D01*
X167268312Y-124192543D01*
X167894000Y-124317000D01*
X168627392Y-124317000D01*
X168664253Y-124353861D01*
X168418136Y-124427995D01*
X168225035Y-124965223D01*
X168252222Y-125535454D01*
X168418136Y-125936005D01*
X168664255Y-126010139D01*
X169492395Y-125182000D01*
X169851605Y-125182000D01*
X170679745Y-126010139D01*
X170925864Y-125936005D01*
X171118965Y-125398777D01*
X171091778Y-124828546D01*
X170925864Y-124427995D01*
X170679745Y-124353861D01*
X169851605Y-125182000D01*
X169492395Y-125182000D01*
X169478252Y-125167858D01*
X169657858Y-124988252D01*
X169672000Y-125002395D01*
X170500139Y-124174255D01*
X170470805Y-124076869D01*
X170828120Y-123838120D01*
X171182543Y-123307687D01*
X171307000Y-122682000D01*
X171307000Y-121327240D01*
X172127239Y-120507000D01*
X175937699Y-120507000D01*
X176081776Y-120603269D01*
X176784000Y-120742950D01*
X177486224Y-120603269D01*
X177943000Y-120298061D01*
X177943000Y-120480761D01*
X177076762Y-121346998D01*
X174116403Y-121346998D01*
X173853687Y-121171457D01*
X173228000Y-121047000D01*
X172602313Y-121171457D01*
X172071880Y-121525880D01*
X171717457Y-122056313D01*
X171593000Y-122682000D01*
X171593000Y-122981998D01*
X171717457Y-123607685D01*
X172071880Y-124138118D01*
X172152427Y-124191937D01*
X172105378Y-124238986D01*
X172220253Y-124353861D01*
X171974136Y-124427995D01*
X171781035Y-124965223D01*
X171808222Y-125535454D01*
X171974136Y-125936005D01*
X172220255Y-126010139D01*
X173048395Y-125182000D01*
X173034252Y-125167858D01*
X173213858Y-124988253D01*
X173228000Y-125002395D01*
X173242143Y-124988253D01*
X173421748Y-125167858D01*
X173407605Y-125182000D01*
X174235745Y-126010139D01*
X174481864Y-125936005D01*
X174674965Y-125398777D01*
X174647778Y-124828546D01*
X174560152Y-124616998D01*
X177753997Y-124616998D01*
X177754002Y-124616999D01*
X178379690Y-124492541D01*
X178910122Y-124138118D01*
X180734117Y-122314122D01*
X180734120Y-122314120D01*
X181088543Y-121783687D01*
X181089300Y-121779880D01*
X181213001Y-121158000D01*
X181213000Y-121157995D01*
X181213000Y-114808000D01*
X181088543Y-114182313D01*
X180734120Y-113651880D01*
X180734117Y-113651878D01*
X175625000Y-108542760D01*
X175625000Y-105068325D01*
X175743199Y-105186730D01*
X176417395Y-105466681D01*
X177147403Y-105467318D01*
X177822086Y-105188545D01*
X178338730Y-104672801D01*
X178618681Y-103998605D01*
X178619318Y-103268597D01*
X178340545Y-102593914D01*
X177824801Y-102077270D01*
X177150605Y-101797319D01*
X176420597Y-101796682D01*
X175745914Y-102075455D01*
X175625000Y-102196158D01*
X175625000Y-89408000D01*
X175500543Y-88782313D01*
X175223285Y-88367365D01*
X177715000Y-88367365D01*
X177888935Y-89241797D01*
X178384261Y-89983104D01*
X179125568Y-90478430D01*
X180000000Y-90652365D01*
X180874432Y-90478430D01*
X181615739Y-89983104D01*
X182111065Y-89241797D01*
X182285000Y-88367365D01*
X182111065Y-87492933D01*
X181615739Y-86751626D01*
X180874432Y-86256300D01*
X180000000Y-86082365D01*
X179125568Y-86256300D01*
X178384261Y-86751626D01*
X177888935Y-87492933D01*
X177715000Y-88367365D01*
X175223285Y-88367365D01*
X175146120Y-88251880D01*
X174615687Y-87897457D01*
X173990000Y-87773000D01*
X173364313Y-87897457D01*
X172833880Y-88251880D01*
X172479457Y-88782313D01*
X172355000Y-89408000D01*
X172355000Y-90540761D01*
X171844120Y-90029880D01*
X171313688Y-89675457D01*
X170688000Y-89550999D01*
X170687995Y-89551000D01*
X166370000Y-89551000D01*
X165744313Y-89675457D01*
X165213880Y-90029880D01*
X164859457Y-90560313D01*
X164735000Y-91186000D01*
X164859457Y-91811687D01*
X165213880Y-92342120D01*
X165744313Y-92696543D01*
X166370000Y-92821000D01*
X170010761Y-92821000D01*
X170293881Y-93104120D01*
X170824313Y-93458543D01*
X171450000Y-93583001D01*
X172075688Y-93458543D01*
X172355000Y-93271913D01*
X172355000Y-109219995D01*
X172354999Y-109220000D01*
X172479457Y-109845688D01*
X172833880Y-110376120D01*
X177943000Y-115485239D01*
X177943000Y-117445939D01*
X177486224Y-117140731D01*
X176784000Y-117001050D01*
X176081776Y-117140731D01*
X175937699Y-117237000D01*
X171528809Y-117237000D01*
X171702698Y-117120811D01*
X172013767Y-116655264D01*
X172123000Y-116106113D01*
X172123000Y-116049887D01*
X172013767Y-115500736D01*
X171702698Y-115035189D01*
X171237151Y-114724120D01*
X170688000Y-114614887D01*
X170138849Y-114724120D01*
X169673302Y-115035189D01*
X169362233Y-115500736D01*
X169253000Y-116049887D01*
X169253000Y-116106113D01*
X169362233Y-116655264D01*
X169673302Y-117120811D01*
X170138849Y-117431880D01*
X170585848Y-117520794D01*
X170293880Y-117715880D01*
X170293878Y-117715883D01*
X168515880Y-119493880D01*
X168161457Y-120024312D01*
X168059769Y-120535529D01*
X167780120Y-120255880D01*
X167249688Y-119901457D01*
X166624000Y-119776999D01*
X166623995Y-119777000D01*
X165661913Y-119777000D01*
X165848543Y-119497687D01*
X165973000Y-118872000D01*
X165848543Y-118246313D01*
X165494120Y-117715880D01*
X165323686Y-117602000D01*
X165494120Y-117488120D01*
X167780117Y-115202122D01*
X167780120Y-115202120D01*
X168043462Y-114808000D01*
X168134543Y-114671688D01*
X168259000Y-114046000D01*
X168259000Y-109728005D01*
X168259001Y-109728000D01*
X168134543Y-109102312D01*
X167780120Y-108571880D01*
X166764120Y-107555880D01*
X166233688Y-107201457D01*
X165608000Y-107076999D01*
X165607995Y-107077000D01*
X164338000Y-107077000D01*
X163712313Y-107201457D01*
X163181880Y-107555880D01*
X162827457Y-108086313D01*
X162703000Y-108712000D01*
X162827457Y-109337687D01*
X163181880Y-109868120D01*
X163712313Y-110222543D01*
X164338000Y-110347000D01*
X164930760Y-110347000D01*
X164989000Y-110405240D01*
X164989000Y-111242329D01*
X164732120Y-110857880D01*
X164201687Y-110503457D01*
X163576000Y-110379000D01*
X162950313Y-110503457D01*
X162419880Y-110857880D01*
X162065457Y-111388313D01*
X161941000Y-112014000D01*
X161941000Y-112606761D01*
X158330230Y-116217530D01*
X158228543Y-115706313D01*
X158165440Y-115611872D01*
X158165440Y-115532000D01*
X158121162Y-115296683D01*
X157982090Y-115080559D01*
X157769890Y-114935569D01*
X157518000Y-114884560D01*
X157438128Y-114884560D01*
X157343687Y-114821457D01*
X156718000Y-114697000D01*
X156379239Y-114697000D01*
X155588120Y-113905880D01*
X155203672Y-113649000D01*
X155956000Y-113649000D01*
X156581687Y-113524543D01*
X156676128Y-113461440D01*
X156756000Y-113461440D01*
X156991317Y-113417162D01*
X157207441Y-113278090D01*
X157352431Y-113065890D01*
X157403440Y-112814000D01*
X157403440Y-112734128D01*
X157466543Y-112639687D01*
X157591000Y-112014000D01*
X157466543Y-111388313D01*
X157403440Y-111293872D01*
X157403440Y-111214000D01*
X157359162Y-110978683D01*
X157220090Y-110762559D01*
X157007890Y-110617569D01*
X156756000Y-110566560D01*
X156676128Y-110566560D01*
X156581687Y-110503457D01*
X155956000Y-110379000D01*
X155617239Y-110379000D01*
X152286120Y-107047880D01*
X152103332Y-106925745D01*
X169859861Y-106925745D01*
X169933995Y-107171864D01*
X170471223Y-107364965D01*
X171041454Y-107337778D01*
X171442005Y-107171864D01*
X171516139Y-106925745D01*
X170688000Y-106097605D01*
X169859861Y-106925745D01*
X152103332Y-106925745D01*
X151755688Y-106693457D01*
X151130000Y-106568999D01*
X151129995Y-106569000D01*
X146558005Y-106569000D01*
X146558000Y-106568999D01*
X146557995Y-106569000D01*
X141732000Y-106569000D01*
X141291807Y-106656560D01*
X141081000Y-106656560D01*
X141081000Y-106087240D01*
X141467016Y-105701223D01*
X169241035Y-105701223D01*
X169268222Y-106271454D01*
X169434136Y-106672005D01*
X169680255Y-106746139D01*
X170508395Y-105918000D01*
X170867605Y-105918000D01*
X171695745Y-106746139D01*
X171941864Y-106672005D01*
X172134965Y-106134777D01*
X172107778Y-105564546D01*
X171941864Y-105163995D01*
X171695745Y-105089861D01*
X170867605Y-105918000D01*
X170508395Y-105918000D01*
X169680255Y-105089861D01*
X169434136Y-105163995D01*
X169241035Y-105701223D01*
X141467016Y-105701223D01*
X142257984Y-104910255D01*
X169859861Y-104910255D01*
X170688000Y-105738395D01*
X171516139Y-104910255D01*
X171442005Y-104664136D01*
X170904777Y-104471035D01*
X170334546Y-104498222D01*
X169933995Y-104664136D01*
X169859861Y-104910255D01*
X142257984Y-104910255D01*
X143088276Y-104079963D01*
X143212439Y-103997000D01*
X149830510Y-103997000D01*
X150311395Y-104196681D01*
X151041403Y-104197318D01*
X151716086Y-103918545D01*
X152232730Y-103402801D01*
X152512681Y-102728605D01*
X152512683Y-102725403D01*
X155842682Y-102725403D01*
X156121455Y-103400086D01*
X156637199Y-103916730D01*
X157311395Y-104196681D01*
X158041403Y-104197318D01*
X158716086Y-103918545D01*
X159232730Y-103402801D01*
X159512681Y-102728605D01*
X159513318Y-101998597D01*
X159234545Y-101323914D01*
X158718801Y-100807270D01*
X158044605Y-100527319D01*
X157314597Y-100526682D01*
X156639914Y-100805455D01*
X156123270Y-101321199D01*
X155843319Y-101995395D01*
X155842682Y-102725403D01*
X152512683Y-102725403D01*
X152513318Y-101998597D01*
X152234545Y-101323914D01*
X151718801Y-100807270D01*
X151044605Y-100527319D01*
X150314597Y-100526682D01*
X149829790Y-100727000D01*
X142240000Y-100727000D01*
X142067628Y-100761287D01*
X141986000Y-100745050D01*
X141283776Y-100884731D01*
X140688459Y-101282509D01*
X140290681Y-101877826D01*
X140197504Y-102346256D01*
X138289880Y-104253880D01*
X137935457Y-104784312D01*
X137909284Y-104915890D01*
X137820155Y-104747000D01*
X136627000Y-104747000D01*
X136373000Y-104747000D01*
X136353000Y-104747000D01*
X136353000Y-104493000D01*
X136373000Y-104493000D01*
X136373000Y-104473000D01*
X136627000Y-104473000D01*
X136627000Y-104493000D01*
X137820155Y-104493000D01*
X137941476Y-104263110D01*
X137771645Y-103853076D01*
X137381358Y-103424817D01*
X137238447Y-103357702D01*
X137579147Y-103130054D01*
X137901054Y-102648285D01*
X138014093Y-102080000D01*
X137901054Y-101511715D01*
X137579147Y-101029946D01*
X137367830Y-100888749D01*
X137656120Y-100696120D01*
X138010543Y-100165687D01*
X138135000Y-99540000D01*
X138135000Y-98635000D01*
X140010761Y-98635000D01*
X140067878Y-98692117D01*
X140067880Y-98692120D01*
X140139280Y-98739828D01*
X140182838Y-98971317D01*
X140321910Y-99187441D01*
X140534110Y-99332431D01*
X140786000Y-99383440D01*
X143186000Y-99383440D01*
X143421317Y-99339162D01*
X143637441Y-99200090D01*
X143782431Y-98987890D01*
X143833440Y-98736000D01*
X143833440Y-96336000D01*
X143789162Y-96100683D01*
X143714006Y-95983887D01*
X162903000Y-95983887D01*
X162903000Y-96040113D01*
X163012233Y-96589264D01*
X163323302Y-97054811D01*
X163788849Y-97365880D01*
X164338000Y-97475113D01*
X164887151Y-97365880D01*
X165352698Y-97054811D01*
X165663767Y-96589264D01*
X165773000Y-96040113D01*
X165773000Y-95983887D01*
X165663767Y-95434736D01*
X165352698Y-94969189D01*
X164887151Y-94658120D01*
X164338000Y-94548887D01*
X163788849Y-94658120D01*
X163323302Y-94969189D01*
X163012233Y-95434736D01*
X162903000Y-95983887D01*
X143714006Y-95983887D01*
X143650090Y-95884559D01*
X143621000Y-95864683D01*
X143621000Y-94911240D01*
X145457239Y-93075000D01*
X148544569Y-93075000D01*
X148606000Y-93087440D01*
X150606000Y-93087440D01*
X150841317Y-93043162D01*
X151057441Y-92904090D01*
X151114214Y-92821000D01*
X156210000Y-92821000D01*
X156835687Y-92696543D01*
X157366120Y-92342120D01*
X157720543Y-91811687D01*
X157845000Y-91186000D01*
X157720543Y-90560313D01*
X157366120Y-90029880D01*
X156835687Y-89675457D01*
X156210000Y-89551000D01*
X149860000Y-89551000D01*
X149234312Y-89675457D01*
X149120880Y-89751250D01*
X149059055Y-89792560D01*
X148606000Y-89792560D01*
X148539887Y-89805000D01*
X147882802Y-89805000D01*
X147995629Y-89692370D01*
X148208757Y-89179100D01*
X148209242Y-88623339D01*
X148110245Y-88383745D01*
X155381861Y-88383745D01*
X155455995Y-88629864D01*
X155993223Y-88822965D01*
X156563454Y-88795778D01*
X156964005Y-88629864D01*
X157038139Y-88383745D01*
X156210000Y-87555605D01*
X155381861Y-88383745D01*
X148110245Y-88383745D01*
X147997010Y-88109697D01*
X147604370Y-87716371D01*
X147396488Y-87630051D01*
X147487290Y-87592532D01*
X148633073Y-87592532D01*
X148731736Y-87859387D01*
X149341461Y-88085908D01*
X149991460Y-88061856D01*
X150480264Y-87859387D01*
X150578927Y-87592532D01*
X149606000Y-86619605D01*
X148633073Y-87592532D01*
X147487290Y-87592532D01*
X147602303Y-87545010D01*
X147995629Y-87152370D01*
X148057668Y-87002963D01*
X148186613Y-87314264D01*
X148453468Y-87412927D01*
X149426395Y-86440000D01*
X149785605Y-86440000D01*
X150758532Y-87412927D01*
X151025387Y-87314264D01*
X151082986Y-87159223D01*
X154763035Y-87159223D01*
X154790222Y-87729454D01*
X154956136Y-88130005D01*
X155202255Y-88204139D01*
X156030395Y-87376000D01*
X156389605Y-87376000D01*
X157217745Y-88204139D01*
X157463864Y-88130005D01*
X157656965Y-87592777D01*
X157646630Y-87376000D01*
X164735000Y-87376000D01*
X164859457Y-88001687D01*
X165213880Y-88532120D01*
X165744313Y-88886543D01*
X166370000Y-89011000D01*
X170941995Y-89011000D01*
X170942000Y-89011001D01*
X171567688Y-88886543D01*
X172098120Y-88532120D01*
X172606119Y-88024120D01*
X172960542Y-87493688D01*
X173085000Y-86868000D01*
X172960542Y-86242313D01*
X172606119Y-85711881D01*
X172075687Y-85357458D01*
X171450000Y-85233000D01*
X170824312Y-85357458D01*
X170293880Y-85711881D01*
X170264761Y-85741000D01*
X166370000Y-85741000D01*
X165744313Y-85865457D01*
X165213880Y-86219880D01*
X164859457Y-86750313D01*
X164735000Y-87376000D01*
X157646630Y-87376000D01*
X157629778Y-87022546D01*
X157463864Y-86621995D01*
X157217745Y-86547861D01*
X156389605Y-87376000D01*
X156030395Y-87376000D01*
X155202255Y-86547861D01*
X154956136Y-86621995D01*
X154763035Y-87159223D01*
X151082986Y-87159223D01*
X151251908Y-86704539D01*
X151239465Y-86368255D01*
X155381861Y-86368255D01*
X156210000Y-87196395D01*
X157038139Y-86368255D01*
X156964005Y-86122136D01*
X156426777Y-85929035D01*
X155856546Y-85956222D01*
X155455995Y-86122136D01*
X155381861Y-86368255D01*
X151239465Y-86368255D01*
X151227856Y-86054540D01*
X151025387Y-85565736D01*
X150758532Y-85467073D01*
X149785605Y-86440000D01*
X149426395Y-86440000D01*
X148453468Y-85467073D01*
X148186613Y-85565736D01*
X148096072Y-85809445D01*
X147997010Y-85569697D01*
X147604370Y-85176371D01*
X147091100Y-84963243D01*
X146535339Y-84962758D01*
X146021697Y-85174990D01*
X145628371Y-85567630D01*
X145415243Y-86080900D01*
X145414758Y-86636661D01*
X145626990Y-87150303D01*
X146019630Y-87543629D01*
X146227512Y-87629949D01*
X146021697Y-87714990D01*
X145628371Y-88107630D01*
X145415243Y-88620900D01*
X145414758Y-89176661D01*
X145626990Y-89690303D01*
X145741487Y-89805000D01*
X144780005Y-89805000D01*
X144780000Y-89804999D01*
X144154313Y-89929457D01*
X143623880Y-90283880D01*
X143623878Y-90283883D01*
X140829880Y-93077880D01*
X140475457Y-93608312D01*
X140350999Y-94234000D01*
X140351000Y-94234005D01*
X140351000Y-95365000D01*
X136500000Y-95365000D01*
X135874313Y-95489457D01*
X135854703Y-95502560D01*
X135650000Y-95502560D01*
X135414683Y-95546838D01*
X135198559Y-95685910D01*
X135185000Y-95705754D01*
X135185000Y-88367365D01*
X135715000Y-88367365D01*
X135888935Y-89241797D01*
X136384261Y-89983104D01*
X137125568Y-90478430D01*
X138000000Y-90652365D01*
X138874432Y-90478430D01*
X139615739Y-89983104D01*
X140111065Y-89241797D01*
X140285000Y-88367365D01*
X140111065Y-87492933D01*
X139615739Y-86751626D01*
X138874432Y-86256300D01*
X138000000Y-86082365D01*
X137125568Y-86256300D01*
X136384261Y-86751626D01*
X135888935Y-87492933D01*
X135715000Y-88367365D01*
X135185000Y-88367365D01*
X135185000Y-83068682D01*
X148659325Y-83068682D01*
X148463243Y-83540900D01*
X148463243Y-83540900D01*
G37*
X148463243Y-83540900D02*
X148462758Y-84096661D01*
X148674990Y-84610303D01*
X148981365Y-84917213D01*
X148731736Y-85020613D01*
X148633073Y-85287468D01*
X149606000Y-86260395D01*
X150578927Y-85287468D01*
X150514297Y-85112661D01*
X151510758Y-85112661D01*
X151722990Y-85626303D01*
X152115630Y-86019629D01*
X152628900Y-86232757D01*
X153184661Y-86233242D01*
X153698303Y-86021010D01*
X154091629Y-85628370D01*
X154304757Y-85115100D01*
X154305242Y-84559339D01*
X154093010Y-84045697D01*
X153700370Y-83652371D01*
X153187100Y-83439243D01*
X152631339Y-83438758D01*
X152117697Y-83650990D01*
X151724371Y-84043630D01*
X151511243Y-84556900D01*
X151510758Y-85112661D01*
X150514297Y-85112661D01*
X150497794Y-85068025D01*
X150650303Y-85005010D01*
X151043629Y-84612370D01*
X151256757Y-84099100D01*
X151257242Y-83543339D01*
X151061118Y-83068682D01*
X182815000Y-83068682D01*
X182815000Y-137316215D01*
X182474142Y-139029826D01*
X181541676Y-140425359D01*
X180146142Y-141357824D01*
X178432533Y-141698682D01*
X139567467Y-141698682D01*
X137853856Y-141357824D01*
X136458323Y-140425358D01*
X135525858Y-139029824D01*
X135493543Y-138867365D01*
X137715000Y-138867365D01*
X137888935Y-139741797D01*
X138384261Y-140483104D01*
X139125568Y-140978430D01*
X140000000Y-141152365D01*
X140874432Y-140978430D01*
X141615739Y-140483104D01*
X142111065Y-139741797D01*
X142285000Y-138867365D01*
X142134700Y-138111750D01*
X148491000Y-138111750D01*
X148491000Y-139702309D01*
X148587673Y-139935698D01*
X148766301Y-140114327D01*
X148999690Y-140211000D01*
X150590250Y-140211000D01*
X150749000Y-140052250D01*
X150749000Y-137953000D01*
X151003000Y-137953000D01*
X151003000Y-140052250D01*
X151161750Y-140211000D01*
X152752310Y-140211000D01*
X152985699Y-140114327D01*
X153164327Y-139935698D01*
X153261000Y-139702309D01*
X153261000Y-138867365D01*
X175715000Y-138867365D01*
X175888935Y-139741797D01*
X176384261Y-140483104D01*
X177125568Y-140978430D01*
X178000000Y-141152365D01*
X178874432Y-140978430D01*
X179615739Y-140483104D01*
X180111065Y-139741797D01*
X180285000Y-138867365D01*
X180111065Y-137992933D01*
X179615739Y-137251626D01*
X178874432Y-136756300D01*
X178000000Y-136582365D01*
X177125568Y-136756300D01*
X176384261Y-137251626D01*
X175888935Y-137992933D01*
X175715000Y-138867365D01*
X153261000Y-138867365D01*
X153261000Y-138111750D01*
X153102250Y-137953000D01*
X151003000Y-137953000D01*
X150749000Y-137953000D01*
X148649750Y-137953000D01*
X148491000Y-138111750D01*
X142134700Y-138111750D01*
X142111065Y-137992933D01*
X141615739Y-137251626D01*
X140874432Y-136756300D01*
X140000000Y-136582365D01*
X139125568Y-136756300D01*
X138384261Y-137251626D01*
X137888935Y-137992933D01*
X137715000Y-138867365D01*
X135493543Y-138867365D01*
X135185000Y-137316215D01*
X135185000Y-135282249D01*
X135228355Y-135386924D01*
X135618642Y-135815183D01*
X136143108Y-136061486D01*
X136373000Y-135940819D01*
X136373000Y-134747000D01*
X136627000Y-134747000D01*
X136627000Y-135940819D01*
X136856892Y-136061486D01*
X137094943Y-135949691D01*
X148491000Y-135949691D01*
X148491000Y-137540250D01*
X148649750Y-137699000D01*
X150749000Y-137699000D01*
X150749000Y-135599750D01*
X151003000Y-135599750D01*
X151003000Y-137699000D01*
X153102250Y-137699000D01*
X153261000Y-137540250D01*
X153261000Y-136871304D01*
X153287673Y-136935698D01*
X153466301Y-137114327D01*
X153699690Y-137211000D01*
X155290250Y-137211000D01*
X155449000Y-137052250D01*
X155449000Y-134953000D01*
X155703000Y-134953000D01*
X155703000Y-137052250D01*
X155861750Y-137211000D01*
X157452310Y-137211000D01*
X157685699Y-137114327D01*
X157864327Y-136935698D01*
X157961000Y-136702309D01*
X157961000Y-135111750D01*
X157928995Y-135079745D01*
X162239861Y-135079745D01*
X162313995Y-135325864D01*
X162851223Y-135518965D01*
X163421454Y-135491778D01*
X163822005Y-135325864D01*
X163896139Y-135079745D01*
X163068000Y-134251605D01*
X162239861Y-135079745D01*
X157928995Y-135079745D01*
X157802250Y-134953000D01*
X155703000Y-134953000D01*
X155449000Y-134953000D01*
X153349750Y-134953000D01*
X153191000Y-135111750D01*
X153191000Y-135780696D01*
X153164327Y-135716302D01*
X152985699Y-135537673D01*
X152752310Y-135441000D01*
X151161750Y-135441000D01*
X151003000Y-135599750D01*
X150749000Y-135599750D01*
X150590250Y-135441000D01*
X148999690Y-135441000D01*
X148766301Y-135537673D01*
X148587673Y-135716302D01*
X148491000Y-135949691D01*
X137094943Y-135949691D01*
X137381358Y-135815183D01*
X137771645Y-135386924D01*
X137941476Y-134976890D01*
X137820155Y-134747000D01*
X136627000Y-134747000D01*
X136373000Y-134747000D01*
X136353000Y-134747000D01*
X136353000Y-134493000D01*
X136373000Y-134493000D01*
X136373000Y-134473000D01*
X136627000Y-134473000D01*
X136627000Y-134493000D01*
X137820155Y-134493000D01*
X137941476Y-134263110D01*
X137771645Y-133853076D01*
X137381358Y-133424817D01*
X137238447Y-133357702D01*
X137579147Y-133130054D01*
X137901054Y-132648285D01*
X138014093Y-132080000D01*
X137901054Y-131511715D01*
X137579147Y-131029946D01*
X137249974Y-130810000D01*
X137579147Y-130590054D01*
X137901054Y-130108285D01*
X138014093Y-129540000D01*
X137901054Y-128971715D01*
X137676069Y-128635000D01*
X141477995Y-128635000D01*
X141478000Y-128635001D01*
X142103688Y-128510543D01*
X142634120Y-128156120D01*
X142888119Y-127902120D01*
X143242543Y-127371688D01*
X143367000Y-126746000D01*
X143242543Y-126120312D01*
X142888119Y-125589881D01*
X142634879Y-125420671D01*
X142969966Y-125113576D01*
X143223046Y-124570742D01*
X143102997Y-124333000D01*
X141859000Y-124333000D01*
X141859000Y-124353000D01*
X141605000Y-124353000D01*
X141605000Y-124333000D01*
X140361003Y-124333000D01*
X140240954Y-124570742D01*
X140494034Y-125113576D01*
X140768375Y-125365000D01*
X136500000Y-125365000D01*
X135874313Y-125489457D01*
X135854703Y-125502560D01*
X135650000Y-125502560D01*
X135414683Y-125546838D01*
X135198559Y-125685910D01*
X135185000Y-125705754D01*
X135185000Y-113648742D01*
X140240954Y-113648742D01*
X140494034Y-114191576D01*
X140935583Y-114596240D01*
X141367260Y-114775036D01*
X141605000Y-114654378D01*
X141605000Y-113411000D01*
X141859000Y-113411000D01*
X141859000Y-114654378D01*
X142096740Y-114775036D01*
X142528417Y-114596240D01*
X142969966Y-114191576D01*
X143223046Y-113648742D01*
X143102997Y-113411000D01*
X141859000Y-113411000D01*
X141605000Y-113411000D01*
X140361003Y-113411000D01*
X140240954Y-113648742D01*
X135185000Y-113648742D01*
X135185000Y-107822249D01*
X135228355Y-107926924D01*
X135618642Y-108355183D01*
X136143108Y-108601486D01*
X136373000Y-108480819D01*
X136373000Y-107287000D01*
X136353000Y-107287000D01*
X136353000Y-107033000D01*
X136373000Y-107033000D01*
X136373000Y-104747000D01*
X136627000Y-104747000D01*
X136627000Y-107033000D01*
X136647000Y-107033000D01*
X136647000Y-107287000D01*
X136627000Y-107287000D01*
X136627000Y-108480819D01*
X136856892Y-108601486D01*
X137381358Y-108355183D01*
X137771645Y-107926924D01*
X137811000Y-107831907D01*
X137811000Y-109981995D01*
X137810999Y-109982000D01*
X137935457Y-110607688D01*
X138289880Y-111138120D01*
X139051878Y-111900117D01*
X139051880Y-111900120D01*
X139489050Y-112192227D01*
X139582313Y-112254543D01*
X140208000Y-112379001D01*
X140208005Y-112379000D01*
X140492833Y-112379000D01*
X140240954Y-112919258D01*
X140361003Y-113157000D01*
X141605000Y-113157000D01*
X141605000Y-113137000D01*
X141859000Y-113137000D01*
X141859000Y-113157000D01*
X143102997Y-113157000D01*
X143223046Y-112919258D01*
X142969966Y-112376424D01*
X142634880Y-112069329D01*
X142888120Y-111900120D01*
X143242543Y-111369687D01*
X143367000Y-110744000D01*
X143242543Y-110118313D01*
X143055913Y-109839000D01*
X145880760Y-109839000D01*
X147288342Y-111246582D01*
X147243569Y-111312110D01*
X147192560Y-111564000D01*
X147192560Y-112464000D01*
X147236838Y-112699317D01*
X147322558Y-112832529D01*
X147245592Y-112989999D01*
X147372498Y-113157000D01*
X148463000Y-113157000D01*
X148463000Y-113137000D01*
X148529672Y-113137000D01*
X148590000Y-113149000D01*
X148650328Y-113137000D01*
X148717000Y-113137000D01*
X148717000Y-113157000D01*
X149807502Y-113157000D01*
X149934408Y-112989999D01*
X149857147Y-112831925D01*
X149936431Y-112715890D01*
X149987440Y-112464000D01*
X149987440Y-111564000D01*
X149943162Y-111328683D01*
X149867291Y-111210775D01*
X150100543Y-110861688D01*
X150225001Y-110236000D01*
X150146032Y-109839000D01*
X150452760Y-109839000D01*
X153783878Y-113170117D01*
X153783880Y-113170120D01*
X154168329Y-113427000D01*
X153162000Y-113427000D01*
X152536313Y-113551457D01*
X152005880Y-113905880D01*
X151651457Y-114436313D01*
X151527000Y-115062000D01*
X151651457Y-115687687D01*
X152005880Y-116218120D01*
X152536313Y-116572543D01*
X153162000Y-116697000D01*
X153754760Y-116697000D01*
X154294761Y-117237000D01*
X152569240Y-117237000D01*
X151016120Y-115683880D01*
X150485688Y-115329457D01*
X149860000Y-115204999D01*
X149746973Y-115227482D01*
X149919543Y-114969212D01*
X150002134Y-114554000D01*
X149919543Y-114138788D01*
X149769830Y-113914726D01*
X149934408Y-113578001D01*
X149807502Y-113411000D01*
X148717000Y-113411000D01*
X148717000Y-113431000D01*
X148650328Y-113431000D01*
X148590000Y-113419000D01*
X148529672Y-113431000D01*
X148463000Y-113431000D01*
X148463000Y-113411000D01*
X147372498Y-113411000D01*
X147245592Y-113578001D01*
X147410170Y-113914726D01*
X147260457Y-114138788D01*
X147177866Y-114554000D01*
X147260457Y-114969212D01*
X147455000Y-115260366D01*
X147455000Y-116078000D01*
X147541397Y-116512346D01*
X147636892Y-116655264D01*
X147787434Y-116880566D01*
X148343721Y-117436853D01*
X148349457Y-117465688D01*
X148703880Y-117996120D01*
X149491529Y-118783769D01*
X148980312Y-118885457D01*
X148449880Y-119239880D01*
X148095457Y-119770312D01*
X147970999Y-120396000D01*
X148095457Y-121021688D01*
X148449880Y-121552120D01*
X149465880Y-122568120D01*
X149996312Y-122922543D01*
X150622000Y-123047001D01*
X150622005Y-123047000D01*
X155638763Y-123047000D01*
X155486959Y-123214577D01*
X155326096Y-123602961D01*
X155448085Y-123825000D01*
X156591000Y-123825000D01*
X156591000Y-123805000D01*
X156845000Y-123805000D01*
X156845000Y-123825000D01*
X156865000Y-123825000D01*
X156865000Y-124079000D01*
X156845000Y-124079000D01*
X156845000Y-125222629D01*
X157067041Y-125343914D01*
X157569788Y-125105973D01*
X157056760Y-125619000D01*
X155871240Y-125619000D01*
X154553279Y-124301039D01*
X155326096Y-124301039D01*
X155486959Y-124689423D01*
X155862866Y-125104389D01*
X156368959Y-125343914D01*
X156591000Y-125222629D01*
X156591000Y-124079000D01*
X155448085Y-124079000D01*
X155326096Y-124301039D01*
X154553279Y-124301039D01*
X154318120Y-124065880D01*
X153787688Y-123711457D01*
X153162000Y-123586999D01*
X152536312Y-123711457D01*
X152005880Y-124065880D01*
X151651457Y-124596312D01*
X151526999Y-125222000D01*
X151651457Y-125847688D01*
X152005880Y-126378120D01*
X154037880Y-128410120D01*
X154568312Y-128764543D01*
X155194000Y-128889001D01*
X155194005Y-128889000D01*
X157733995Y-128889000D01*
X157734000Y-128889001D01*
X158359688Y-128764543D01*
X158890120Y-128410120D01*
X160163000Y-127137239D01*
X160163000Y-129937000D01*
X159427240Y-129937000D01*
X159398120Y-129907880D01*
X158867688Y-129553457D01*
X158242000Y-129428999D01*
X158241995Y-129429000D01*
X152628173Y-129429000D01*
X152626000Y-129428560D01*
X149126000Y-129428560D01*
X148890683Y-129472838D01*
X148674559Y-129611910D01*
X148529569Y-129824110D01*
X148478560Y-130076000D01*
X148478560Y-130164321D01*
X146669000Y-128354760D01*
X146669000Y-126403745D01*
X148777861Y-126403745D01*
X148851995Y-126649864D01*
X149389223Y-126842965D01*
X149959454Y-126815778D01*
X150360005Y-126649864D01*
X150434139Y-126403745D01*
X149606000Y-125575605D01*
X148777861Y-126403745D01*
X146669000Y-126403745D01*
X146669000Y-125179223D01*
X148159035Y-125179223D01*
X148186222Y-125749454D01*
X148352136Y-126150005D01*
X148598255Y-126224139D01*
X149426395Y-125396000D01*
X149785605Y-125396000D01*
X150613745Y-126224139D01*
X150859864Y-126150005D01*
X151052965Y-125612777D01*
X151025778Y-125042546D01*
X150859864Y-124641995D01*
X150613745Y-124567861D01*
X149785605Y-125396000D01*
X149426395Y-125396000D01*
X148598255Y-124567861D01*
X148352136Y-124641995D01*
X148159035Y-125179223D01*
X146669000Y-125179223D01*
X146669000Y-124388255D01*
X148777861Y-124388255D01*
X149606000Y-125216395D01*
X150434139Y-124388255D01*
X150360005Y-124142136D01*
X149822777Y-123949035D01*
X149252546Y-123976222D01*
X148851995Y-124142136D01*
X148777861Y-124388255D01*
X146669000Y-124388255D01*
X146669000Y-122936000D01*
X146618351Y-122681371D01*
X146544543Y-122310312D01*
X146362381Y-122037688D01*
X146190120Y-121779880D01*
X146190117Y-121779878D01*
X144920120Y-120509880D01*
X144389688Y-120155457D01*
X143764000Y-120030999D01*
X143763995Y-120031000D01*
X141732000Y-120031000D01*
X141291807Y-120118560D01*
X140832000Y-120118560D01*
X140596683Y-120162838D01*
X140380559Y-120301910D01*
X140235569Y-120514110D01*
X140184560Y-120766000D01*
X140184560Y-121225807D01*
X140097000Y-121666000D01*
X140184560Y-122106193D01*
X140184560Y-122566000D01*
X140228838Y-122801317D01*
X140367910Y-123017441D01*
X140580110Y-123162431D01*
X140631146Y-123172766D01*
X140494034Y-123298424D01*
X140240954Y-123841258D01*
X140361003Y-124079000D01*
X141605000Y-124079000D01*
X141605000Y-124059000D01*
X141859000Y-124059000D01*
X141859000Y-124079000D01*
X143102997Y-124079000D01*
X143223046Y-123841258D01*
X142971167Y-123301000D01*
X143086760Y-123301000D01*
X143399000Y-123613239D01*
X143399000Y-129031995D01*
X143398999Y-129032000D01*
X143523457Y-129657688D01*
X143877880Y-130188120D01*
X146671878Y-132982117D01*
X146671880Y-132982120D01*
X147008438Y-133207000D01*
X147202313Y-133336543D01*
X147828000Y-133461001D01*
X147828005Y-133461000D01*
X148478560Y-133461000D01*
X148478560Y-133576000D01*
X148522838Y-133811317D01*
X148661910Y-134027441D01*
X148874110Y-134172431D01*
X149126000Y-134223440D01*
X152626000Y-134223440D01*
X152861317Y-134179162D01*
X153077441Y-134040090D01*
X153191000Y-133873891D01*
X153191000Y-134540250D01*
X153349750Y-134699000D01*
X155449000Y-134699000D01*
X155449000Y-134679000D01*
X155703000Y-134679000D01*
X155703000Y-134699000D01*
X157802250Y-134699000D01*
X157961000Y-134540250D01*
X157961000Y-132973421D01*
X158124313Y-133082543D01*
X158750000Y-133207000D01*
X162023392Y-133207000D01*
X162060253Y-133243861D01*
X161814136Y-133317995D01*
X161621035Y-133855223D01*
X161648222Y-134425454D01*
X161814136Y-134826005D01*
X162060255Y-134900139D01*
X162888395Y-134072000D01*
X163247605Y-134072000D01*
X164075745Y-134900139D01*
X164321864Y-134826005D01*
X164514965Y-134288777D01*
X164487778Y-133718546D01*
X164321864Y-133317995D01*
X164075745Y-133243861D01*
X163247605Y-134072000D01*
X162888395Y-134072000D01*
X162874252Y-134057858D01*
X163053858Y-133878252D01*
X163068000Y-133892395D01*
X163896139Y-133064255D01*
X163881855Y-133016833D01*
X164103317Y-132975162D01*
X164319441Y-132836090D01*
X164464431Y-132623890D01*
X164515440Y-132372000D01*
X164515440Y-132292128D01*
X164563554Y-132220120D01*
X164578543Y-132197688D01*
X164703000Y-131572000D01*
X164578543Y-130946312D01*
X164515440Y-130851872D01*
X164515440Y-130772000D01*
X164471162Y-130536683D01*
X164332090Y-130320559D01*
X164119890Y-130175569D01*
X163949253Y-130141014D01*
X163433000Y-129624760D01*
X163433000Y-126189745D01*
X168843861Y-126189745D01*
X168917995Y-126435864D01*
X169455223Y-126628965D01*
X170025454Y-126601778D01*
X170426005Y-126435864D01*
X170500139Y-126189745D01*
X172399861Y-126189745D01*
X172473995Y-126435864D01*
X173011223Y-126628965D01*
X173581454Y-126601778D01*
X173982005Y-126435864D01*
X174056139Y-126189745D01*
X173228000Y-125361605D01*
X172399861Y-126189745D01*
X170500139Y-126189745D01*
X169672000Y-125361605D01*
X168843861Y-126189745D01*
X163433000Y-126189745D01*
X163433000Y-125058780D01*
X163760736Y-125277767D01*
X164309887Y-125387000D01*
X164366113Y-125387000D01*
X164915264Y-125277767D01*
X165380811Y-124966698D01*
X165691880Y-124501151D01*
X165801113Y-123952000D01*
X165691880Y-123402849D01*
X165454109Y-123047000D01*
X165946760Y-123047000D01*
X166737878Y-123838117D01*
X166737880Y-123838120D01*
X166944565Y-123976222D01*
X167268312Y-124192543D01*
X167894000Y-124317000D01*
X168627392Y-124317000D01*
X168664253Y-124353861D01*
X168418136Y-124427995D01*
X168225035Y-124965223D01*
X168252222Y-125535454D01*
X168418136Y-125936005D01*
X168664255Y-126010139D01*
X169492395Y-125182000D01*
X169851605Y-125182000D01*
X170679745Y-126010139D01*
X170925864Y-125936005D01*
X171118965Y-125398777D01*
X171091778Y-124828546D01*
X170925864Y-124427995D01*
X170679745Y-124353861D01*
X169851605Y-125182000D01*
X169492395Y-125182000D01*
X169478252Y-125167858D01*
X169657858Y-124988252D01*
X169672000Y-125002395D01*
X170500139Y-124174255D01*
X170470805Y-124076869D01*
X170828120Y-123838120D01*
X171182543Y-123307687D01*
X171307000Y-122682000D01*
X171307000Y-121327240D01*
X172127239Y-120507000D01*
X175937699Y-120507000D01*
X176081776Y-120603269D01*
X176784000Y-120742950D01*
X177486224Y-120603269D01*
X177943000Y-120298061D01*
X177943000Y-120480761D01*
X177076762Y-121346998D01*
X174116403Y-121346998D01*
X173853687Y-121171457D01*
X173228000Y-121047000D01*
X172602313Y-121171457D01*
X172071880Y-121525880D01*
X171717457Y-122056313D01*
X171593000Y-122682000D01*
X171593000Y-122981998D01*
X171717457Y-123607685D01*
X172071880Y-124138118D01*
X172152427Y-124191937D01*
X172105378Y-124238986D01*
X172220253Y-124353861D01*
X171974136Y-124427995D01*
X171781035Y-124965223D01*
X171808222Y-125535454D01*
X171974136Y-125936005D01*
X172220255Y-126010139D01*
X173048395Y-125182000D01*
X173034252Y-125167858D01*
X173213858Y-124988253D01*
X173228000Y-125002395D01*
X173242143Y-124988253D01*
X173421748Y-125167858D01*
X173407605Y-125182000D01*
X174235745Y-126010139D01*
X174481864Y-125936005D01*
X174674965Y-125398777D01*
X174647778Y-124828546D01*
X174560152Y-124616998D01*
X177753997Y-124616998D01*
X177754002Y-124616999D01*
X178379690Y-124492541D01*
X178910122Y-124138118D01*
X180734117Y-122314122D01*
X180734120Y-122314120D01*
X181088543Y-121783687D01*
X181089300Y-121779880D01*
X181213001Y-121158000D01*
X181213000Y-121157995D01*
X181213000Y-114808000D01*
X181088543Y-114182313D01*
X180734120Y-113651880D01*
X180734117Y-113651878D01*
X175625000Y-108542760D01*
X175625000Y-105068325D01*
X175743199Y-105186730D01*
X176417395Y-105466681D01*
X177147403Y-105467318D01*
X177822086Y-105188545D01*
X178338730Y-104672801D01*
X178618681Y-103998605D01*
X178619318Y-103268597D01*
X178340545Y-102593914D01*
X177824801Y-102077270D01*
X177150605Y-101797319D01*
X176420597Y-101796682D01*
X175745914Y-102075455D01*
X175625000Y-102196158D01*
X175625000Y-89408000D01*
X175500543Y-88782313D01*
X175223285Y-88367365D01*
X177715000Y-88367365D01*
X177888935Y-89241797D01*
X178384261Y-89983104D01*
X179125568Y-90478430D01*
X180000000Y-90652365D01*
X180874432Y-90478430D01*
X181615739Y-89983104D01*
X182111065Y-89241797D01*
X182285000Y-88367365D01*
X182111065Y-87492933D01*
X181615739Y-86751626D01*
X180874432Y-86256300D01*
X180000000Y-86082365D01*
X179125568Y-86256300D01*
X178384261Y-86751626D01*
X177888935Y-87492933D01*
X177715000Y-88367365D01*
X175223285Y-88367365D01*
X175146120Y-88251880D01*
X174615687Y-87897457D01*
X173990000Y-87773000D01*
X173364313Y-87897457D01*
X172833880Y-88251880D01*
X172479457Y-88782313D01*
X172355000Y-89408000D01*
X172355000Y-90540761D01*
X171844120Y-90029880D01*
X171313688Y-89675457D01*
X170688000Y-89550999D01*
X170687995Y-89551000D01*
X166370000Y-89551000D01*
X165744313Y-89675457D01*
X165213880Y-90029880D01*
X164859457Y-90560313D01*
X164735000Y-91186000D01*
X164859457Y-91811687D01*
X165213880Y-92342120D01*
X165744313Y-92696543D01*
X166370000Y-92821000D01*
X170010761Y-92821000D01*
X170293881Y-93104120D01*
X170824313Y-93458543D01*
X171450000Y-93583001D01*
X172075688Y-93458543D01*
X172355000Y-93271913D01*
X172355000Y-109219995D01*
X172354999Y-109220000D01*
X172479457Y-109845688D01*
X172833880Y-110376120D01*
X177943000Y-115485239D01*
X177943000Y-117445939D01*
X177486224Y-117140731D01*
X176784000Y-117001050D01*
X176081776Y-117140731D01*
X175937699Y-117237000D01*
X171528809Y-117237000D01*
X171702698Y-117120811D01*
X172013767Y-116655264D01*
X172123000Y-116106113D01*
X172123000Y-116049887D01*
X172013767Y-115500736D01*
X171702698Y-115035189D01*
X171237151Y-114724120D01*
X170688000Y-114614887D01*
X170138849Y-114724120D01*
X169673302Y-115035189D01*
X169362233Y-115500736D01*
X169253000Y-116049887D01*
X169253000Y-116106113D01*
X169362233Y-116655264D01*
X169673302Y-117120811D01*
X170138849Y-117431880D01*
X170585848Y-117520794D01*
X170293880Y-117715880D01*
X170293878Y-117715883D01*
X168515880Y-119493880D01*
X168161457Y-120024312D01*
X168059769Y-120535529D01*
X167780120Y-120255880D01*
X167249688Y-119901457D01*
X166624000Y-119776999D01*
X166623995Y-119777000D01*
X165661913Y-119777000D01*
X165848543Y-119497687D01*
X165973000Y-118872000D01*
X165848543Y-118246313D01*
X165494120Y-117715880D01*
X165323686Y-117602000D01*
X165494120Y-117488120D01*
X167780117Y-115202122D01*
X167780120Y-115202120D01*
X168043462Y-114808000D01*
X168134543Y-114671688D01*
X168259000Y-114046000D01*
X168259000Y-109728005D01*
X168259001Y-109728000D01*
X168134543Y-109102312D01*
X167780120Y-108571880D01*
X166764120Y-107555880D01*
X166233688Y-107201457D01*
X165608000Y-107076999D01*
X165607995Y-107077000D01*
X164338000Y-107077000D01*
X163712313Y-107201457D01*
X163181880Y-107555880D01*
X162827457Y-108086313D01*
X162703000Y-108712000D01*
X162827457Y-109337687D01*
X163181880Y-109868120D01*
X163712313Y-110222543D01*
X164338000Y-110347000D01*
X164930760Y-110347000D01*
X164989000Y-110405240D01*
X164989000Y-111242329D01*
X164732120Y-110857880D01*
X164201687Y-110503457D01*
X163576000Y-110379000D01*
X162950313Y-110503457D01*
X162419880Y-110857880D01*
X162065457Y-111388313D01*
X161941000Y-112014000D01*
X161941000Y-112606761D01*
X158330230Y-116217530D01*
X158228543Y-115706313D01*
X158165440Y-115611872D01*
X158165440Y-115532000D01*
X158121162Y-115296683D01*
X157982090Y-115080559D01*
X157769890Y-114935569D01*
X157518000Y-114884560D01*
X157438128Y-114884560D01*
X157343687Y-114821457D01*
X156718000Y-114697000D01*
X156379239Y-114697000D01*
X155588120Y-113905880D01*
X155203672Y-113649000D01*
X155956000Y-113649000D01*
X156581687Y-113524543D01*
X156676128Y-113461440D01*
X156756000Y-113461440D01*
X156991317Y-113417162D01*
X157207441Y-113278090D01*
X157352431Y-113065890D01*
X157403440Y-112814000D01*
X157403440Y-112734128D01*
X157466543Y-112639687D01*
X157591000Y-112014000D01*
X157466543Y-111388313D01*
X157403440Y-111293872D01*
X157403440Y-111214000D01*
X157359162Y-110978683D01*
X157220090Y-110762559D01*
X157007890Y-110617569D01*
X156756000Y-110566560D01*
X156676128Y-110566560D01*
X156581687Y-110503457D01*
X155956000Y-110379000D01*
X155617239Y-110379000D01*
X152286120Y-107047880D01*
X152103332Y-106925745D01*
X169859861Y-106925745D01*
X169933995Y-107171864D01*
X170471223Y-107364965D01*
X171041454Y-107337778D01*
X171442005Y-107171864D01*
X171516139Y-106925745D01*
X170688000Y-106097605D01*
X169859861Y-106925745D01*
X152103332Y-106925745D01*
X151755688Y-106693457D01*
X151130000Y-106568999D01*
X151129995Y-106569000D01*
X146558005Y-106569000D01*
X146558000Y-106568999D01*
X146557995Y-106569000D01*
X141732000Y-106569000D01*
X141291807Y-106656560D01*
X141081000Y-106656560D01*
X141081000Y-106087240D01*
X141467016Y-105701223D01*
X169241035Y-105701223D01*
X169268222Y-106271454D01*
X169434136Y-106672005D01*
X169680255Y-106746139D01*
X170508395Y-105918000D01*
X170867605Y-105918000D01*
X171695745Y-106746139D01*
X171941864Y-106672005D01*
X172134965Y-106134777D01*
X172107778Y-105564546D01*
X171941864Y-105163995D01*
X171695745Y-105089861D01*
X170867605Y-105918000D01*
X170508395Y-105918000D01*
X169680255Y-105089861D01*
X169434136Y-105163995D01*
X169241035Y-105701223D01*
X141467016Y-105701223D01*
X142257984Y-104910255D01*
X169859861Y-104910255D01*
X170688000Y-105738395D01*
X171516139Y-104910255D01*
X171442005Y-104664136D01*
X170904777Y-104471035D01*
X170334546Y-104498222D01*
X169933995Y-104664136D01*
X169859861Y-104910255D01*
X142257984Y-104910255D01*
X143088276Y-104079963D01*
X143212439Y-103997000D01*
X149830510Y-103997000D01*
X150311395Y-104196681D01*
X151041403Y-104197318D01*
X151716086Y-103918545D01*
X152232730Y-103402801D01*
X152512681Y-102728605D01*
X152512683Y-102725403D01*
X155842682Y-102725403D01*
X156121455Y-103400086D01*
X156637199Y-103916730D01*
X157311395Y-104196681D01*
X158041403Y-104197318D01*
X158716086Y-103918545D01*
X159232730Y-103402801D01*
X159512681Y-102728605D01*
X159513318Y-101998597D01*
X159234545Y-101323914D01*
X158718801Y-100807270D01*
X158044605Y-100527319D01*
X157314597Y-100526682D01*
X156639914Y-100805455D01*
X156123270Y-101321199D01*
X155843319Y-101995395D01*
X155842682Y-102725403D01*
X152512683Y-102725403D01*
X152513318Y-101998597D01*
X152234545Y-101323914D01*
X151718801Y-100807270D01*
X151044605Y-100527319D01*
X150314597Y-100526682D01*
X149829790Y-100727000D01*
X142240000Y-100727000D01*
X142067628Y-100761287D01*
X141986000Y-100745050D01*
X141283776Y-100884731D01*
X140688459Y-101282509D01*
X140290681Y-101877826D01*
X140197504Y-102346256D01*
X138289880Y-104253880D01*
X137935457Y-104784312D01*
X137909284Y-104915890D01*
X137820155Y-104747000D01*
X136627000Y-104747000D01*
X136373000Y-104747000D01*
X136353000Y-104747000D01*
X136353000Y-104493000D01*
X136373000Y-104493000D01*
X136373000Y-104473000D01*
X136627000Y-104473000D01*
X136627000Y-104493000D01*
X137820155Y-104493000D01*
X137941476Y-104263110D01*
X137771645Y-103853076D01*
X137381358Y-103424817D01*
X137238447Y-103357702D01*
X137579147Y-103130054D01*
X137901054Y-102648285D01*
X138014093Y-102080000D01*
X137901054Y-101511715D01*
X137579147Y-101029946D01*
X137367830Y-100888749D01*
X137656120Y-100696120D01*
X138010543Y-100165687D01*
X138135000Y-99540000D01*
X138135000Y-98635000D01*
X140010761Y-98635000D01*
X140067878Y-98692117D01*
X140067880Y-98692120D01*
X140139280Y-98739828D01*
X140182838Y-98971317D01*
X140321910Y-99187441D01*
X140534110Y-99332431D01*
X140786000Y-99383440D01*
X143186000Y-99383440D01*
X143421317Y-99339162D01*
X143637441Y-99200090D01*
X143782431Y-98987890D01*
X143833440Y-98736000D01*
X143833440Y-96336000D01*
X143789162Y-96100683D01*
X143714006Y-95983887D01*
X162903000Y-95983887D01*
X162903000Y-96040113D01*
X163012233Y-96589264D01*
X163323302Y-97054811D01*
X163788849Y-97365880D01*
X164338000Y-97475113D01*
X164887151Y-97365880D01*
X165352698Y-97054811D01*
X165663767Y-96589264D01*
X165773000Y-96040113D01*
X165773000Y-95983887D01*
X165663767Y-95434736D01*
X165352698Y-94969189D01*
X164887151Y-94658120D01*
X164338000Y-94548887D01*
X163788849Y-94658120D01*
X163323302Y-94969189D01*
X163012233Y-95434736D01*
X162903000Y-95983887D01*
X143714006Y-95983887D01*
X143650090Y-95884559D01*
X143621000Y-95864683D01*
X143621000Y-94911240D01*
X145457239Y-93075000D01*
X148544569Y-93075000D01*
X148606000Y-93087440D01*
X150606000Y-93087440D01*
X150841317Y-93043162D01*
X151057441Y-92904090D01*
X151114214Y-92821000D01*
X156210000Y-92821000D01*
X156835687Y-92696543D01*
X157366120Y-92342120D01*
X157720543Y-91811687D01*
X157845000Y-91186000D01*
X157720543Y-90560313D01*
X157366120Y-90029880D01*
X156835687Y-89675457D01*
X156210000Y-89551000D01*
X149860000Y-89551000D01*
X149234312Y-89675457D01*
X149120880Y-89751250D01*
X149059055Y-89792560D01*
X148606000Y-89792560D01*
X148539887Y-89805000D01*
X147882802Y-89805000D01*
X147995629Y-89692370D01*
X148208757Y-89179100D01*
X148209242Y-88623339D01*
X148110245Y-88383745D01*
X155381861Y-88383745D01*
X155455995Y-88629864D01*
X155993223Y-88822965D01*
X156563454Y-88795778D01*
X156964005Y-88629864D01*
X157038139Y-88383745D01*
X156210000Y-87555605D01*
X155381861Y-88383745D01*
X148110245Y-88383745D01*
X147997010Y-88109697D01*
X147604370Y-87716371D01*
X147396488Y-87630051D01*
X147487290Y-87592532D01*
X148633073Y-87592532D01*
X148731736Y-87859387D01*
X149341461Y-88085908D01*
X149991460Y-88061856D01*
X150480264Y-87859387D01*
X150578927Y-87592532D01*
X149606000Y-86619605D01*
X148633073Y-87592532D01*
X147487290Y-87592532D01*
X147602303Y-87545010D01*
X147995629Y-87152370D01*
X148057668Y-87002963D01*
X148186613Y-87314264D01*
X148453468Y-87412927D01*
X149426395Y-86440000D01*
X149785605Y-86440000D01*
X150758532Y-87412927D01*
X151025387Y-87314264D01*
X151082986Y-87159223D01*
X154763035Y-87159223D01*
X154790222Y-87729454D01*
X154956136Y-88130005D01*
X155202255Y-88204139D01*
X156030395Y-87376000D01*
X156389605Y-87376000D01*
X157217745Y-88204139D01*
X157463864Y-88130005D01*
X157656965Y-87592777D01*
X157646630Y-87376000D01*
X164735000Y-87376000D01*
X164859457Y-88001687D01*
X165213880Y-88532120D01*
X165744313Y-88886543D01*
X166370000Y-89011000D01*
X170941995Y-89011000D01*
X170942000Y-89011001D01*
X171567688Y-88886543D01*
X172098120Y-88532120D01*
X172606119Y-88024120D01*
X172960542Y-87493688D01*
X173085000Y-86868000D01*
X172960542Y-86242313D01*
X172606119Y-85711881D01*
X172075687Y-85357458D01*
X171450000Y-85233000D01*
X170824312Y-85357458D01*
X170293880Y-85711881D01*
X170264761Y-85741000D01*
X166370000Y-85741000D01*
X165744313Y-85865457D01*
X165213880Y-86219880D01*
X164859457Y-86750313D01*
X164735000Y-87376000D01*
X157646630Y-87376000D01*
X157629778Y-87022546D01*
X157463864Y-86621995D01*
X157217745Y-86547861D01*
X156389605Y-87376000D01*
X156030395Y-87376000D01*
X155202255Y-86547861D01*
X154956136Y-86621995D01*
X154763035Y-87159223D01*
X151082986Y-87159223D01*
X151251908Y-86704539D01*
X151239465Y-86368255D01*
X155381861Y-86368255D01*
X156210000Y-87196395D01*
X157038139Y-86368255D01*
X156964005Y-86122136D01*
X156426777Y-85929035D01*
X155856546Y-85956222D01*
X155455995Y-86122136D01*
X155381861Y-86368255D01*
X151239465Y-86368255D01*
X151227856Y-86054540D01*
X151025387Y-85565736D01*
X150758532Y-85467073D01*
X149785605Y-86440000D01*
X149426395Y-86440000D01*
X148453468Y-85467073D01*
X148186613Y-85565736D01*
X148096072Y-85809445D01*
X147997010Y-85569697D01*
X147604370Y-85176371D01*
X147091100Y-84963243D01*
X146535339Y-84962758D01*
X146021697Y-85174990D01*
X145628371Y-85567630D01*
X145415243Y-86080900D01*
X145414758Y-86636661D01*
X145626990Y-87150303D01*
X146019630Y-87543629D01*
X146227512Y-87629949D01*
X146021697Y-87714990D01*
X145628371Y-88107630D01*
X145415243Y-88620900D01*
X145414758Y-89176661D01*
X145626990Y-89690303D01*
X145741487Y-89805000D01*
X144780005Y-89805000D01*
X144780000Y-89804999D01*
X144154313Y-89929457D01*
X143623880Y-90283880D01*
X143623878Y-90283883D01*
X140829880Y-93077880D01*
X140475457Y-93608312D01*
X140350999Y-94234000D01*
X140351000Y-94234005D01*
X140351000Y-95365000D01*
X136500000Y-95365000D01*
X135874313Y-95489457D01*
X135854703Y-95502560D01*
X135650000Y-95502560D01*
X135414683Y-95546838D01*
X135198559Y-95685910D01*
X135185000Y-95705754D01*
X135185000Y-88367365D01*
X135715000Y-88367365D01*
X135888935Y-89241797D01*
X136384261Y-89983104D01*
X137125568Y-90478430D01*
X138000000Y-90652365D01*
X138874432Y-90478430D01*
X139615739Y-89983104D01*
X140111065Y-89241797D01*
X140285000Y-88367365D01*
X140111065Y-87492933D01*
X139615739Y-86751626D01*
X138874432Y-86256300D01*
X138000000Y-86082365D01*
X137125568Y-86256300D01*
X136384261Y-86751626D01*
X135888935Y-87492933D01*
X135715000Y-88367365D01*
X135185000Y-88367365D01*
X135185000Y-83068682D01*
X148659325Y-83068682D01*
X148463243Y-83540900D01*
M02*
